%TF.GenerationSoftware,KiCad,Pcbnew,9.0.6*%
%TF.CreationDate,2026-03-20T11:44:22+02:00*%
%TF.ProjectId,RocketClock,526f636b-6574-4436-9c6f-636b2e6b6963,rev?*%
%TF.SameCoordinates,Original*%
%TF.FileFunction,Legend,Top*%
%TF.FilePolarity,Positive*%
%FSLAX46Y46*%
G04 Gerber Fmt 4.6, Leading zero omitted, Abs format (unit mm)*
G04 Created by KiCad (PCBNEW 9.0.6) date 2026-03-20 11:44:22*
%MOMM*%
%LPD*%
G01*
G04 APERTURE LIST*
%ADD10C,0.150000*%
%ADD11C,0.120000*%
G04 APERTURE END LIST*
D10*
X191910714Y-138554819D02*
X191910714Y-137554819D01*
X191910714Y-137554819D02*
X192148809Y-137554819D01*
X192148809Y-137554819D02*
X192291666Y-137602438D01*
X192291666Y-137602438D02*
X192386904Y-137697676D01*
X192386904Y-137697676D02*
X192434523Y-137792914D01*
X192434523Y-137792914D02*
X192482142Y-137983390D01*
X192482142Y-137983390D02*
X192482142Y-138126247D01*
X192482142Y-138126247D02*
X192434523Y-138316723D01*
X192434523Y-138316723D02*
X192386904Y-138411961D01*
X192386904Y-138411961D02*
X192291666Y-138507200D01*
X192291666Y-138507200D02*
X192148809Y-138554819D01*
X192148809Y-138554819D02*
X191910714Y-138554819D01*
X193339285Y-137554819D02*
X193148809Y-137554819D01*
X193148809Y-137554819D02*
X193053571Y-137602438D01*
X193053571Y-137602438D02*
X193005952Y-137650057D01*
X193005952Y-137650057D02*
X192910714Y-137792914D01*
X192910714Y-137792914D02*
X192863095Y-137983390D01*
X192863095Y-137983390D02*
X192863095Y-138364342D01*
X192863095Y-138364342D02*
X192910714Y-138459580D01*
X192910714Y-138459580D02*
X192958333Y-138507200D01*
X192958333Y-138507200D02*
X193053571Y-138554819D01*
X193053571Y-138554819D02*
X193244047Y-138554819D01*
X193244047Y-138554819D02*
X193339285Y-138507200D01*
X193339285Y-138507200D02*
X193386904Y-138459580D01*
X193386904Y-138459580D02*
X193434523Y-138364342D01*
X193434523Y-138364342D02*
X193434523Y-138126247D01*
X193434523Y-138126247D02*
X193386904Y-138031009D01*
X193386904Y-138031009D02*
X193339285Y-137983390D01*
X193339285Y-137983390D02*
X193244047Y-137935771D01*
X193244047Y-137935771D02*
X193053571Y-137935771D01*
X193053571Y-137935771D02*
X192958333Y-137983390D01*
X192958333Y-137983390D02*
X192910714Y-138031009D01*
X192910714Y-138031009D02*
X192863095Y-138126247D01*
X194339285Y-137554819D02*
X193863095Y-137554819D01*
X193863095Y-137554819D02*
X193815476Y-138031009D01*
X193815476Y-138031009D02*
X193863095Y-137983390D01*
X193863095Y-137983390D02*
X193958333Y-137935771D01*
X193958333Y-137935771D02*
X194196428Y-137935771D01*
X194196428Y-137935771D02*
X194291666Y-137983390D01*
X194291666Y-137983390D02*
X194339285Y-138031009D01*
X194339285Y-138031009D02*
X194386904Y-138126247D01*
X194386904Y-138126247D02*
X194386904Y-138364342D01*
X194386904Y-138364342D02*
X194339285Y-138459580D01*
X194339285Y-138459580D02*
X194291666Y-138507200D01*
X194291666Y-138507200D02*
X194196428Y-138554819D01*
X194196428Y-138554819D02*
X193958333Y-138554819D01*
X193958333Y-138554819D02*
X193863095Y-138507200D01*
X193863095Y-138507200D02*
X193815476Y-138459580D01*
X166910714Y-63554819D02*
X166910714Y-62554819D01*
X166910714Y-62554819D02*
X167148809Y-62554819D01*
X167148809Y-62554819D02*
X167291666Y-62602438D01*
X167291666Y-62602438D02*
X167386904Y-62697676D01*
X167386904Y-62697676D02*
X167434523Y-62792914D01*
X167434523Y-62792914D02*
X167482142Y-62983390D01*
X167482142Y-62983390D02*
X167482142Y-63126247D01*
X167482142Y-63126247D02*
X167434523Y-63316723D01*
X167434523Y-63316723D02*
X167386904Y-63411961D01*
X167386904Y-63411961D02*
X167291666Y-63507200D01*
X167291666Y-63507200D02*
X167148809Y-63554819D01*
X167148809Y-63554819D02*
X166910714Y-63554819D01*
X168434523Y-63554819D02*
X167863095Y-63554819D01*
X168148809Y-63554819D02*
X168148809Y-62554819D01*
X168148809Y-62554819D02*
X168053571Y-62697676D01*
X168053571Y-62697676D02*
X167958333Y-62792914D01*
X167958333Y-62792914D02*
X167863095Y-62840533D01*
X169339285Y-62554819D02*
X168863095Y-62554819D01*
X168863095Y-62554819D02*
X168815476Y-63031009D01*
X168815476Y-63031009D02*
X168863095Y-62983390D01*
X168863095Y-62983390D02*
X168958333Y-62935771D01*
X168958333Y-62935771D02*
X169196428Y-62935771D01*
X169196428Y-62935771D02*
X169291666Y-62983390D01*
X169291666Y-62983390D02*
X169339285Y-63031009D01*
X169339285Y-63031009D02*
X169386904Y-63126247D01*
X169386904Y-63126247D02*
X169386904Y-63364342D01*
X169386904Y-63364342D02*
X169339285Y-63459580D01*
X169339285Y-63459580D02*
X169291666Y-63507200D01*
X169291666Y-63507200D02*
X169196428Y-63554819D01*
X169196428Y-63554819D02*
X168958333Y-63554819D01*
X168958333Y-63554819D02*
X168863095Y-63507200D01*
X168863095Y-63507200D02*
X168815476Y-63459580D01*
X179410714Y-126054819D02*
X179410714Y-125054819D01*
X179410714Y-125054819D02*
X179648809Y-125054819D01*
X179648809Y-125054819D02*
X179791666Y-125102438D01*
X179791666Y-125102438D02*
X179886904Y-125197676D01*
X179886904Y-125197676D02*
X179934523Y-125292914D01*
X179934523Y-125292914D02*
X179982142Y-125483390D01*
X179982142Y-125483390D02*
X179982142Y-125626247D01*
X179982142Y-125626247D02*
X179934523Y-125816723D01*
X179934523Y-125816723D02*
X179886904Y-125911961D01*
X179886904Y-125911961D02*
X179791666Y-126007200D01*
X179791666Y-126007200D02*
X179648809Y-126054819D01*
X179648809Y-126054819D02*
X179410714Y-126054819D01*
X180886904Y-125054819D02*
X180410714Y-125054819D01*
X180410714Y-125054819D02*
X180363095Y-125531009D01*
X180363095Y-125531009D02*
X180410714Y-125483390D01*
X180410714Y-125483390D02*
X180505952Y-125435771D01*
X180505952Y-125435771D02*
X180744047Y-125435771D01*
X180744047Y-125435771D02*
X180839285Y-125483390D01*
X180839285Y-125483390D02*
X180886904Y-125531009D01*
X180886904Y-125531009D02*
X180934523Y-125626247D01*
X180934523Y-125626247D02*
X180934523Y-125864342D01*
X180934523Y-125864342D02*
X180886904Y-125959580D01*
X180886904Y-125959580D02*
X180839285Y-126007200D01*
X180839285Y-126007200D02*
X180744047Y-126054819D01*
X180744047Y-126054819D02*
X180505952Y-126054819D01*
X180505952Y-126054819D02*
X180410714Y-126007200D01*
X180410714Y-126007200D02*
X180363095Y-125959580D01*
X181791666Y-125054819D02*
X181601190Y-125054819D01*
X181601190Y-125054819D02*
X181505952Y-125102438D01*
X181505952Y-125102438D02*
X181458333Y-125150057D01*
X181458333Y-125150057D02*
X181363095Y-125292914D01*
X181363095Y-125292914D02*
X181315476Y-125483390D01*
X181315476Y-125483390D02*
X181315476Y-125864342D01*
X181315476Y-125864342D02*
X181363095Y-125959580D01*
X181363095Y-125959580D02*
X181410714Y-126007200D01*
X181410714Y-126007200D02*
X181505952Y-126054819D01*
X181505952Y-126054819D02*
X181696428Y-126054819D01*
X181696428Y-126054819D02*
X181791666Y-126007200D01*
X181791666Y-126007200D02*
X181839285Y-125959580D01*
X181839285Y-125959580D02*
X181886904Y-125864342D01*
X181886904Y-125864342D02*
X181886904Y-125626247D01*
X181886904Y-125626247D02*
X181839285Y-125531009D01*
X181839285Y-125531009D02*
X181791666Y-125483390D01*
X181791666Y-125483390D02*
X181696428Y-125435771D01*
X181696428Y-125435771D02*
X181505952Y-125435771D01*
X181505952Y-125435771D02*
X181410714Y-125483390D01*
X181410714Y-125483390D02*
X181363095Y-125531009D01*
X181363095Y-125531009D02*
X181315476Y-125626247D01*
X191910714Y-76054819D02*
X191910714Y-75054819D01*
X191910714Y-75054819D02*
X192148809Y-75054819D01*
X192148809Y-75054819D02*
X192291666Y-75102438D01*
X192291666Y-75102438D02*
X192386904Y-75197676D01*
X192386904Y-75197676D02*
X192434523Y-75292914D01*
X192434523Y-75292914D02*
X192482142Y-75483390D01*
X192482142Y-75483390D02*
X192482142Y-75626247D01*
X192482142Y-75626247D02*
X192434523Y-75816723D01*
X192434523Y-75816723D02*
X192386904Y-75911961D01*
X192386904Y-75911961D02*
X192291666Y-76007200D01*
X192291666Y-76007200D02*
X192148809Y-76054819D01*
X192148809Y-76054819D02*
X191910714Y-76054819D01*
X192863095Y-75150057D02*
X192910714Y-75102438D01*
X192910714Y-75102438D02*
X193005952Y-75054819D01*
X193005952Y-75054819D02*
X193244047Y-75054819D01*
X193244047Y-75054819D02*
X193339285Y-75102438D01*
X193339285Y-75102438D02*
X193386904Y-75150057D01*
X193386904Y-75150057D02*
X193434523Y-75245295D01*
X193434523Y-75245295D02*
X193434523Y-75340533D01*
X193434523Y-75340533D02*
X193386904Y-75483390D01*
X193386904Y-75483390D02*
X192815476Y-76054819D01*
X192815476Y-76054819D02*
X193434523Y-76054819D01*
X194339285Y-75054819D02*
X193863095Y-75054819D01*
X193863095Y-75054819D02*
X193815476Y-75531009D01*
X193815476Y-75531009D02*
X193863095Y-75483390D01*
X193863095Y-75483390D02*
X193958333Y-75435771D01*
X193958333Y-75435771D02*
X194196428Y-75435771D01*
X194196428Y-75435771D02*
X194291666Y-75483390D01*
X194291666Y-75483390D02*
X194339285Y-75531009D01*
X194339285Y-75531009D02*
X194386904Y-75626247D01*
X194386904Y-75626247D02*
X194386904Y-75864342D01*
X194386904Y-75864342D02*
X194339285Y-75959580D01*
X194339285Y-75959580D02*
X194291666Y-76007200D01*
X194291666Y-76007200D02*
X194196428Y-76054819D01*
X194196428Y-76054819D02*
X193958333Y-76054819D01*
X193958333Y-76054819D02*
X193863095Y-76007200D01*
X193863095Y-76007200D02*
X193815476Y-75959580D01*
X179410714Y-113554819D02*
X179410714Y-112554819D01*
X179410714Y-112554819D02*
X179648809Y-112554819D01*
X179648809Y-112554819D02*
X179791666Y-112602438D01*
X179791666Y-112602438D02*
X179886904Y-112697676D01*
X179886904Y-112697676D02*
X179934523Y-112792914D01*
X179934523Y-112792914D02*
X179982142Y-112983390D01*
X179982142Y-112983390D02*
X179982142Y-113126247D01*
X179982142Y-113126247D02*
X179934523Y-113316723D01*
X179934523Y-113316723D02*
X179886904Y-113411961D01*
X179886904Y-113411961D02*
X179791666Y-113507200D01*
X179791666Y-113507200D02*
X179648809Y-113554819D01*
X179648809Y-113554819D02*
X179410714Y-113554819D01*
X180839285Y-112888152D02*
X180839285Y-113554819D01*
X180601190Y-112507200D02*
X180363095Y-113221485D01*
X180363095Y-113221485D02*
X180982142Y-113221485D01*
X181505952Y-112983390D02*
X181410714Y-112935771D01*
X181410714Y-112935771D02*
X181363095Y-112888152D01*
X181363095Y-112888152D02*
X181315476Y-112792914D01*
X181315476Y-112792914D02*
X181315476Y-112745295D01*
X181315476Y-112745295D02*
X181363095Y-112650057D01*
X181363095Y-112650057D02*
X181410714Y-112602438D01*
X181410714Y-112602438D02*
X181505952Y-112554819D01*
X181505952Y-112554819D02*
X181696428Y-112554819D01*
X181696428Y-112554819D02*
X181791666Y-112602438D01*
X181791666Y-112602438D02*
X181839285Y-112650057D01*
X181839285Y-112650057D02*
X181886904Y-112745295D01*
X181886904Y-112745295D02*
X181886904Y-112792914D01*
X181886904Y-112792914D02*
X181839285Y-112888152D01*
X181839285Y-112888152D02*
X181791666Y-112935771D01*
X181791666Y-112935771D02*
X181696428Y-112983390D01*
X181696428Y-112983390D02*
X181505952Y-112983390D01*
X181505952Y-112983390D02*
X181410714Y-113031009D01*
X181410714Y-113031009D02*
X181363095Y-113078628D01*
X181363095Y-113078628D02*
X181315476Y-113173866D01*
X181315476Y-113173866D02*
X181315476Y-113364342D01*
X181315476Y-113364342D02*
X181363095Y-113459580D01*
X181363095Y-113459580D02*
X181410714Y-113507200D01*
X181410714Y-113507200D02*
X181505952Y-113554819D01*
X181505952Y-113554819D02*
X181696428Y-113554819D01*
X181696428Y-113554819D02*
X181791666Y-113507200D01*
X181791666Y-113507200D02*
X181839285Y-113459580D01*
X181839285Y-113459580D02*
X181886904Y-113364342D01*
X181886904Y-113364342D02*
X181886904Y-113173866D01*
X181886904Y-113173866D02*
X181839285Y-113078628D01*
X181839285Y-113078628D02*
X181791666Y-113031009D01*
X181791666Y-113031009D02*
X181696428Y-112983390D01*
X141910714Y-63554819D02*
X141910714Y-62554819D01*
X141910714Y-62554819D02*
X142148809Y-62554819D01*
X142148809Y-62554819D02*
X142291666Y-62602438D01*
X142291666Y-62602438D02*
X142386904Y-62697676D01*
X142386904Y-62697676D02*
X142434523Y-62792914D01*
X142434523Y-62792914D02*
X142482142Y-62983390D01*
X142482142Y-62983390D02*
X142482142Y-63126247D01*
X142482142Y-63126247D02*
X142434523Y-63316723D01*
X142434523Y-63316723D02*
X142386904Y-63411961D01*
X142386904Y-63411961D02*
X142291666Y-63507200D01*
X142291666Y-63507200D02*
X142148809Y-63554819D01*
X142148809Y-63554819D02*
X141910714Y-63554819D01*
X143434523Y-63554819D02*
X142863095Y-63554819D01*
X143148809Y-63554819D02*
X143148809Y-62554819D01*
X143148809Y-62554819D02*
X143053571Y-62697676D01*
X143053571Y-62697676D02*
X142958333Y-62792914D01*
X142958333Y-62792914D02*
X142863095Y-62840533D01*
X143767857Y-62554819D02*
X144386904Y-62554819D01*
X144386904Y-62554819D02*
X144053571Y-62935771D01*
X144053571Y-62935771D02*
X144196428Y-62935771D01*
X144196428Y-62935771D02*
X144291666Y-62983390D01*
X144291666Y-62983390D02*
X144339285Y-63031009D01*
X144339285Y-63031009D02*
X144386904Y-63126247D01*
X144386904Y-63126247D02*
X144386904Y-63364342D01*
X144386904Y-63364342D02*
X144339285Y-63459580D01*
X144339285Y-63459580D02*
X144291666Y-63507200D01*
X144291666Y-63507200D02*
X144196428Y-63554819D01*
X144196428Y-63554819D02*
X143910714Y-63554819D01*
X143910714Y-63554819D02*
X143815476Y-63507200D01*
X143815476Y-63507200D02*
X143767857Y-63459580D01*
X166910714Y-101054819D02*
X166910714Y-100054819D01*
X166910714Y-100054819D02*
X167148809Y-100054819D01*
X167148809Y-100054819D02*
X167291666Y-100102438D01*
X167291666Y-100102438D02*
X167386904Y-100197676D01*
X167386904Y-100197676D02*
X167434523Y-100292914D01*
X167434523Y-100292914D02*
X167482142Y-100483390D01*
X167482142Y-100483390D02*
X167482142Y-100626247D01*
X167482142Y-100626247D02*
X167434523Y-100816723D01*
X167434523Y-100816723D02*
X167386904Y-100911961D01*
X167386904Y-100911961D02*
X167291666Y-101007200D01*
X167291666Y-101007200D02*
X167148809Y-101054819D01*
X167148809Y-101054819D02*
X166910714Y-101054819D01*
X167815476Y-100054819D02*
X168434523Y-100054819D01*
X168434523Y-100054819D02*
X168101190Y-100435771D01*
X168101190Y-100435771D02*
X168244047Y-100435771D01*
X168244047Y-100435771D02*
X168339285Y-100483390D01*
X168339285Y-100483390D02*
X168386904Y-100531009D01*
X168386904Y-100531009D02*
X168434523Y-100626247D01*
X168434523Y-100626247D02*
X168434523Y-100864342D01*
X168434523Y-100864342D02*
X168386904Y-100959580D01*
X168386904Y-100959580D02*
X168339285Y-101007200D01*
X168339285Y-101007200D02*
X168244047Y-101054819D01*
X168244047Y-101054819D02*
X167958333Y-101054819D01*
X167958333Y-101054819D02*
X167863095Y-101007200D01*
X167863095Y-101007200D02*
X167815476Y-100959580D01*
X168910714Y-101054819D02*
X169101190Y-101054819D01*
X169101190Y-101054819D02*
X169196428Y-101007200D01*
X169196428Y-101007200D02*
X169244047Y-100959580D01*
X169244047Y-100959580D02*
X169339285Y-100816723D01*
X169339285Y-100816723D02*
X169386904Y-100626247D01*
X169386904Y-100626247D02*
X169386904Y-100245295D01*
X169386904Y-100245295D02*
X169339285Y-100150057D01*
X169339285Y-100150057D02*
X169291666Y-100102438D01*
X169291666Y-100102438D02*
X169196428Y-100054819D01*
X169196428Y-100054819D02*
X169005952Y-100054819D01*
X169005952Y-100054819D02*
X168910714Y-100102438D01*
X168910714Y-100102438D02*
X168863095Y-100150057D01*
X168863095Y-100150057D02*
X168815476Y-100245295D01*
X168815476Y-100245295D02*
X168815476Y-100483390D01*
X168815476Y-100483390D02*
X168863095Y-100578628D01*
X168863095Y-100578628D02*
X168910714Y-100626247D01*
X168910714Y-100626247D02*
X169005952Y-100673866D01*
X169005952Y-100673866D02*
X169196428Y-100673866D01*
X169196428Y-100673866D02*
X169291666Y-100626247D01*
X169291666Y-100626247D02*
X169339285Y-100578628D01*
X169339285Y-100578628D02*
X169386904Y-100483390D01*
X141910714Y-138554819D02*
X141910714Y-137554819D01*
X141910714Y-137554819D02*
X142148809Y-137554819D01*
X142148809Y-137554819D02*
X142291666Y-137602438D01*
X142291666Y-137602438D02*
X142386904Y-137697676D01*
X142386904Y-137697676D02*
X142434523Y-137792914D01*
X142434523Y-137792914D02*
X142482142Y-137983390D01*
X142482142Y-137983390D02*
X142482142Y-138126247D01*
X142482142Y-138126247D02*
X142434523Y-138316723D01*
X142434523Y-138316723D02*
X142386904Y-138411961D01*
X142386904Y-138411961D02*
X142291666Y-138507200D01*
X142291666Y-138507200D02*
X142148809Y-138554819D01*
X142148809Y-138554819D02*
X141910714Y-138554819D01*
X143339285Y-137554819D02*
X143148809Y-137554819D01*
X143148809Y-137554819D02*
X143053571Y-137602438D01*
X143053571Y-137602438D02*
X143005952Y-137650057D01*
X143005952Y-137650057D02*
X142910714Y-137792914D01*
X142910714Y-137792914D02*
X142863095Y-137983390D01*
X142863095Y-137983390D02*
X142863095Y-138364342D01*
X142863095Y-138364342D02*
X142910714Y-138459580D01*
X142910714Y-138459580D02*
X142958333Y-138507200D01*
X142958333Y-138507200D02*
X143053571Y-138554819D01*
X143053571Y-138554819D02*
X143244047Y-138554819D01*
X143244047Y-138554819D02*
X143339285Y-138507200D01*
X143339285Y-138507200D02*
X143386904Y-138459580D01*
X143386904Y-138459580D02*
X143434523Y-138364342D01*
X143434523Y-138364342D02*
X143434523Y-138126247D01*
X143434523Y-138126247D02*
X143386904Y-138031009D01*
X143386904Y-138031009D02*
X143339285Y-137983390D01*
X143339285Y-137983390D02*
X143244047Y-137935771D01*
X143244047Y-137935771D02*
X143053571Y-137935771D01*
X143053571Y-137935771D02*
X142958333Y-137983390D01*
X142958333Y-137983390D02*
X142910714Y-138031009D01*
X142910714Y-138031009D02*
X142863095Y-138126247D01*
X144386904Y-138554819D02*
X143815476Y-138554819D01*
X144101190Y-138554819D02*
X144101190Y-137554819D01*
X144101190Y-137554819D02*
X144005952Y-137697676D01*
X144005952Y-137697676D02*
X143910714Y-137792914D01*
X143910714Y-137792914D02*
X143815476Y-137840533D01*
X116910714Y-63554819D02*
X116910714Y-62554819D01*
X116910714Y-62554819D02*
X117148809Y-62554819D01*
X117148809Y-62554819D02*
X117291666Y-62602438D01*
X117291666Y-62602438D02*
X117386904Y-62697676D01*
X117386904Y-62697676D02*
X117434523Y-62792914D01*
X117434523Y-62792914D02*
X117482142Y-62983390D01*
X117482142Y-62983390D02*
X117482142Y-63126247D01*
X117482142Y-63126247D02*
X117434523Y-63316723D01*
X117434523Y-63316723D02*
X117386904Y-63411961D01*
X117386904Y-63411961D02*
X117291666Y-63507200D01*
X117291666Y-63507200D02*
X117148809Y-63554819D01*
X117148809Y-63554819D02*
X116910714Y-63554819D01*
X118434523Y-63554819D02*
X117863095Y-63554819D01*
X118148809Y-63554819D02*
X118148809Y-62554819D01*
X118148809Y-62554819D02*
X118053571Y-62697676D01*
X118053571Y-62697676D02*
X117958333Y-62792914D01*
X117958333Y-62792914D02*
X117863095Y-62840533D01*
X119386904Y-63554819D02*
X118815476Y-63554819D01*
X119101190Y-63554819D02*
X119101190Y-62554819D01*
X119101190Y-62554819D02*
X119005952Y-62697676D01*
X119005952Y-62697676D02*
X118910714Y-62792914D01*
X118910714Y-62792914D02*
X118815476Y-62840533D01*
X141910714Y-126054819D02*
X141910714Y-125054819D01*
X141910714Y-125054819D02*
X142148809Y-125054819D01*
X142148809Y-125054819D02*
X142291666Y-125102438D01*
X142291666Y-125102438D02*
X142386904Y-125197676D01*
X142386904Y-125197676D02*
X142434523Y-125292914D01*
X142434523Y-125292914D02*
X142482142Y-125483390D01*
X142482142Y-125483390D02*
X142482142Y-125626247D01*
X142482142Y-125626247D02*
X142434523Y-125816723D01*
X142434523Y-125816723D02*
X142386904Y-125911961D01*
X142386904Y-125911961D02*
X142291666Y-126007200D01*
X142291666Y-126007200D02*
X142148809Y-126054819D01*
X142148809Y-126054819D02*
X141910714Y-126054819D01*
X143386904Y-125054819D02*
X142910714Y-125054819D01*
X142910714Y-125054819D02*
X142863095Y-125531009D01*
X142863095Y-125531009D02*
X142910714Y-125483390D01*
X142910714Y-125483390D02*
X143005952Y-125435771D01*
X143005952Y-125435771D02*
X143244047Y-125435771D01*
X143244047Y-125435771D02*
X143339285Y-125483390D01*
X143339285Y-125483390D02*
X143386904Y-125531009D01*
X143386904Y-125531009D02*
X143434523Y-125626247D01*
X143434523Y-125626247D02*
X143434523Y-125864342D01*
X143434523Y-125864342D02*
X143386904Y-125959580D01*
X143386904Y-125959580D02*
X143339285Y-126007200D01*
X143339285Y-126007200D02*
X143244047Y-126054819D01*
X143244047Y-126054819D02*
X143005952Y-126054819D01*
X143005952Y-126054819D02*
X142910714Y-126007200D01*
X142910714Y-126007200D02*
X142863095Y-125959580D01*
X143767857Y-125054819D02*
X144386904Y-125054819D01*
X144386904Y-125054819D02*
X144053571Y-125435771D01*
X144053571Y-125435771D02*
X144196428Y-125435771D01*
X144196428Y-125435771D02*
X144291666Y-125483390D01*
X144291666Y-125483390D02*
X144339285Y-125531009D01*
X144339285Y-125531009D02*
X144386904Y-125626247D01*
X144386904Y-125626247D02*
X144386904Y-125864342D01*
X144386904Y-125864342D02*
X144339285Y-125959580D01*
X144339285Y-125959580D02*
X144291666Y-126007200D01*
X144291666Y-126007200D02*
X144196428Y-126054819D01*
X144196428Y-126054819D02*
X143910714Y-126054819D01*
X143910714Y-126054819D02*
X143815476Y-126007200D01*
X143815476Y-126007200D02*
X143767857Y-125959580D01*
X154410714Y-113554819D02*
X154410714Y-112554819D01*
X154410714Y-112554819D02*
X154648809Y-112554819D01*
X154648809Y-112554819D02*
X154791666Y-112602438D01*
X154791666Y-112602438D02*
X154886904Y-112697676D01*
X154886904Y-112697676D02*
X154934523Y-112792914D01*
X154934523Y-112792914D02*
X154982142Y-112983390D01*
X154982142Y-112983390D02*
X154982142Y-113126247D01*
X154982142Y-113126247D02*
X154934523Y-113316723D01*
X154934523Y-113316723D02*
X154886904Y-113411961D01*
X154886904Y-113411961D02*
X154791666Y-113507200D01*
X154791666Y-113507200D02*
X154648809Y-113554819D01*
X154648809Y-113554819D02*
X154410714Y-113554819D01*
X155839285Y-112888152D02*
X155839285Y-113554819D01*
X155601190Y-112507200D02*
X155363095Y-113221485D01*
X155363095Y-113221485D02*
X155982142Y-113221485D01*
X156791666Y-112554819D02*
X156601190Y-112554819D01*
X156601190Y-112554819D02*
X156505952Y-112602438D01*
X156505952Y-112602438D02*
X156458333Y-112650057D01*
X156458333Y-112650057D02*
X156363095Y-112792914D01*
X156363095Y-112792914D02*
X156315476Y-112983390D01*
X156315476Y-112983390D02*
X156315476Y-113364342D01*
X156315476Y-113364342D02*
X156363095Y-113459580D01*
X156363095Y-113459580D02*
X156410714Y-113507200D01*
X156410714Y-113507200D02*
X156505952Y-113554819D01*
X156505952Y-113554819D02*
X156696428Y-113554819D01*
X156696428Y-113554819D02*
X156791666Y-113507200D01*
X156791666Y-113507200D02*
X156839285Y-113459580D01*
X156839285Y-113459580D02*
X156886904Y-113364342D01*
X156886904Y-113364342D02*
X156886904Y-113126247D01*
X156886904Y-113126247D02*
X156839285Y-113031009D01*
X156839285Y-113031009D02*
X156791666Y-112983390D01*
X156791666Y-112983390D02*
X156696428Y-112935771D01*
X156696428Y-112935771D02*
X156505952Y-112935771D01*
X156505952Y-112935771D02*
X156410714Y-112983390D01*
X156410714Y-112983390D02*
X156363095Y-113031009D01*
X156363095Y-113031009D02*
X156315476Y-113126247D01*
X116910714Y-138554819D02*
X116910714Y-137554819D01*
X116910714Y-137554819D02*
X117148809Y-137554819D01*
X117148809Y-137554819D02*
X117291666Y-137602438D01*
X117291666Y-137602438D02*
X117386904Y-137697676D01*
X117386904Y-137697676D02*
X117434523Y-137792914D01*
X117434523Y-137792914D02*
X117482142Y-137983390D01*
X117482142Y-137983390D02*
X117482142Y-138126247D01*
X117482142Y-138126247D02*
X117434523Y-138316723D01*
X117434523Y-138316723D02*
X117386904Y-138411961D01*
X117386904Y-138411961D02*
X117291666Y-138507200D01*
X117291666Y-138507200D02*
X117148809Y-138554819D01*
X117148809Y-138554819D02*
X116910714Y-138554819D01*
X118386904Y-137554819D02*
X117910714Y-137554819D01*
X117910714Y-137554819D02*
X117863095Y-138031009D01*
X117863095Y-138031009D02*
X117910714Y-137983390D01*
X117910714Y-137983390D02*
X118005952Y-137935771D01*
X118005952Y-137935771D02*
X118244047Y-137935771D01*
X118244047Y-137935771D02*
X118339285Y-137983390D01*
X118339285Y-137983390D02*
X118386904Y-138031009D01*
X118386904Y-138031009D02*
X118434523Y-138126247D01*
X118434523Y-138126247D02*
X118434523Y-138364342D01*
X118434523Y-138364342D02*
X118386904Y-138459580D01*
X118386904Y-138459580D02*
X118339285Y-138507200D01*
X118339285Y-138507200D02*
X118244047Y-138554819D01*
X118244047Y-138554819D02*
X118005952Y-138554819D01*
X118005952Y-138554819D02*
X117910714Y-138507200D01*
X117910714Y-138507200D02*
X117863095Y-138459580D01*
X118910714Y-138554819D02*
X119101190Y-138554819D01*
X119101190Y-138554819D02*
X119196428Y-138507200D01*
X119196428Y-138507200D02*
X119244047Y-138459580D01*
X119244047Y-138459580D02*
X119339285Y-138316723D01*
X119339285Y-138316723D02*
X119386904Y-138126247D01*
X119386904Y-138126247D02*
X119386904Y-137745295D01*
X119386904Y-137745295D02*
X119339285Y-137650057D01*
X119339285Y-137650057D02*
X119291666Y-137602438D01*
X119291666Y-137602438D02*
X119196428Y-137554819D01*
X119196428Y-137554819D02*
X119005952Y-137554819D01*
X119005952Y-137554819D02*
X118910714Y-137602438D01*
X118910714Y-137602438D02*
X118863095Y-137650057D01*
X118863095Y-137650057D02*
X118815476Y-137745295D01*
X118815476Y-137745295D02*
X118815476Y-137983390D01*
X118815476Y-137983390D02*
X118863095Y-138078628D01*
X118863095Y-138078628D02*
X118910714Y-138126247D01*
X118910714Y-138126247D02*
X119005952Y-138173866D01*
X119005952Y-138173866D02*
X119196428Y-138173866D01*
X119196428Y-138173866D02*
X119291666Y-138126247D01*
X119291666Y-138126247D02*
X119339285Y-138078628D01*
X119339285Y-138078628D02*
X119386904Y-137983390D01*
X171164019Y-49066733D02*
X171878304Y-49066733D01*
X171878304Y-49066733D02*
X172021161Y-49114352D01*
X172021161Y-49114352D02*
X172116400Y-49209590D01*
X172116400Y-49209590D02*
X172164019Y-49352447D01*
X172164019Y-49352447D02*
X172164019Y-49447685D01*
X172164019Y-48066733D02*
X172164019Y-48638161D01*
X172164019Y-48352447D02*
X171164019Y-48352447D01*
X171164019Y-48352447D02*
X171306876Y-48447685D01*
X171306876Y-48447685D02*
X171402114Y-48542923D01*
X171402114Y-48542923D02*
X171449733Y-48638161D01*
X192946895Y-46701019D02*
X192946895Y-47510542D01*
X192946895Y-47510542D02*
X192994514Y-47605780D01*
X192994514Y-47605780D02*
X193042133Y-47653400D01*
X193042133Y-47653400D02*
X193137371Y-47701019D01*
X193137371Y-47701019D02*
X193327847Y-47701019D01*
X193327847Y-47701019D02*
X193423085Y-47653400D01*
X193423085Y-47653400D02*
X193470704Y-47605780D01*
X193470704Y-47605780D02*
X193518323Y-47510542D01*
X193518323Y-47510542D02*
X193518323Y-46701019D01*
X193899276Y-46701019D02*
X194518323Y-46701019D01*
X194518323Y-46701019D02*
X194184990Y-47081971D01*
X194184990Y-47081971D02*
X194327847Y-47081971D01*
X194327847Y-47081971D02*
X194423085Y-47129590D01*
X194423085Y-47129590D02*
X194470704Y-47177209D01*
X194470704Y-47177209D02*
X194518323Y-47272447D01*
X194518323Y-47272447D02*
X194518323Y-47510542D01*
X194518323Y-47510542D02*
X194470704Y-47605780D01*
X194470704Y-47605780D02*
X194423085Y-47653400D01*
X194423085Y-47653400D02*
X194327847Y-47701019D01*
X194327847Y-47701019D02*
X194042133Y-47701019D01*
X194042133Y-47701019D02*
X193946895Y-47653400D01*
X193946895Y-47653400D02*
X193899276Y-47605780D01*
X116910714Y-101054819D02*
X116910714Y-100054819D01*
X116910714Y-100054819D02*
X117148809Y-100054819D01*
X117148809Y-100054819D02*
X117291666Y-100102438D01*
X117291666Y-100102438D02*
X117386904Y-100197676D01*
X117386904Y-100197676D02*
X117434523Y-100292914D01*
X117434523Y-100292914D02*
X117482142Y-100483390D01*
X117482142Y-100483390D02*
X117482142Y-100626247D01*
X117482142Y-100626247D02*
X117434523Y-100816723D01*
X117434523Y-100816723D02*
X117386904Y-100911961D01*
X117386904Y-100911961D02*
X117291666Y-101007200D01*
X117291666Y-101007200D02*
X117148809Y-101054819D01*
X117148809Y-101054819D02*
X116910714Y-101054819D01*
X117815476Y-100054819D02*
X118434523Y-100054819D01*
X118434523Y-100054819D02*
X118101190Y-100435771D01*
X118101190Y-100435771D02*
X118244047Y-100435771D01*
X118244047Y-100435771D02*
X118339285Y-100483390D01*
X118339285Y-100483390D02*
X118386904Y-100531009D01*
X118386904Y-100531009D02*
X118434523Y-100626247D01*
X118434523Y-100626247D02*
X118434523Y-100864342D01*
X118434523Y-100864342D02*
X118386904Y-100959580D01*
X118386904Y-100959580D02*
X118339285Y-101007200D01*
X118339285Y-101007200D02*
X118244047Y-101054819D01*
X118244047Y-101054819D02*
X117958333Y-101054819D01*
X117958333Y-101054819D02*
X117863095Y-101007200D01*
X117863095Y-101007200D02*
X117815476Y-100959580D01*
X119339285Y-100054819D02*
X118863095Y-100054819D01*
X118863095Y-100054819D02*
X118815476Y-100531009D01*
X118815476Y-100531009D02*
X118863095Y-100483390D01*
X118863095Y-100483390D02*
X118958333Y-100435771D01*
X118958333Y-100435771D02*
X119196428Y-100435771D01*
X119196428Y-100435771D02*
X119291666Y-100483390D01*
X119291666Y-100483390D02*
X119339285Y-100531009D01*
X119339285Y-100531009D02*
X119386904Y-100626247D01*
X119386904Y-100626247D02*
X119386904Y-100864342D01*
X119386904Y-100864342D02*
X119339285Y-100959580D01*
X119339285Y-100959580D02*
X119291666Y-101007200D01*
X119291666Y-101007200D02*
X119196428Y-101054819D01*
X119196428Y-101054819D02*
X118958333Y-101054819D01*
X118958333Y-101054819D02*
X118863095Y-101007200D01*
X118863095Y-101007200D02*
X118815476Y-100959580D01*
X167386905Y-51054819D02*
X167386905Y-50054819D01*
X167386905Y-50054819D02*
X167625000Y-50054819D01*
X167625000Y-50054819D02*
X167767857Y-50102438D01*
X167767857Y-50102438D02*
X167863095Y-50197676D01*
X167863095Y-50197676D02*
X167910714Y-50292914D01*
X167910714Y-50292914D02*
X167958333Y-50483390D01*
X167958333Y-50483390D02*
X167958333Y-50626247D01*
X167958333Y-50626247D02*
X167910714Y-50816723D01*
X167910714Y-50816723D02*
X167863095Y-50911961D01*
X167863095Y-50911961D02*
X167767857Y-51007200D01*
X167767857Y-51007200D02*
X167625000Y-51054819D01*
X167625000Y-51054819D02*
X167386905Y-51054819D01*
X168291667Y-50054819D02*
X168958333Y-50054819D01*
X168958333Y-50054819D02*
X168529762Y-51054819D01*
X117386905Y-51054819D02*
X117386905Y-50054819D01*
X117386905Y-50054819D02*
X117625000Y-50054819D01*
X117625000Y-50054819D02*
X117767857Y-50102438D01*
X117767857Y-50102438D02*
X117863095Y-50197676D01*
X117863095Y-50197676D02*
X117910714Y-50292914D01*
X117910714Y-50292914D02*
X117958333Y-50483390D01*
X117958333Y-50483390D02*
X117958333Y-50626247D01*
X117958333Y-50626247D02*
X117910714Y-50816723D01*
X117910714Y-50816723D02*
X117863095Y-50911961D01*
X117863095Y-50911961D02*
X117767857Y-51007200D01*
X117767857Y-51007200D02*
X117625000Y-51054819D01*
X117625000Y-51054819D02*
X117386905Y-51054819D01*
X118291667Y-50054819D02*
X118910714Y-50054819D01*
X118910714Y-50054819D02*
X118577381Y-50435771D01*
X118577381Y-50435771D02*
X118720238Y-50435771D01*
X118720238Y-50435771D02*
X118815476Y-50483390D01*
X118815476Y-50483390D02*
X118863095Y-50531009D01*
X118863095Y-50531009D02*
X118910714Y-50626247D01*
X118910714Y-50626247D02*
X118910714Y-50864342D01*
X118910714Y-50864342D02*
X118863095Y-50959580D01*
X118863095Y-50959580D02*
X118815476Y-51007200D01*
X118815476Y-51007200D02*
X118720238Y-51054819D01*
X118720238Y-51054819D02*
X118434524Y-51054819D01*
X118434524Y-51054819D02*
X118339286Y-51007200D01*
X118339286Y-51007200D02*
X118291667Y-50959580D01*
X154886905Y-51054819D02*
X154886905Y-50054819D01*
X154886905Y-50054819D02*
X155125000Y-50054819D01*
X155125000Y-50054819D02*
X155267857Y-50102438D01*
X155267857Y-50102438D02*
X155363095Y-50197676D01*
X155363095Y-50197676D02*
X155410714Y-50292914D01*
X155410714Y-50292914D02*
X155458333Y-50483390D01*
X155458333Y-50483390D02*
X155458333Y-50626247D01*
X155458333Y-50626247D02*
X155410714Y-50816723D01*
X155410714Y-50816723D02*
X155363095Y-50911961D01*
X155363095Y-50911961D02*
X155267857Y-51007200D01*
X155267857Y-51007200D02*
X155125000Y-51054819D01*
X155125000Y-51054819D02*
X154886905Y-51054819D01*
X156315476Y-50054819D02*
X156125000Y-50054819D01*
X156125000Y-50054819D02*
X156029762Y-50102438D01*
X156029762Y-50102438D02*
X155982143Y-50150057D01*
X155982143Y-50150057D02*
X155886905Y-50292914D01*
X155886905Y-50292914D02*
X155839286Y-50483390D01*
X155839286Y-50483390D02*
X155839286Y-50864342D01*
X155839286Y-50864342D02*
X155886905Y-50959580D01*
X155886905Y-50959580D02*
X155934524Y-51007200D01*
X155934524Y-51007200D02*
X156029762Y-51054819D01*
X156029762Y-51054819D02*
X156220238Y-51054819D01*
X156220238Y-51054819D02*
X156315476Y-51007200D01*
X156315476Y-51007200D02*
X156363095Y-50959580D01*
X156363095Y-50959580D02*
X156410714Y-50864342D01*
X156410714Y-50864342D02*
X156410714Y-50626247D01*
X156410714Y-50626247D02*
X156363095Y-50531009D01*
X156363095Y-50531009D02*
X156315476Y-50483390D01*
X156315476Y-50483390D02*
X156220238Y-50435771D01*
X156220238Y-50435771D02*
X156029762Y-50435771D01*
X156029762Y-50435771D02*
X155934524Y-50483390D01*
X155934524Y-50483390D02*
X155886905Y-50531009D01*
X155886905Y-50531009D02*
X155839286Y-50626247D01*
X166910714Y-88554819D02*
X166910714Y-87554819D01*
X166910714Y-87554819D02*
X167148809Y-87554819D01*
X167148809Y-87554819D02*
X167291666Y-87602438D01*
X167291666Y-87602438D02*
X167386904Y-87697676D01*
X167386904Y-87697676D02*
X167434523Y-87792914D01*
X167434523Y-87792914D02*
X167482142Y-87983390D01*
X167482142Y-87983390D02*
X167482142Y-88126247D01*
X167482142Y-88126247D02*
X167434523Y-88316723D01*
X167434523Y-88316723D02*
X167386904Y-88411961D01*
X167386904Y-88411961D02*
X167291666Y-88507200D01*
X167291666Y-88507200D02*
X167148809Y-88554819D01*
X167148809Y-88554819D02*
X166910714Y-88554819D01*
X167815476Y-87554819D02*
X168434523Y-87554819D01*
X168434523Y-87554819D02*
X168101190Y-87935771D01*
X168101190Y-87935771D02*
X168244047Y-87935771D01*
X168244047Y-87935771D02*
X168339285Y-87983390D01*
X168339285Y-87983390D02*
X168386904Y-88031009D01*
X168386904Y-88031009D02*
X168434523Y-88126247D01*
X168434523Y-88126247D02*
X168434523Y-88364342D01*
X168434523Y-88364342D02*
X168386904Y-88459580D01*
X168386904Y-88459580D02*
X168339285Y-88507200D01*
X168339285Y-88507200D02*
X168244047Y-88554819D01*
X168244047Y-88554819D02*
X167958333Y-88554819D01*
X167958333Y-88554819D02*
X167863095Y-88507200D01*
X167863095Y-88507200D02*
X167815476Y-88459580D01*
X169386904Y-88554819D02*
X168815476Y-88554819D01*
X169101190Y-88554819D02*
X169101190Y-87554819D01*
X169101190Y-87554819D02*
X169005952Y-87697676D01*
X169005952Y-87697676D02*
X168910714Y-87792914D01*
X168910714Y-87792914D02*
X168815476Y-87840533D01*
X141910714Y-101054819D02*
X141910714Y-100054819D01*
X141910714Y-100054819D02*
X142148809Y-100054819D01*
X142148809Y-100054819D02*
X142291666Y-100102438D01*
X142291666Y-100102438D02*
X142386904Y-100197676D01*
X142386904Y-100197676D02*
X142434523Y-100292914D01*
X142434523Y-100292914D02*
X142482142Y-100483390D01*
X142482142Y-100483390D02*
X142482142Y-100626247D01*
X142482142Y-100626247D02*
X142434523Y-100816723D01*
X142434523Y-100816723D02*
X142386904Y-100911961D01*
X142386904Y-100911961D02*
X142291666Y-101007200D01*
X142291666Y-101007200D02*
X142148809Y-101054819D01*
X142148809Y-101054819D02*
X141910714Y-101054819D01*
X142815476Y-100054819D02*
X143434523Y-100054819D01*
X143434523Y-100054819D02*
X143101190Y-100435771D01*
X143101190Y-100435771D02*
X143244047Y-100435771D01*
X143244047Y-100435771D02*
X143339285Y-100483390D01*
X143339285Y-100483390D02*
X143386904Y-100531009D01*
X143386904Y-100531009D02*
X143434523Y-100626247D01*
X143434523Y-100626247D02*
X143434523Y-100864342D01*
X143434523Y-100864342D02*
X143386904Y-100959580D01*
X143386904Y-100959580D02*
X143339285Y-101007200D01*
X143339285Y-101007200D02*
X143244047Y-101054819D01*
X143244047Y-101054819D02*
X142958333Y-101054819D01*
X142958333Y-101054819D02*
X142863095Y-101007200D01*
X142863095Y-101007200D02*
X142815476Y-100959580D01*
X143767857Y-100054819D02*
X144434523Y-100054819D01*
X144434523Y-100054819D02*
X144005952Y-101054819D01*
X179410714Y-101054819D02*
X179410714Y-100054819D01*
X179410714Y-100054819D02*
X179648809Y-100054819D01*
X179648809Y-100054819D02*
X179791666Y-100102438D01*
X179791666Y-100102438D02*
X179886904Y-100197676D01*
X179886904Y-100197676D02*
X179934523Y-100292914D01*
X179934523Y-100292914D02*
X179982142Y-100483390D01*
X179982142Y-100483390D02*
X179982142Y-100626247D01*
X179982142Y-100626247D02*
X179934523Y-100816723D01*
X179934523Y-100816723D02*
X179886904Y-100911961D01*
X179886904Y-100911961D02*
X179791666Y-101007200D01*
X179791666Y-101007200D02*
X179648809Y-101054819D01*
X179648809Y-101054819D02*
X179410714Y-101054819D01*
X180839285Y-100388152D02*
X180839285Y-101054819D01*
X180601190Y-100007200D02*
X180363095Y-100721485D01*
X180363095Y-100721485D02*
X180982142Y-100721485D01*
X181553571Y-100054819D02*
X181648809Y-100054819D01*
X181648809Y-100054819D02*
X181744047Y-100102438D01*
X181744047Y-100102438D02*
X181791666Y-100150057D01*
X181791666Y-100150057D02*
X181839285Y-100245295D01*
X181839285Y-100245295D02*
X181886904Y-100435771D01*
X181886904Y-100435771D02*
X181886904Y-100673866D01*
X181886904Y-100673866D02*
X181839285Y-100864342D01*
X181839285Y-100864342D02*
X181791666Y-100959580D01*
X181791666Y-100959580D02*
X181744047Y-101007200D01*
X181744047Y-101007200D02*
X181648809Y-101054819D01*
X181648809Y-101054819D02*
X181553571Y-101054819D01*
X181553571Y-101054819D02*
X181458333Y-101007200D01*
X181458333Y-101007200D02*
X181410714Y-100959580D01*
X181410714Y-100959580D02*
X181363095Y-100864342D01*
X181363095Y-100864342D02*
X181315476Y-100673866D01*
X181315476Y-100673866D02*
X181315476Y-100435771D01*
X181315476Y-100435771D02*
X181363095Y-100245295D01*
X181363095Y-100245295D02*
X181410714Y-100150057D01*
X181410714Y-100150057D02*
X181458333Y-100102438D01*
X181458333Y-100102438D02*
X181553571Y-100054819D01*
X116910714Y-76054819D02*
X116910714Y-75054819D01*
X116910714Y-75054819D02*
X117148809Y-75054819D01*
X117148809Y-75054819D02*
X117291666Y-75102438D01*
X117291666Y-75102438D02*
X117386904Y-75197676D01*
X117386904Y-75197676D02*
X117434523Y-75292914D01*
X117434523Y-75292914D02*
X117482142Y-75483390D01*
X117482142Y-75483390D02*
X117482142Y-75626247D01*
X117482142Y-75626247D02*
X117434523Y-75816723D01*
X117434523Y-75816723D02*
X117386904Y-75911961D01*
X117386904Y-75911961D02*
X117291666Y-76007200D01*
X117291666Y-76007200D02*
X117148809Y-76054819D01*
X117148809Y-76054819D02*
X116910714Y-76054819D01*
X118434523Y-76054819D02*
X117863095Y-76054819D01*
X118148809Y-76054819D02*
X118148809Y-75054819D01*
X118148809Y-75054819D02*
X118053571Y-75197676D01*
X118053571Y-75197676D02*
X117958333Y-75292914D01*
X117958333Y-75292914D02*
X117863095Y-75340533D01*
X118910714Y-76054819D02*
X119101190Y-76054819D01*
X119101190Y-76054819D02*
X119196428Y-76007200D01*
X119196428Y-76007200D02*
X119244047Y-75959580D01*
X119244047Y-75959580D02*
X119339285Y-75816723D01*
X119339285Y-75816723D02*
X119386904Y-75626247D01*
X119386904Y-75626247D02*
X119386904Y-75245295D01*
X119386904Y-75245295D02*
X119339285Y-75150057D01*
X119339285Y-75150057D02*
X119291666Y-75102438D01*
X119291666Y-75102438D02*
X119196428Y-75054819D01*
X119196428Y-75054819D02*
X119005952Y-75054819D01*
X119005952Y-75054819D02*
X118910714Y-75102438D01*
X118910714Y-75102438D02*
X118863095Y-75150057D01*
X118863095Y-75150057D02*
X118815476Y-75245295D01*
X118815476Y-75245295D02*
X118815476Y-75483390D01*
X118815476Y-75483390D02*
X118863095Y-75578628D01*
X118863095Y-75578628D02*
X118910714Y-75626247D01*
X118910714Y-75626247D02*
X119005952Y-75673866D01*
X119005952Y-75673866D02*
X119196428Y-75673866D01*
X119196428Y-75673866D02*
X119291666Y-75626247D01*
X119291666Y-75626247D02*
X119339285Y-75578628D01*
X119339285Y-75578628D02*
X119386904Y-75483390D01*
X129410714Y-88554819D02*
X129410714Y-87554819D01*
X129410714Y-87554819D02*
X129648809Y-87554819D01*
X129648809Y-87554819D02*
X129791666Y-87602438D01*
X129791666Y-87602438D02*
X129886904Y-87697676D01*
X129886904Y-87697676D02*
X129934523Y-87792914D01*
X129934523Y-87792914D02*
X129982142Y-87983390D01*
X129982142Y-87983390D02*
X129982142Y-88126247D01*
X129982142Y-88126247D02*
X129934523Y-88316723D01*
X129934523Y-88316723D02*
X129886904Y-88411961D01*
X129886904Y-88411961D02*
X129791666Y-88507200D01*
X129791666Y-88507200D02*
X129648809Y-88554819D01*
X129648809Y-88554819D02*
X129410714Y-88554819D01*
X130363095Y-87650057D02*
X130410714Y-87602438D01*
X130410714Y-87602438D02*
X130505952Y-87554819D01*
X130505952Y-87554819D02*
X130744047Y-87554819D01*
X130744047Y-87554819D02*
X130839285Y-87602438D01*
X130839285Y-87602438D02*
X130886904Y-87650057D01*
X130886904Y-87650057D02*
X130934523Y-87745295D01*
X130934523Y-87745295D02*
X130934523Y-87840533D01*
X130934523Y-87840533D02*
X130886904Y-87983390D01*
X130886904Y-87983390D02*
X130315476Y-88554819D01*
X130315476Y-88554819D02*
X130934523Y-88554819D01*
X131505952Y-87983390D02*
X131410714Y-87935771D01*
X131410714Y-87935771D02*
X131363095Y-87888152D01*
X131363095Y-87888152D02*
X131315476Y-87792914D01*
X131315476Y-87792914D02*
X131315476Y-87745295D01*
X131315476Y-87745295D02*
X131363095Y-87650057D01*
X131363095Y-87650057D02*
X131410714Y-87602438D01*
X131410714Y-87602438D02*
X131505952Y-87554819D01*
X131505952Y-87554819D02*
X131696428Y-87554819D01*
X131696428Y-87554819D02*
X131791666Y-87602438D01*
X131791666Y-87602438D02*
X131839285Y-87650057D01*
X131839285Y-87650057D02*
X131886904Y-87745295D01*
X131886904Y-87745295D02*
X131886904Y-87792914D01*
X131886904Y-87792914D02*
X131839285Y-87888152D01*
X131839285Y-87888152D02*
X131791666Y-87935771D01*
X131791666Y-87935771D02*
X131696428Y-87983390D01*
X131696428Y-87983390D02*
X131505952Y-87983390D01*
X131505952Y-87983390D02*
X131410714Y-88031009D01*
X131410714Y-88031009D02*
X131363095Y-88078628D01*
X131363095Y-88078628D02*
X131315476Y-88173866D01*
X131315476Y-88173866D02*
X131315476Y-88364342D01*
X131315476Y-88364342D02*
X131363095Y-88459580D01*
X131363095Y-88459580D02*
X131410714Y-88507200D01*
X131410714Y-88507200D02*
X131505952Y-88554819D01*
X131505952Y-88554819D02*
X131696428Y-88554819D01*
X131696428Y-88554819D02*
X131791666Y-88507200D01*
X131791666Y-88507200D02*
X131839285Y-88459580D01*
X131839285Y-88459580D02*
X131886904Y-88364342D01*
X131886904Y-88364342D02*
X131886904Y-88173866D01*
X131886904Y-88173866D02*
X131839285Y-88078628D01*
X131839285Y-88078628D02*
X131791666Y-88031009D01*
X131791666Y-88031009D02*
X131696428Y-87983390D01*
X129410714Y-113554819D02*
X129410714Y-112554819D01*
X129410714Y-112554819D02*
X129648809Y-112554819D01*
X129648809Y-112554819D02*
X129791666Y-112602438D01*
X129791666Y-112602438D02*
X129886904Y-112697676D01*
X129886904Y-112697676D02*
X129934523Y-112792914D01*
X129934523Y-112792914D02*
X129982142Y-112983390D01*
X129982142Y-112983390D02*
X129982142Y-113126247D01*
X129982142Y-113126247D02*
X129934523Y-113316723D01*
X129934523Y-113316723D02*
X129886904Y-113411961D01*
X129886904Y-113411961D02*
X129791666Y-113507200D01*
X129791666Y-113507200D02*
X129648809Y-113554819D01*
X129648809Y-113554819D02*
X129410714Y-113554819D01*
X130839285Y-112888152D02*
X130839285Y-113554819D01*
X130601190Y-112507200D02*
X130363095Y-113221485D01*
X130363095Y-113221485D02*
X130982142Y-113221485D01*
X131791666Y-112888152D02*
X131791666Y-113554819D01*
X131553571Y-112507200D02*
X131315476Y-113221485D01*
X131315476Y-113221485D02*
X131934523Y-113221485D01*
X154410714Y-101054819D02*
X154410714Y-100054819D01*
X154410714Y-100054819D02*
X154648809Y-100054819D01*
X154648809Y-100054819D02*
X154791666Y-100102438D01*
X154791666Y-100102438D02*
X154886904Y-100197676D01*
X154886904Y-100197676D02*
X154934523Y-100292914D01*
X154934523Y-100292914D02*
X154982142Y-100483390D01*
X154982142Y-100483390D02*
X154982142Y-100626247D01*
X154982142Y-100626247D02*
X154934523Y-100816723D01*
X154934523Y-100816723D02*
X154886904Y-100911961D01*
X154886904Y-100911961D02*
X154791666Y-101007200D01*
X154791666Y-101007200D02*
X154648809Y-101054819D01*
X154648809Y-101054819D02*
X154410714Y-101054819D01*
X155315476Y-100054819D02*
X155934523Y-100054819D01*
X155934523Y-100054819D02*
X155601190Y-100435771D01*
X155601190Y-100435771D02*
X155744047Y-100435771D01*
X155744047Y-100435771D02*
X155839285Y-100483390D01*
X155839285Y-100483390D02*
X155886904Y-100531009D01*
X155886904Y-100531009D02*
X155934523Y-100626247D01*
X155934523Y-100626247D02*
X155934523Y-100864342D01*
X155934523Y-100864342D02*
X155886904Y-100959580D01*
X155886904Y-100959580D02*
X155839285Y-101007200D01*
X155839285Y-101007200D02*
X155744047Y-101054819D01*
X155744047Y-101054819D02*
X155458333Y-101054819D01*
X155458333Y-101054819D02*
X155363095Y-101007200D01*
X155363095Y-101007200D02*
X155315476Y-100959580D01*
X156505952Y-100483390D02*
X156410714Y-100435771D01*
X156410714Y-100435771D02*
X156363095Y-100388152D01*
X156363095Y-100388152D02*
X156315476Y-100292914D01*
X156315476Y-100292914D02*
X156315476Y-100245295D01*
X156315476Y-100245295D02*
X156363095Y-100150057D01*
X156363095Y-100150057D02*
X156410714Y-100102438D01*
X156410714Y-100102438D02*
X156505952Y-100054819D01*
X156505952Y-100054819D02*
X156696428Y-100054819D01*
X156696428Y-100054819D02*
X156791666Y-100102438D01*
X156791666Y-100102438D02*
X156839285Y-100150057D01*
X156839285Y-100150057D02*
X156886904Y-100245295D01*
X156886904Y-100245295D02*
X156886904Y-100292914D01*
X156886904Y-100292914D02*
X156839285Y-100388152D01*
X156839285Y-100388152D02*
X156791666Y-100435771D01*
X156791666Y-100435771D02*
X156696428Y-100483390D01*
X156696428Y-100483390D02*
X156505952Y-100483390D01*
X156505952Y-100483390D02*
X156410714Y-100531009D01*
X156410714Y-100531009D02*
X156363095Y-100578628D01*
X156363095Y-100578628D02*
X156315476Y-100673866D01*
X156315476Y-100673866D02*
X156315476Y-100864342D01*
X156315476Y-100864342D02*
X156363095Y-100959580D01*
X156363095Y-100959580D02*
X156410714Y-101007200D01*
X156410714Y-101007200D02*
X156505952Y-101054819D01*
X156505952Y-101054819D02*
X156696428Y-101054819D01*
X156696428Y-101054819D02*
X156791666Y-101007200D01*
X156791666Y-101007200D02*
X156839285Y-100959580D01*
X156839285Y-100959580D02*
X156886904Y-100864342D01*
X156886904Y-100864342D02*
X156886904Y-100673866D01*
X156886904Y-100673866D02*
X156839285Y-100578628D01*
X156839285Y-100578628D02*
X156791666Y-100531009D01*
X156791666Y-100531009D02*
X156696428Y-100483390D01*
X104410714Y-113554819D02*
X104410714Y-112554819D01*
X104410714Y-112554819D02*
X104648809Y-112554819D01*
X104648809Y-112554819D02*
X104791666Y-112602438D01*
X104791666Y-112602438D02*
X104886904Y-112697676D01*
X104886904Y-112697676D02*
X104934523Y-112792914D01*
X104934523Y-112792914D02*
X104982142Y-112983390D01*
X104982142Y-112983390D02*
X104982142Y-113126247D01*
X104982142Y-113126247D02*
X104934523Y-113316723D01*
X104934523Y-113316723D02*
X104886904Y-113411961D01*
X104886904Y-113411961D02*
X104791666Y-113507200D01*
X104791666Y-113507200D02*
X104648809Y-113554819D01*
X104648809Y-113554819D02*
X104410714Y-113554819D01*
X105839285Y-112888152D02*
X105839285Y-113554819D01*
X105601190Y-112507200D02*
X105363095Y-113221485D01*
X105363095Y-113221485D02*
X105982142Y-113221485D01*
X106315476Y-112650057D02*
X106363095Y-112602438D01*
X106363095Y-112602438D02*
X106458333Y-112554819D01*
X106458333Y-112554819D02*
X106696428Y-112554819D01*
X106696428Y-112554819D02*
X106791666Y-112602438D01*
X106791666Y-112602438D02*
X106839285Y-112650057D01*
X106839285Y-112650057D02*
X106886904Y-112745295D01*
X106886904Y-112745295D02*
X106886904Y-112840533D01*
X106886904Y-112840533D02*
X106839285Y-112983390D01*
X106839285Y-112983390D02*
X106267857Y-113554819D01*
X106267857Y-113554819D02*
X106886904Y-113554819D01*
X142386905Y-51054819D02*
X142386905Y-50054819D01*
X142386905Y-50054819D02*
X142625000Y-50054819D01*
X142625000Y-50054819D02*
X142767857Y-50102438D01*
X142767857Y-50102438D02*
X142863095Y-50197676D01*
X142863095Y-50197676D02*
X142910714Y-50292914D01*
X142910714Y-50292914D02*
X142958333Y-50483390D01*
X142958333Y-50483390D02*
X142958333Y-50626247D01*
X142958333Y-50626247D02*
X142910714Y-50816723D01*
X142910714Y-50816723D02*
X142863095Y-50911961D01*
X142863095Y-50911961D02*
X142767857Y-51007200D01*
X142767857Y-51007200D02*
X142625000Y-51054819D01*
X142625000Y-51054819D02*
X142386905Y-51054819D01*
X143863095Y-50054819D02*
X143386905Y-50054819D01*
X143386905Y-50054819D02*
X143339286Y-50531009D01*
X143339286Y-50531009D02*
X143386905Y-50483390D01*
X143386905Y-50483390D02*
X143482143Y-50435771D01*
X143482143Y-50435771D02*
X143720238Y-50435771D01*
X143720238Y-50435771D02*
X143815476Y-50483390D01*
X143815476Y-50483390D02*
X143863095Y-50531009D01*
X143863095Y-50531009D02*
X143910714Y-50626247D01*
X143910714Y-50626247D02*
X143910714Y-50864342D01*
X143910714Y-50864342D02*
X143863095Y-50959580D01*
X143863095Y-50959580D02*
X143815476Y-51007200D01*
X143815476Y-51007200D02*
X143720238Y-51054819D01*
X143720238Y-51054819D02*
X143482143Y-51054819D01*
X143482143Y-51054819D02*
X143386905Y-51007200D01*
X143386905Y-51007200D02*
X143339286Y-50959580D01*
X179410714Y-138554819D02*
X179410714Y-137554819D01*
X179410714Y-137554819D02*
X179648809Y-137554819D01*
X179648809Y-137554819D02*
X179791666Y-137602438D01*
X179791666Y-137602438D02*
X179886904Y-137697676D01*
X179886904Y-137697676D02*
X179934523Y-137792914D01*
X179934523Y-137792914D02*
X179982142Y-137983390D01*
X179982142Y-137983390D02*
X179982142Y-138126247D01*
X179982142Y-138126247D02*
X179934523Y-138316723D01*
X179934523Y-138316723D02*
X179886904Y-138411961D01*
X179886904Y-138411961D02*
X179791666Y-138507200D01*
X179791666Y-138507200D02*
X179648809Y-138554819D01*
X179648809Y-138554819D02*
X179410714Y-138554819D01*
X180839285Y-137554819D02*
X180648809Y-137554819D01*
X180648809Y-137554819D02*
X180553571Y-137602438D01*
X180553571Y-137602438D02*
X180505952Y-137650057D01*
X180505952Y-137650057D02*
X180410714Y-137792914D01*
X180410714Y-137792914D02*
X180363095Y-137983390D01*
X180363095Y-137983390D02*
X180363095Y-138364342D01*
X180363095Y-138364342D02*
X180410714Y-138459580D01*
X180410714Y-138459580D02*
X180458333Y-138507200D01*
X180458333Y-138507200D02*
X180553571Y-138554819D01*
X180553571Y-138554819D02*
X180744047Y-138554819D01*
X180744047Y-138554819D02*
X180839285Y-138507200D01*
X180839285Y-138507200D02*
X180886904Y-138459580D01*
X180886904Y-138459580D02*
X180934523Y-138364342D01*
X180934523Y-138364342D02*
X180934523Y-138126247D01*
X180934523Y-138126247D02*
X180886904Y-138031009D01*
X180886904Y-138031009D02*
X180839285Y-137983390D01*
X180839285Y-137983390D02*
X180744047Y-137935771D01*
X180744047Y-137935771D02*
X180553571Y-137935771D01*
X180553571Y-137935771D02*
X180458333Y-137983390D01*
X180458333Y-137983390D02*
X180410714Y-138031009D01*
X180410714Y-138031009D02*
X180363095Y-138126247D01*
X181791666Y-137888152D02*
X181791666Y-138554819D01*
X181553571Y-137507200D02*
X181315476Y-138221485D01*
X181315476Y-138221485D02*
X181934523Y-138221485D01*
X104410714Y-126054819D02*
X104410714Y-125054819D01*
X104410714Y-125054819D02*
X104648809Y-125054819D01*
X104648809Y-125054819D02*
X104791666Y-125102438D01*
X104791666Y-125102438D02*
X104886904Y-125197676D01*
X104886904Y-125197676D02*
X104934523Y-125292914D01*
X104934523Y-125292914D02*
X104982142Y-125483390D01*
X104982142Y-125483390D02*
X104982142Y-125626247D01*
X104982142Y-125626247D02*
X104934523Y-125816723D01*
X104934523Y-125816723D02*
X104886904Y-125911961D01*
X104886904Y-125911961D02*
X104791666Y-126007200D01*
X104791666Y-126007200D02*
X104648809Y-126054819D01*
X104648809Y-126054819D02*
X104410714Y-126054819D01*
X105886904Y-125054819D02*
X105410714Y-125054819D01*
X105410714Y-125054819D02*
X105363095Y-125531009D01*
X105363095Y-125531009D02*
X105410714Y-125483390D01*
X105410714Y-125483390D02*
X105505952Y-125435771D01*
X105505952Y-125435771D02*
X105744047Y-125435771D01*
X105744047Y-125435771D02*
X105839285Y-125483390D01*
X105839285Y-125483390D02*
X105886904Y-125531009D01*
X105886904Y-125531009D02*
X105934523Y-125626247D01*
X105934523Y-125626247D02*
X105934523Y-125864342D01*
X105934523Y-125864342D02*
X105886904Y-125959580D01*
X105886904Y-125959580D02*
X105839285Y-126007200D01*
X105839285Y-126007200D02*
X105744047Y-126054819D01*
X105744047Y-126054819D02*
X105505952Y-126054819D01*
X105505952Y-126054819D02*
X105410714Y-126007200D01*
X105410714Y-126007200D02*
X105363095Y-125959580D01*
X106553571Y-125054819D02*
X106648809Y-125054819D01*
X106648809Y-125054819D02*
X106744047Y-125102438D01*
X106744047Y-125102438D02*
X106791666Y-125150057D01*
X106791666Y-125150057D02*
X106839285Y-125245295D01*
X106839285Y-125245295D02*
X106886904Y-125435771D01*
X106886904Y-125435771D02*
X106886904Y-125673866D01*
X106886904Y-125673866D02*
X106839285Y-125864342D01*
X106839285Y-125864342D02*
X106791666Y-125959580D01*
X106791666Y-125959580D02*
X106744047Y-126007200D01*
X106744047Y-126007200D02*
X106648809Y-126054819D01*
X106648809Y-126054819D02*
X106553571Y-126054819D01*
X106553571Y-126054819D02*
X106458333Y-126007200D01*
X106458333Y-126007200D02*
X106410714Y-125959580D01*
X106410714Y-125959580D02*
X106363095Y-125864342D01*
X106363095Y-125864342D02*
X106315476Y-125673866D01*
X106315476Y-125673866D02*
X106315476Y-125435771D01*
X106315476Y-125435771D02*
X106363095Y-125245295D01*
X106363095Y-125245295D02*
X106410714Y-125150057D01*
X106410714Y-125150057D02*
X106458333Y-125102438D01*
X106458333Y-125102438D02*
X106553571Y-125054819D01*
X191910714Y-126054819D02*
X191910714Y-125054819D01*
X191910714Y-125054819D02*
X192148809Y-125054819D01*
X192148809Y-125054819D02*
X192291666Y-125102438D01*
X192291666Y-125102438D02*
X192386904Y-125197676D01*
X192386904Y-125197676D02*
X192434523Y-125292914D01*
X192434523Y-125292914D02*
X192482142Y-125483390D01*
X192482142Y-125483390D02*
X192482142Y-125626247D01*
X192482142Y-125626247D02*
X192434523Y-125816723D01*
X192434523Y-125816723D02*
X192386904Y-125911961D01*
X192386904Y-125911961D02*
X192291666Y-126007200D01*
X192291666Y-126007200D02*
X192148809Y-126054819D01*
X192148809Y-126054819D02*
X191910714Y-126054819D01*
X193386904Y-125054819D02*
X192910714Y-125054819D01*
X192910714Y-125054819D02*
X192863095Y-125531009D01*
X192863095Y-125531009D02*
X192910714Y-125483390D01*
X192910714Y-125483390D02*
X193005952Y-125435771D01*
X193005952Y-125435771D02*
X193244047Y-125435771D01*
X193244047Y-125435771D02*
X193339285Y-125483390D01*
X193339285Y-125483390D02*
X193386904Y-125531009D01*
X193386904Y-125531009D02*
X193434523Y-125626247D01*
X193434523Y-125626247D02*
X193434523Y-125864342D01*
X193434523Y-125864342D02*
X193386904Y-125959580D01*
X193386904Y-125959580D02*
X193339285Y-126007200D01*
X193339285Y-126007200D02*
X193244047Y-126054819D01*
X193244047Y-126054819D02*
X193005952Y-126054819D01*
X193005952Y-126054819D02*
X192910714Y-126007200D01*
X192910714Y-126007200D02*
X192863095Y-125959580D01*
X193767857Y-125054819D02*
X194434523Y-125054819D01*
X194434523Y-125054819D02*
X194005952Y-126054819D01*
X104410714Y-138554819D02*
X104410714Y-137554819D01*
X104410714Y-137554819D02*
X104648809Y-137554819D01*
X104648809Y-137554819D02*
X104791666Y-137602438D01*
X104791666Y-137602438D02*
X104886904Y-137697676D01*
X104886904Y-137697676D02*
X104934523Y-137792914D01*
X104934523Y-137792914D02*
X104982142Y-137983390D01*
X104982142Y-137983390D02*
X104982142Y-138126247D01*
X104982142Y-138126247D02*
X104934523Y-138316723D01*
X104934523Y-138316723D02*
X104886904Y-138411961D01*
X104886904Y-138411961D02*
X104791666Y-138507200D01*
X104791666Y-138507200D02*
X104648809Y-138554819D01*
X104648809Y-138554819D02*
X104410714Y-138554819D01*
X105886904Y-137554819D02*
X105410714Y-137554819D01*
X105410714Y-137554819D02*
X105363095Y-138031009D01*
X105363095Y-138031009D02*
X105410714Y-137983390D01*
X105410714Y-137983390D02*
X105505952Y-137935771D01*
X105505952Y-137935771D02*
X105744047Y-137935771D01*
X105744047Y-137935771D02*
X105839285Y-137983390D01*
X105839285Y-137983390D02*
X105886904Y-138031009D01*
X105886904Y-138031009D02*
X105934523Y-138126247D01*
X105934523Y-138126247D02*
X105934523Y-138364342D01*
X105934523Y-138364342D02*
X105886904Y-138459580D01*
X105886904Y-138459580D02*
X105839285Y-138507200D01*
X105839285Y-138507200D02*
X105744047Y-138554819D01*
X105744047Y-138554819D02*
X105505952Y-138554819D01*
X105505952Y-138554819D02*
X105410714Y-138507200D01*
X105410714Y-138507200D02*
X105363095Y-138459580D01*
X106505952Y-137983390D02*
X106410714Y-137935771D01*
X106410714Y-137935771D02*
X106363095Y-137888152D01*
X106363095Y-137888152D02*
X106315476Y-137792914D01*
X106315476Y-137792914D02*
X106315476Y-137745295D01*
X106315476Y-137745295D02*
X106363095Y-137650057D01*
X106363095Y-137650057D02*
X106410714Y-137602438D01*
X106410714Y-137602438D02*
X106505952Y-137554819D01*
X106505952Y-137554819D02*
X106696428Y-137554819D01*
X106696428Y-137554819D02*
X106791666Y-137602438D01*
X106791666Y-137602438D02*
X106839285Y-137650057D01*
X106839285Y-137650057D02*
X106886904Y-137745295D01*
X106886904Y-137745295D02*
X106886904Y-137792914D01*
X106886904Y-137792914D02*
X106839285Y-137888152D01*
X106839285Y-137888152D02*
X106791666Y-137935771D01*
X106791666Y-137935771D02*
X106696428Y-137983390D01*
X106696428Y-137983390D02*
X106505952Y-137983390D01*
X106505952Y-137983390D02*
X106410714Y-138031009D01*
X106410714Y-138031009D02*
X106363095Y-138078628D01*
X106363095Y-138078628D02*
X106315476Y-138173866D01*
X106315476Y-138173866D02*
X106315476Y-138364342D01*
X106315476Y-138364342D02*
X106363095Y-138459580D01*
X106363095Y-138459580D02*
X106410714Y-138507200D01*
X106410714Y-138507200D02*
X106505952Y-138554819D01*
X106505952Y-138554819D02*
X106696428Y-138554819D01*
X106696428Y-138554819D02*
X106791666Y-138507200D01*
X106791666Y-138507200D02*
X106839285Y-138459580D01*
X106839285Y-138459580D02*
X106886904Y-138364342D01*
X106886904Y-138364342D02*
X106886904Y-138173866D01*
X106886904Y-138173866D02*
X106839285Y-138078628D01*
X106839285Y-138078628D02*
X106791666Y-138031009D01*
X106791666Y-138031009D02*
X106696428Y-137983390D01*
X154410714Y-63554819D02*
X154410714Y-62554819D01*
X154410714Y-62554819D02*
X154648809Y-62554819D01*
X154648809Y-62554819D02*
X154791666Y-62602438D01*
X154791666Y-62602438D02*
X154886904Y-62697676D01*
X154886904Y-62697676D02*
X154934523Y-62792914D01*
X154934523Y-62792914D02*
X154982142Y-62983390D01*
X154982142Y-62983390D02*
X154982142Y-63126247D01*
X154982142Y-63126247D02*
X154934523Y-63316723D01*
X154934523Y-63316723D02*
X154886904Y-63411961D01*
X154886904Y-63411961D02*
X154791666Y-63507200D01*
X154791666Y-63507200D02*
X154648809Y-63554819D01*
X154648809Y-63554819D02*
X154410714Y-63554819D01*
X155934523Y-63554819D02*
X155363095Y-63554819D01*
X155648809Y-63554819D02*
X155648809Y-62554819D01*
X155648809Y-62554819D02*
X155553571Y-62697676D01*
X155553571Y-62697676D02*
X155458333Y-62792914D01*
X155458333Y-62792914D02*
X155363095Y-62840533D01*
X156791666Y-62888152D02*
X156791666Y-63554819D01*
X156553571Y-62507200D02*
X156315476Y-63221485D01*
X156315476Y-63221485D02*
X156934523Y-63221485D01*
X129410714Y-101054819D02*
X129410714Y-100054819D01*
X129410714Y-100054819D02*
X129648809Y-100054819D01*
X129648809Y-100054819D02*
X129791666Y-100102438D01*
X129791666Y-100102438D02*
X129886904Y-100197676D01*
X129886904Y-100197676D02*
X129934523Y-100292914D01*
X129934523Y-100292914D02*
X129982142Y-100483390D01*
X129982142Y-100483390D02*
X129982142Y-100626247D01*
X129982142Y-100626247D02*
X129934523Y-100816723D01*
X129934523Y-100816723D02*
X129886904Y-100911961D01*
X129886904Y-100911961D02*
X129791666Y-101007200D01*
X129791666Y-101007200D02*
X129648809Y-101054819D01*
X129648809Y-101054819D02*
X129410714Y-101054819D01*
X130315476Y-100054819D02*
X130934523Y-100054819D01*
X130934523Y-100054819D02*
X130601190Y-100435771D01*
X130601190Y-100435771D02*
X130744047Y-100435771D01*
X130744047Y-100435771D02*
X130839285Y-100483390D01*
X130839285Y-100483390D02*
X130886904Y-100531009D01*
X130886904Y-100531009D02*
X130934523Y-100626247D01*
X130934523Y-100626247D02*
X130934523Y-100864342D01*
X130934523Y-100864342D02*
X130886904Y-100959580D01*
X130886904Y-100959580D02*
X130839285Y-101007200D01*
X130839285Y-101007200D02*
X130744047Y-101054819D01*
X130744047Y-101054819D02*
X130458333Y-101054819D01*
X130458333Y-101054819D02*
X130363095Y-101007200D01*
X130363095Y-101007200D02*
X130315476Y-100959580D01*
X131791666Y-100054819D02*
X131601190Y-100054819D01*
X131601190Y-100054819D02*
X131505952Y-100102438D01*
X131505952Y-100102438D02*
X131458333Y-100150057D01*
X131458333Y-100150057D02*
X131363095Y-100292914D01*
X131363095Y-100292914D02*
X131315476Y-100483390D01*
X131315476Y-100483390D02*
X131315476Y-100864342D01*
X131315476Y-100864342D02*
X131363095Y-100959580D01*
X131363095Y-100959580D02*
X131410714Y-101007200D01*
X131410714Y-101007200D02*
X131505952Y-101054819D01*
X131505952Y-101054819D02*
X131696428Y-101054819D01*
X131696428Y-101054819D02*
X131791666Y-101007200D01*
X131791666Y-101007200D02*
X131839285Y-100959580D01*
X131839285Y-100959580D02*
X131886904Y-100864342D01*
X131886904Y-100864342D02*
X131886904Y-100626247D01*
X131886904Y-100626247D02*
X131839285Y-100531009D01*
X131839285Y-100531009D02*
X131791666Y-100483390D01*
X131791666Y-100483390D02*
X131696428Y-100435771D01*
X131696428Y-100435771D02*
X131505952Y-100435771D01*
X131505952Y-100435771D02*
X131410714Y-100483390D01*
X131410714Y-100483390D02*
X131363095Y-100531009D01*
X131363095Y-100531009D02*
X131315476Y-100626247D01*
X141910714Y-113554819D02*
X141910714Y-112554819D01*
X141910714Y-112554819D02*
X142148809Y-112554819D01*
X142148809Y-112554819D02*
X142291666Y-112602438D01*
X142291666Y-112602438D02*
X142386904Y-112697676D01*
X142386904Y-112697676D02*
X142434523Y-112792914D01*
X142434523Y-112792914D02*
X142482142Y-112983390D01*
X142482142Y-112983390D02*
X142482142Y-113126247D01*
X142482142Y-113126247D02*
X142434523Y-113316723D01*
X142434523Y-113316723D02*
X142386904Y-113411961D01*
X142386904Y-113411961D02*
X142291666Y-113507200D01*
X142291666Y-113507200D02*
X142148809Y-113554819D01*
X142148809Y-113554819D02*
X141910714Y-113554819D01*
X143339285Y-112888152D02*
X143339285Y-113554819D01*
X143101190Y-112507200D02*
X142863095Y-113221485D01*
X142863095Y-113221485D02*
X143482142Y-113221485D01*
X144339285Y-112554819D02*
X143863095Y-112554819D01*
X143863095Y-112554819D02*
X143815476Y-113031009D01*
X143815476Y-113031009D02*
X143863095Y-112983390D01*
X143863095Y-112983390D02*
X143958333Y-112935771D01*
X143958333Y-112935771D02*
X144196428Y-112935771D01*
X144196428Y-112935771D02*
X144291666Y-112983390D01*
X144291666Y-112983390D02*
X144339285Y-113031009D01*
X144339285Y-113031009D02*
X144386904Y-113126247D01*
X144386904Y-113126247D02*
X144386904Y-113364342D01*
X144386904Y-113364342D02*
X144339285Y-113459580D01*
X144339285Y-113459580D02*
X144291666Y-113507200D01*
X144291666Y-113507200D02*
X144196428Y-113554819D01*
X144196428Y-113554819D02*
X143958333Y-113554819D01*
X143958333Y-113554819D02*
X143863095Y-113507200D01*
X143863095Y-113507200D02*
X143815476Y-113459580D01*
X191910714Y-101054819D02*
X191910714Y-100054819D01*
X191910714Y-100054819D02*
X192148809Y-100054819D01*
X192148809Y-100054819D02*
X192291666Y-100102438D01*
X192291666Y-100102438D02*
X192386904Y-100197676D01*
X192386904Y-100197676D02*
X192434523Y-100292914D01*
X192434523Y-100292914D02*
X192482142Y-100483390D01*
X192482142Y-100483390D02*
X192482142Y-100626247D01*
X192482142Y-100626247D02*
X192434523Y-100816723D01*
X192434523Y-100816723D02*
X192386904Y-100911961D01*
X192386904Y-100911961D02*
X192291666Y-101007200D01*
X192291666Y-101007200D02*
X192148809Y-101054819D01*
X192148809Y-101054819D02*
X191910714Y-101054819D01*
X193339285Y-100388152D02*
X193339285Y-101054819D01*
X193101190Y-100007200D02*
X192863095Y-100721485D01*
X192863095Y-100721485D02*
X193482142Y-100721485D01*
X194386904Y-101054819D02*
X193815476Y-101054819D01*
X194101190Y-101054819D02*
X194101190Y-100054819D01*
X194101190Y-100054819D02*
X194005952Y-100197676D01*
X194005952Y-100197676D02*
X193910714Y-100292914D01*
X193910714Y-100292914D02*
X193815476Y-100340533D01*
X166910714Y-138554819D02*
X166910714Y-137554819D01*
X166910714Y-137554819D02*
X167148809Y-137554819D01*
X167148809Y-137554819D02*
X167291666Y-137602438D01*
X167291666Y-137602438D02*
X167386904Y-137697676D01*
X167386904Y-137697676D02*
X167434523Y-137792914D01*
X167434523Y-137792914D02*
X167482142Y-137983390D01*
X167482142Y-137983390D02*
X167482142Y-138126247D01*
X167482142Y-138126247D02*
X167434523Y-138316723D01*
X167434523Y-138316723D02*
X167386904Y-138411961D01*
X167386904Y-138411961D02*
X167291666Y-138507200D01*
X167291666Y-138507200D02*
X167148809Y-138554819D01*
X167148809Y-138554819D02*
X166910714Y-138554819D01*
X168339285Y-137554819D02*
X168148809Y-137554819D01*
X168148809Y-137554819D02*
X168053571Y-137602438D01*
X168053571Y-137602438D02*
X168005952Y-137650057D01*
X168005952Y-137650057D02*
X167910714Y-137792914D01*
X167910714Y-137792914D02*
X167863095Y-137983390D01*
X167863095Y-137983390D02*
X167863095Y-138364342D01*
X167863095Y-138364342D02*
X167910714Y-138459580D01*
X167910714Y-138459580D02*
X167958333Y-138507200D01*
X167958333Y-138507200D02*
X168053571Y-138554819D01*
X168053571Y-138554819D02*
X168244047Y-138554819D01*
X168244047Y-138554819D02*
X168339285Y-138507200D01*
X168339285Y-138507200D02*
X168386904Y-138459580D01*
X168386904Y-138459580D02*
X168434523Y-138364342D01*
X168434523Y-138364342D02*
X168434523Y-138126247D01*
X168434523Y-138126247D02*
X168386904Y-138031009D01*
X168386904Y-138031009D02*
X168339285Y-137983390D01*
X168339285Y-137983390D02*
X168244047Y-137935771D01*
X168244047Y-137935771D02*
X168053571Y-137935771D01*
X168053571Y-137935771D02*
X167958333Y-137983390D01*
X167958333Y-137983390D02*
X167910714Y-138031009D01*
X167910714Y-138031009D02*
X167863095Y-138126247D01*
X168767857Y-137554819D02*
X169386904Y-137554819D01*
X169386904Y-137554819D02*
X169053571Y-137935771D01*
X169053571Y-137935771D02*
X169196428Y-137935771D01*
X169196428Y-137935771D02*
X169291666Y-137983390D01*
X169291666Y-137983390D02*
X169339285Y-138031009D01*
X169339285Y-138031009D02*
X169386904Y-138126247D01*
X169386904Y-138126247D02*
X169386904Y-138364342D01*
X169386904Y-138364342D02*
X169339285Y-138459580D01*
X169339285Y-138459580D02*
X169291666Y-138507200D01*
X169291666Y-138507200D02*
X169196428Y-138554819D01*
X169196428Y-138554819D02*
X168910714Y-138554819D01*
X168910714Y-138554819D02*
X168815476Y-138507200D01*
X168815476Y-138507200D02*
X168767857Y-138459580D01*
X104410714Y-63554819D02*
X104410714Y-62554819D01*
X104410714Y-62554819D02*
X104648809Y-62554819D01*
X104648809Y-62554819D02*
X104791666Y-62602438D01*
X104791666Y-62602438D02*
X104886904Y-62697676D01*
X104886904Y-62697676D02*
X104934523Y-62792914D01*
X104934523Y-62792914D02*
X104982142Y-62983390D01*
X104982142Y-62983390D02*
X104982142Y-63126247D01*
X104982142Y-63126247D02*
X104934523Y-63316723D01*
X104934523Y-63316723D02*
X104886904Y-63411961D01*
X104886904Y-63411961D02*
X104791666Y-63507200D01*
X104791666Y-63507200D02*
X104648809Y-63554819D01*
X104648809Y-63554819D02*
X104410714Y-63554819D01*
X105934523Y-63554819D02*
X105363095Y-63554819D01*
X105648809Y-63554819D02*
X105648809Y-62554819D01*
X105648809Y-62554819D02*
X105553571Y-62697676D01*
X105553571Y-62697676D02*
X105458333Y-62792914D01*
X105458333Y-62792914D02*
X105363095Y-62840533D01*
X106553571Y-62554819D02*
X106648809Y-62554819D01*
X106648809Y-62554819D02*
X106744047Y-62602438D01*
X106744047Y-62602438D02*
X106791666Y-62650057D01*
X106791666Y-62650057D02*
X106839285Y-62745295D01*
X106839285Y-62745295D02*
X106886904Y-62935771D01*
X106886904Y-62935771D02*
X106886904Y-63173866D01*
X106886904Y-63173866D02*
X106839285Y-63364342D01*
X106839285Y-63364342D02*
X106791666Y-63459580D01*
X106791666Y-63459580D02*
X106744047Y-63507200D01*
X106744047Y-63507200D02*
X106648809Y-63554819D01*
X106648809Y-63554819D02*
X106553571Y-63554819D01*
X106553571Y-63554819D02*
X106458333Y-63507200D01*
X106458333Y-63507200D02*
X106410714Y-63459580D01*
X106410714Y-63459580D02*
X106363095Y-63364342D01*
X106363095Y-63364342D02*
X106315476Y-63173866D01*
X106315476Y-63173866D02*
X106315476Y-62935771D01*
X106315476Y-62935771D02*
X106363095Y-62745295D01*
X106363095Y-62745295D02*
X106410714Y-62650057D01*
X106410714Y-62650057D02*
X106458333Y-62602438D01*
X106458333Y-62602438D02*
X106553571Y-62554819D01*
X104410714Y-101054819D02*
X104410714Y-100054819D01*
X104410714Y-100054819D02*
X104648809Y-100054819D01*
X104648809Y-100054819D02*
X104791666Y-100102438D01*
X104791666Y-100102438D02*
X104886904Y-100197676D01*
X104886904Y-100197676D02*
X104934523Y-100292914D01*
X104934523Y-100292914D02*
X104982142Y-100483390D01*
X104982142Y-100483390D02*
X104982142Y-100626247D01*
X104982142Y-100626247D02*
X104934523Y-100816723D01*
X104934523Y-100816723D02*
X104886904Y-100911961D01*
X104886904Y-100911961D02*
X104791666Y-101007200D01*
X104791666Y-101007200D02*
X104648809Y-101054819D01*
X104648809Y-101054819D02*
X104410714Y-101054819D01*
X105315476Y-100054819D02*
X105934523Y-100054819D01*
X105934523Y-100054819D02*
X105601190Y-100435771D01*
X105601190Y-100435771D02*
X105744047Y-100435771D01*
X105744047Y-100435771D02*
X105839285Y-100483390D01*
X105839285Y-100483390D02*
X105886904Y-100531009D01*
X105886904Y-100531009D02*
X105934523Y-100626247D01*
X105934523Y-100626247D02*
X105934523Y-100864342D01*
X105934523Y-100864342D02*
X105886904Y-100959580D01*
X105886904Y-100959580D02*
X105839285Y-101007200D01*
X105839285Y-101007200D02*
X105744047Y-101054819D01*
X105744047Y-101054819D02*
X105458333Y-101054819D01*
X105458333Y-101054819D02*
X105363095Y-101007200D01*
X105363095Y-101007200D02*
X105315476Y-100959580D01*
X106791666Y-100388152D02*
X106791666Y-101054819D01*
X106553571Y-100007200D02*
X106315476Y-100721485D01*
X106315476Y-100721485D02*
X106934523Y-100721485D01*
X104410714Y-76054819D02*
X104410714Y-75054819D01*
X104410714Y-75054819D02*
X104648809Y-75054819D01*
X104648809Y-75054819D02*
X104791666Y-75102438D01*
X104791666Y-75102438D02*
X104886904Y-75197676D01*
X104886904Y-75197676D02*
X104934523Y-75292914D01*
X104934523Y-75292914D02*
X104982142Y-75483390D01*
X104982142Y-75483390D02*
X104982142Y-75626247D01*
X104982142Y-75626247D02*
X104934523Y-75816723D01*
X104934523Y-75816723D02*
X104886904Y-75911961D01*
X104886904Y-75911961D02*
X104791666Y-76007200D01*
X104791666Y-76007200D02*
X104648809Y-76054819D01*
X104648809Y-76054819D02*
X104410714Y-76054819D01*
X105934523Y-76054819D02*
X105363095Y-76054819D01*
X105648809Y-76054819D02*
X105648809Y-75054819D01*
X105648809Y-75054819D02*
X105553571Y-75197676D01*
X105553571Y-75197676D02*
X105458333Y-75292914D01*
X105458333Y-75292914D02*
X105363095Y-75340533D01*
X106505952Y-75483390D02*
X106410714Y-75435771D01*
X106410714Y-75435771D02*
X106363095Y-75388152D01*
X106363095Y-75388152D02*
X106315476Y-75292914D01*
X106315476Y-75292914D02*
X106315476Y-75245295D01*
X106315476Y-75245295D02*
X106363095Y-75150057D01*
X106363095Y-75150057D02*
X106410714Y-75102438D01*
X106410714Y-75102438D02*
X106505952Y-75054819D01*
X106505952Y-75054819D02*
X106696428Y-75054819D01*
X106696428Y-75054819D02*
X106791666Y-75102438D01*
X106791666Y-75102438D02*
X106839285Y-75150057D01*
X106839285Y-75150057D02*
X106886904Y-75245295D01*
X106886904Y-75245295D02*
X106886904Y-75292914D01*
X106886904Y-75292914D02*
X106839285Y-75388152D01*
X106839285Y-75388152D02*
X106791666Y-75435771D01*
X106791666Y-75435771D02*
X106696428Y-75483390D01*
X106696428Y-75483390D02*
X106505952Y-75483390D01*
X106505952Y-75483390D02*
X106410714Y-75531009D01*
X106410714Y-75531009D02*
X106363095Y-75578628D01*
X106363095Y-75578628D02*
X106315476Y-75673866D01*
X106315476Y-75673866D02*
X106315476Y-75864342D01*
X106315476Y-75864342D02*
X106363095Y-75959580D01*
X106363095Y-75959580D02*
X106410714Y-76007200D01*
X106410714Y-76007200D02*
X106505952Y-76054819D01*
X106505952Y-76054819D02*
X106696428Y-76054819D01*
X106696428Y-76054819D02*
X106791666Y-76007200D01*
X106791666Y-76007200D02*
X106839285Y-75959580D01*
X106839285Y-75959580D02*
X106886904Y-75864342D01*
X106886904Y-75864342D02*
X106886904Y-75673866D01*
X106886904Y-75673866D02*
X106839285Y-75578628D01*
X106839285Y-75578628D02*
X106791666Y-75531009D01*
X106791666Y-75531009D02*
X106696428Y-75483390D01*
X191910714Y-88554819D02*
X191910714Y-87554819D01*
X191910714Y-87554819D02*
X192148809Y-87554819D01*
X192148809Y-87554819D02*
X192291666Y-87602438D01*
X192291666Y-87602438D02*
X192386904Y-87697676D01*
X192386904Y-87697676D02*
X192434523Y-87792914D01*
X192434523Y-87792914D02*
X192482142Y-87983390D01*
X192482142Y-87983390D02*
X192482142Y-88126247D01*
X192482142Y-88126247D02*
X192434523Y-88316723D01*
X192434523Y-88316723D02*
X192386904Y-88411961D01*
X192386904Y-88411961D02*
X192291666Y-88507200D01*
X192291666Y-88507200D02*
X192148809Y-88554819D01*
X192148809Y-88554819D02*
X191910714Y-88554819D01*
X192815476Y-87554819D02*
X193434523Y-87554819D01*
X193434523Y-87554819D02*
X193101190Y-87935771D01*
X193101190Y-87935771D02*
X193244047Y-87935771D01*
X193244047Y-87935771D02*
X193339285Y-87983390D01*
X193339285Y-87983390D02*
X193386904Y-88031009D01*
X193386904Y-88031009D02*
X193434523Y-88126247D01*
X193434523Y-88126247D02*
X193434523Y-88364342D01*
X193434523Y-88364342D02*
X193386904Y-88459580D01*
X193386904Y-88459580D02*
X193339285Y-88507200D01*
X193339285Y-88507200D02*
X193244047Y-88554819D01*
X193244047Y-88554819D02*
X192958333Y-88554819D01*
X192958333Y-88554819D02*
X192863095Y-88507200D01*
X192863095Y-88507200D02*
X192815476Y-88459580D01*
X193767857Y-87554819D02*
X194386904Y-87554819D01*
X194386904Y-87554819D02*
X194053571Y-87935771D01*
X194053571Y-87935771D02*
X194196428Y-87935771D01*
X194196428Y-87935771D02*
X194291666Y-87983390D01*
X194291666Y-87983390D02*
X194339285Y-88031009D01*
X194339285Y-88031009D02*
X194386904Y-88126247D01*
X194386904Y-88126247D02*
X194386904Y-88364342D01*
X194386904Y-88364342D02*
X194339285Y-88459580D01*
X194339285Y-88459580D02*
X194291666Y-88507200D01*
X194291666Y-88507200D02*
X194196428Y-88554819D01*
X194196428Y-88554819D02*
X193910714Y-88554819D01*
X193910714Y-88554819D02*
X193815476Y-88507200D01*
X193815476Y-88507200D02*
X193767857Y-88459580D01*
X154410714Y-76054819D02*
X154410714Y-75054819D01*
X154410714Y-75054819D02*
X154648809Y-75054819D01*
X154648809Y-75054819D02*
X154791666Y-75102438D01*
X154791666Y-75102438D02*
X154886904Y-75197676D01*
X154886904Y-75197676D02*
X154934523Y-75292914D01*
X154934523Y-75292914D02*
X154982142Y-75483390D01*
X154982142Y-75483390D02*
X154982142Y-75626247D01*
X154982142Y-75626247D02*
X154934523Y-75816723D01*
X154934523Y-75816723D02*
X154886904Y-75911961D01*
X154886904Y-75911961D02*
X154791666Y-76007200D01*
X154791666Y-76007200D02*
X154648809Y-76054819D01*
X154648809Y-76054819D02*
X154410714Y-76054819D01*
X155363095Y-75150057D02*
X155410714Y-75102438D01*
X155410714Y-75102438D02*
X155505952Y-75054819D01*
X155505952Y-75054819D02*
X155744047Y-75054819D01*
X155744047Y-75054819D02*
X155839285Y-75102438D01*
X155839285Y-75102438D02*
X155886904Y-75150057D01*
X155886904Y-75150057D02*
X155934523Y-75245295D01*
X155934523Y-75245295D02*
X155934523Y-75340533D01*
X155934523Y-75340533D02*
X155886904Y-75483390D01*
X155886904Y-75483390D02*
X155315476Y-76054819D01*
X155315476Y-76054819D02*
X155934523Y-76054819D01*
X156315476Y-75150057D02*
X156363095Y-75102438D01*
X156363095Y-75102438D02*
X156458333Y-75054819D01*
X156458333Y-75054819D02*
X156696428Y-75054819D01*
X156696428Y-75054819D02*
X156791666Y-75102438D01*
X156791666Y-75102438D02*
X156839285Y-75150057D01*
X156839285Y-75150057D02*
X156886904Y-75245295D01*
X156886904Y-75245295D02*
X156886904Y-75340533D01*
X156886904Y-75340533D02*
X156839285Y-75483390D01*
X156839285Y-75483390D02*
X156267857Y-76054819D01*
X156267857Y-76054819D02*
X156886904Y-76054819D01*
X116910714Y-88554819D02*
X116910714Y-87554819D01*
X116910714Y-87554819D02*
X117148809Y-87554819D01*
X117148809Y-87554819D02*
X117291666Y-87602438D01*
X117291666Y-87602438D02*
X117386904Y-87697676D01*
X117386904Y-87697676D02*
X117434523Y-87792914D01*
X117434523Y-87792914D02*
X117482142Y-87983390D01*
X117482142Y-87983390D02*
X117482142Y-88126247D01*
X117482142Y-88126247D02*
X117434523Y-88316723D01*
X117434523Y-88316723D02*
X117386904Y-88411961D01*
X117386904Y-88411961D02*
X117291666Y-88507200D01*
X117291666Y-88507200D02*
X117148809Y-88554819D01*
X117148809Y-88554819D02*
X116910714Y-88554819D01*
X117863095Y-87650057D02*
X117910714Y-87602438D01*
X117910714Y-87602438D02*
X118005952Y-87554819D01*
X118005952Y-87554819D02*
X118244047Y-87554819D01*
X118244047Y-87554819D02*
X118339285Y-87602438D01*
X118339285Y-87602438D02*
X118386904Y-87650057D01*
X118386904Y-87650057D02*
X118434523Y-87745295D01*
X118434523Y-87745295D02*
X118434523Y-87840533D01*
X118434523Y-87840533D02*
X118386904Y-87983390D01*
X118386904Y-87983390D02*
X117815476Y-88554819D01*
X117815476Y-88554819D02*
X118434523Y-88554819D01*
X118767857Y-87554819D02*
X119434523Y-87554819D01*
X119434523Y-87554819D02*
X119005952Y-88554819D01*
X166910714Y-113554819D02*
X166910714Y-112554819D01*
X166910714Y-112554819D02*
X167148809Y-112554819D01*
X167148809Y-112554819D02*
X167291666Y-112602438D01*
X167291666Y-112602438D02*
X167386904Y-112697676D01*
X167386904Y-112697676D02*
X167434523Y-112792914D01*
X167434523Y-112792914D02*
X167482142Y-112983390D01*
X167482142Y-112983390D02*
X167482142Y-113126247D01*
X167482142Y-113126247D02*
X167434523Y-113316723D01*
X167434523Y-113316723D02*
X167386904Y-113411961D01*
X167386904Y-113411961D02*
X167291666Y-113507200D01*
X167291666Y-113507200D02*
X167148809Y-113554819D01*
X167148809Y-113554819D02*
X166910714Y-113554819D01*
X168339285Y-112888152D02*
X168339285Y-113554819D01*
X168101190Y-112507200D02*
X167863095Y-113221485D01*
X167863095Y-113221485D02*
X168482142Y-113221485D01*
X168767857Y-112554819D02*
X169434523Y-112554819D01*
X169434523Y-112554819D02*
X169005952Y-113554819D01*
X179410714Y-63554819D02*
X179410714Y-62554819D01*
X179410714Y-62554819D02*
X179648809Y-62554819D01*
X179648809Y-62554819D02*
X179791666Y-62602438D01*
X179791666Y-62602438D02*
X179886904Y-62697676D01*
X179886904Y-62697676D02*
X179934523Y-62792914D01*
X179934523Y-62792914D02*
X179982142Y-62983390D01*
X179982142Y-62983390D02*
X179982142Y-63126247D01*
X179982142Y-63126247D02*
X179934523Y-63316723D01*
X179934523Y-63316723D02*
X179886904Y-63411961D01*
X179886904Y-63411961D02*
X179791666Y-63507200D01*
X179791666Y-63507200D02*
X179648809Y-63554819D01*
X179648809Y-63554819D02*
X179410714Y-63554819D01*
X180934523Y-63554819D02*
X180363095Y-63554819D01*
X180648809Y-63554819D02*
X180648809Y-62554819D01*
X180648809Y-62554819D02*
X180553571Y-62697676D01*
X180553571Y-62697676D02*
X180458333Y-62792914D01*
X180458333Y-62792914D02*
X180363095Y-62840533D01*
X181791666Y-62554819D02*
X181601190Y-62554819D01*
X181601190Y-62554819D02*
X181505952Y-62602438D01*
X181505952Y-62602438D02*
X181458333Y-62650057D01*
X181458333Y-62650057D02*
X181363095Y-62792914D01*
X181363095Y-62792914D02*
X181315476Y-62983390D01*
X181315476Y-62983390D02*
X181315476Y-63364342D01*
X181315476Y-63364342D02*
X181363095Y-63459580D01*
X181363095Y-63459580D02*
X181410714Y-63507200D01*
X181410714Y-63507200D02*
X181505952Y-63554819D01*
X181505952Y-63554819D02*
X181696428Y-63554819D01*
X181696428Y-63554819D02*
X181791666Y-63507200D01*
X181791666Y-63507200D02*
X181839285Y-63459580D01*
X181839285Y-63459580D02*
X181886904Y-63364342D01*
X181886904Y-63364342D02*
X181886904Y-63126247D01*
X181886904Y-63126247D02*
X181839285Y-63031009D01*
X181839285Y-63031009D02*
X181791666Y-62983390D01*
X181791666Y-62983390D02*
X181696428Y-62935771D01*
X181696428Y-62935771D02*
X181505952Y-62935771D01*
X181505952Y-62935771D02*
X181410714Y-62983390D01*
X181410714Y-62983390D02*
X181363095Y-63031009D01*
X181363095Y-63031009D02*
X181315476Y-63126247D01*
X129886905Y-51054819D02*
X129886905Y-50054819D01*
X129886905Y-50054819D02*
X130125000Y-50054819D01*
X130125000Y-50054819D02*
X130267857Y-50102438D01*
X130267857Y-50102438D02*
X130363095Y-50197676D01*
X130363095Y-50197676D02*
X130410714Y-50292914D01*
X130410714Y-50292914D02*
X130458333Y-50483390D01*
X130458333Y-50483390D02*
X130458333Y-50626247D01*
X130458333Y-50626247D02*
X130410714Y-50816723D01*
X130410714Y-50816723D02*
X130363095Y-50911961D01*
X130363095Y-50911961D02*
X130267857Y-51007200D01*
X130267857Y-51007200D02*
X130125000Y-51054819D01*
X130125000Y-51054819D02*
X129886905Y-51054819D01*
X131315476Y-50388152D02*
X131315476Y-51054819D01*
X131077381Y-50007200D02*
X130839286Y-50721485D01*
X130839286Y-50721485D02*
X131458333Y-50721485D01*
X154410714Y-138554819D02*
X154410714Y-137554819D01*
X154410714Y-137554819D02*
X154648809Y-137554819D01*
X154648809Y-137554819D02*
X154791666Y-137602438D01*
X154791666Y-137602438D02*
X154886904Y-137697676D01*
X154886904Y-137697676D02*
X154934523Y-137792914D01*
X154934523Y-137792914D02*
X154982142Y-137983390D01*
X154982142Y-137983390D02*
X154982142Y-138126247D01*
X154982142Y-138126247D02*
X154934523Y-138316723D01*
X154934523Y-138316723D02*
X154886904Y-138411961D01*
X154886904Y-138411961D02*
X154791666Y-138507200D01*
X154791666Y-138507200D02*
X154648809Y-138554819D01*
X154648809Y-138554819D02*
X154410714Y-138554819D01*
X155839285Y-137554819D02*
X155648809Y-137554819D01*
X155648809Y-137554819D02*
X155553571Y-137602438D01*
X155553571Y-137602438D02*
X155505952Y-137650057D01*
X155505952Y-137650057D02*
X155410714Y-137792914D01*
X155410714Y-137792914D02*
X155363095Y-137983390D01*
X155363095Y-137983390D02*
X155363095Y-138364342D01*
X155363095Y-138364342D02*
X155410714Y-138459580D01*
X155410714Y-138459580D02*
X155458333Y-138507200D01*
X155458333Y-138507200D02*
X155553571Y-138554819D01*
X155553571Y-138554819D02*
X155744047Y-138554819D01*
X155744047Y-138554819D02*
X155839285Y-138507200D01*
X155839285Y-138507200D02*
X155886904Y-138459580D01*
X155886904Y-138459580D02*
X155934523Y-138364342D01*
X155934523Y-138364342D02*
X155934523Y-138126247D01*
X155934523Y-138126247D02*
X155886904Y-138031009D01*
X155886904Y-138031009D02*
X155839285Y-137983390D01*
X155839285Y-137983390D02*
X155744047Y-137935771D01*
X155744047Y-137935771D02*
X155553571Y-137935771D01*
X155553571Y-137935771D02*
X155458333Y-137983390D01*
X155458333Y-137983390D02*
X155410714Y-138031009D01*
X155410714Y-138031009D02*
X155363095Y-138126247D01*
X156315476Y-137650057D02*
X156363095Y-137602438D01*
X156363095Y-137602438D02*
X156458333Y-137554819D01*
X156458333Y-137554819D02*
X156696428Y-137554819D01*
X156696428Y-137554819D02*
X156791666Y-137602438D01*
X156791666Y-137602438D02*
X156839285Y-137650057D01*
X156839285Y-137650057D02*
X156886904Y-137745295D01*
X156886904Y-137745295D02*
X156886904Y-137840533D01*
X156886904Y-137840533D02*
X156839285Y-137983390D01*
X156839285Y-137983390D02*
X156267857Y-138554819D01*
X156267857Y-138554819D02*
X156886904Y-138554819D01*
X191910714Y-113554819D02*
X191910714Y-112554819D01*
X191910714Y-112554819D02*
X192148809Y-112554819D01*
X192148809Y-112554819D02*
X192291666Y-112602438D01*
X192291666Y-112602438D02*
X192386904Y-112697676D01*
X192386904Y-112697676D02*
X192434523Y-112792914D01*
X192434523Y-112792914D02*
X192482142Y-112983390D01*
X192482142Y-112983390D02*
X192482142Y-113126247D01*
X192482142Y-113126247D02*
X192434523Y-113316723D01*
X192434523Y-113316723D02*
X192386904Y-113411961D01*
X192386904Y-113411961D02*
X192291666Y-113507200D01*
X192291666Y-113507200D02*
X192148809Y-113554819D01*
X192148809Y-113554819D02*
X191910714Y-113554819D01*
X193339285Y-112888152D02*
X193339285Y-113554819D01*
X193101190Y-112507200D02*
X192863095Y-113221485D01*
X192863095Y-113221485D02*
X193482142Y-113221485D01*
X193910714Y-113554819D02*
X194101190Y-113554819D01*
X194101190Y-113554819D02*
X194196428Y-113507200D01*
X194196428Y-113507200D02*
X194244047Y-113459580D01*
X194244047Y-113459580D02*
X194339285Y-113316723D01*
X194339285Y-113316723D02*
X194386904Y-113126247D01*
X194386904Y-113126247D02*
X194386904Y-112745295D01*
X194386904Y-112745295D02*
X194339285Y-112650057D01*
X194339285Y-112650057D02*
X194291666Y-112602438D01*
X194291666Y-112602438D02*
X194196428Y-112554819D01*
X194196428Y-112554819D02*
X194005952Y-112554819D01*
X194005952Y-112554819D02*
X193910714Y-112602438D01*
X193910714Y-112602438D02*
X193863095Y-112650057D01*
X193863095Y-112650057D02*
X193815476Y-112745295D01*
X193815476Y-112745295D02*
X193815476Y-112983390D01*
X193815476Y-112983390D02*
X193863095Y-113078628D01*
X193863095Y-113078628D02*
X193910714Y-113126247D01*
X193910714Y-113126247D02*
X194005952Y-113173866D01*
X194005952Y-113173866D02*
X194196428Y-113173866D01*
X194196428Y-113173866D02*
X194291666Y-113126247D01*
X194291666Y-113126247D02*
X194339285Y-113078628D01*
X194339285Y-113078628D02*
X194386904Y-112983390D01*
X141910714Y-76054819D02*
X141910714Y-75054819D01*
X141910714Y-75054819D02*
X142148809Y-75054819D01*
X142148809Y-75054819D02*
X142291666Y-75102438D01*
X142291666Y-75102438D02*
X142386904Y-75197676D01*
X142386904Y-75197676D02*
X142434523Y-75292914D01*
X142434523Y-75292914D02*
X142482142Y-75483390D01*
X142482142Y-75483390D02*
X142482142Y-75626247D01*
X142482142Y-75626247D02*
X142434523Y-75816723D01*
X142434523Y-75816723D02*
X142386904Y-75911961D01*
X142386904Y-75911961D02*
X142291666Y-76007200D01*
X142291666Y-76007200D02*
X142148809Y-76054819D01*
X142148809Y-76054819D02*
X141910714Y-76054819D01*
X142863095Y-75150057D02*
X142910714Y-75102438D01*
X142910714Y-75102438D02*
X143005952Y-75054819D01*
X143005952Y-75054819D02*
X143244047Y-75054819D01*
X143244047Y-75054819D02*
X143339285Y-75102438D01*
X143339285Y-75102438D02*
X143386904Y-75150057D01*
X143386904Y-75150057D02*
X143434523Y-75245295D01*
X143434523Y-75245295D02*
X143434523Y-75340533D01*
X143434523Y-75340533D02*
X143386904Y-75483390D01*
X143386904Y-75483390D02*
X142815476Y-76054819D01*
X142815476Y-76054819D02*
X143434523Y-76054819D01*
X144386904Y-76054819D02*
X143815476Y-76054819D01*
X144101190Y-76054819D02*
X144101190Y-75054819D01*
X144101190Y-75054819D02*
X144005952Y-75197676D01*
X144005952Y-75197676D02*
X143910714Y-75292914D01*
X143910714Y-75292914D02*
X143815476Y-75340533D01*
X129410714Y-126054819D02*
X129410714Y-125054819D01*
X129410714Y-125054819D02*
X129648809Y-125054819D01*
X129648809Y-125054819D02*
X129791666Y-125102438D01*
X129791666Y-125102438D02*
X129886904Y-125197676D01*
X129886904Y-125197676D02*
X129934523Y-125292914D01*
X129934523Y-125292914D02*
X129982142Y-125483390D01*
X129982142Y-125483390D02*
X129982142Y-125626247D01*
X129982142Y-125626247D02*
X129934523Y-125816723D01*
X129934523Y-125816723D02*
X129886904Y-125911961D01*
X129886904Y-125911961D02*
X129791666Y-126007200D01*
X129791666Y-126007200D02*
X129648809Y-126054819D01*
X129648809Y-126054819D02*
X129410714Y-126054819D01*
X130886904Y-125054819D02*
X130410714Y-125054819D01*
X130410714Y-125054819D02*
X130363095Y-125531009D01*
X130363095Y-125531009D02*
X130410714Y-125483390D01*
X130410714Y-125483390D02*
X130505952Y-125435771D01*
X130505952Y-125435771D02*
X130744047Y-125435771D01*
X130744047Y-125435771D02*
X130839285Y-125483390D01*
X130839285Y-125483390D02*
X130886904Y-125531009D01*
X130886904Y-125531009D02*
X130934523Y-125626247D01*
X130934523Y-125626247D02*
X130934523Y-125864342D01*
X130934523Y-125864342D02*
X130886904Y-125959580D01*
X130886904Y-125959580D02*
X130839285Y-126007200D01*
X130839285Y-126007200D02*
X130744047Y-126054819D01*
X130744047Y-126054819D02*
X130505952Y-126054819D01*
X130505952Y-126054819D02*
X130410714Y-126007200D01*
X130410714Y-126007200D02*
X130363095Y-125959580D01*
X131315476Y-125150057D02*
X131363095Y-125102438D01*
X131363095Y-125102438D02*
X131458333Y-125054819D01*
X131458333Y-125054819D02*
X131696428Y-125054819D01*
X131696428Y-125054819D02*
X131791666Y-125102438D01*
X131791666Y-125102438D02*
X131839285Y-125150057D01*
X131839285Y-125150057D02*
X131886904Y-125245295D01*
X131886904Y-125245295D02*
X131886904Y-125340533D01*
X131886904Y-125340533D02*
X131839285Y-125483390D01*
X131839285Y-125483390D02*
X131267857Y-126054819D01*
X131267857Y-126054819D02*
X131886904Y-126054819D01*
X141910714Y-88554819D02*
X141910714Y-87554819D01*
X141910714Y-87554819D02*
X142148809Y-87554819D01*
X142148809Y-87554819D02*
X142291666Y-87602438D01*
X142291666Y-87602438D02*
X142386904Y-87697676D01*
X142386904Y-87697676D02*
X142434523Y-87792914D01*
X142434523Y-87792914D02*
X142482142Y-87983390D01*
X142482142Y-87983390D02*
X142482142Y-88126247D01*
X142482142Y-88126247D02*
X142434523Y-88316723D01*
X142434523Y-88316723D02*
X142386904Y-88411961D01*
X142386904Y-88411961D02*
X142291666Y-88507200D01*
X142291666Y-88507200D02*
X142148809Y-88554819D01*
X142148809Y-88554819D02*
X141910714Y-88554819D01*
X142863095Y-87650057D02*
X142910714Y-87602438D01*
X142910714Y-87602438D02*
X143005952Y-87554819D01*
X143005952Y-87554819D02*
X143244047Y-87554819D01*
X143244047Y-87554819D02*
X143339285Y-87602438D01*
X143339285Y-87602438D02*
X143386904Y-87650057D01*
X143386904Y-87650057D02*
X143434523Y-87745295D01*
X143434523Y-87745295D02*
X143434523Y-87840533D01*
X143434523Y-87840533D02*
X143386904Y-87983390D01*
X143386904Y-87983390D02*
X142815476Y-88554819D01*
X142815476Y-88554819D02*
X143434523Y-88554819D01*
X143910714Y-88554819D02*
X144101190Y-88554819D01*
X144101190Y-88554819D02*
X144196428Y-88507200D01*
X144196428Y-88507200D02*
X144244047Y-88459580D01*
X144244047Y-88459580D02*
X144339285Y-88316723D01*
X144339285Y-88316723D02*
X144386904Y-88126247D01*
X144386904Y-88126247D02*
X144386904Y-87745295D01*
X144386904Y-87745295D02*
X144339285Y-87650057D01*
X144339285Y-87650057D02*
X144291666Y-87602438D01*
X144291666Y-87602438D02*
X144196428Y-87554819D01*
X144196428Y-87554819D02*
X144005952Y-87554819D01*
X144005952Y-87554819D02*
X143910714Y-87602438D01*
X143910714Y-87602438D02*
X143863095Y-87650057D01*
X143863095Y-87650057D02*
X143815476Y-87745295D01*
X143815476Y-87745295D02*
X143815476Y-87983390D01*
X143815476Y-87983390D02*
X143863095Y-88078628D01*
X143863095Y-88078628D02*
X143910714Y-88126247D01*
X143910714Y-88126247D02*
X144005952Y-88173866D01*
X144005952Y-88173866D02*
X144196428Y-88173866D01*
X144196428Y-88173866D02*
X144291666Y-88126247D01*
X144291666Y-88126247D02*
X144339285Y-88078628D01*
X144339285Y-88078628D02*
X144386904Y-87983390D01*
X192386905Y-51054819D02*
X192386905Y-50054819D01*
X192386905Y-50054819D02*
X192625000Y-50054819D01*
X192625000Y-50054819D02*
X192767857Y-50102438D01*
X192767857Y-50102438D02*
X192863095Y-50197676D01*
X192863095Y-50197676D02*
X192910714Y-50292914D01*
X192910714Y-50292914D02*
X192958333Y-50483390D01*
X192958333Y-50483390D02*
X192958333Y-50626247D01*
X192958333Y-50626247D02*
X192910714Y-50816723D01*
X192910714Y-50816723D02*
X192863095Y-50911961D01*
X192863095Y-50911961D02*
X192767857Y-51007200D01*
X192767857Y-51007200D02*
X192625000Y-51054819D01*
X192625000Y-51054819D02*
X192386905Y-51054819D01*
X193434524Y-51054819D02*
X193625000Y-51054819D01*
X193625000Y-51054819D02*
X193720238Y-51007200D01*
X193720238Y-51007200D02*
X193767857Y-50959580D01*
X193767857Y-50959580D02*
X193863095Y-50816723D01*
X193863095Y-50816723D02*
X193910714Y-50626247D01*
X193910714Y-50626247D02*
X193910714Y-50245295D01*
X193910714Y-50245295D02*
X193863095Y-50150057D01*
X193863095Y-50150057D02*
X193815476Y-50102438D01*
X193815476Y-50102438D02*
X193720238Y-50054819D01*
X193720238Y-50054819D02*
X193529762Y-50054819D01*
X193529762Y-50054819D02*
X193434524Y-50102438D01*
X193434524Y-50102438D02*
X193386905Y-50150057D01*
X193386905Y-50150057D02*
X193339286Y-50245295D01*
X193339286Y-50245295D02*
X193339286Y-50483390D01*
X193339286Y-50483390D02*
X193386905Y-50578628D01*
X193386905Y-50578628D02*
X193434524Y-50626247D01*
X193434524Y-50626247D02*
X193529762Y-50673866D01*
X193529762Y-50673866D02*
X193720238Y-50673866D01*
X193720238Y-50673866D02*
X193815476Y-50626247D01*
X193815476Y-50626247D02*
X193863095Y-50578628D01*
X193863095Y-50578628D02*
X193910714Y-50483390D01*
X154410714Y-126054819D02*
X154410714Y-125054819D01*
X154410714Y-125054819D02*
X154648809Y-125054819D01*
X154648809Y-125054819D02*
X154791666Y-125102438D01*
X154791666Y-125102438D02*
X154886904Y-125197676D01*
X154886904Y-125197676D02*
X154934523Y-125292914D01*
X154934523Y-125292914D02*
X154982142Y-125483390D01*
X154982142Y-125483390D02*
X154982142Y-125626247D01*
X154982142Y-125626247D02*
X154934523Y-125816723D01*
X154934523Y-125816723D02*
X154886904Y-125911961D01*
X154886904Y-125911961D02*
X154791666Y-126007200D01*
X154791666Y-126007200D02*
X154648809Y-126054819D01*
X154648809Y-126054819D02*
X154410714Y-126054819D01*
X155886904Y-125054819D02*
X155410714Y-125054819D01*
X155410714Y-125054819D02*
X155363095Y-125531009D01*
X155363095Y-125531009D02*
X155410714Y-125483390D01*
X155410714Y-125483390D02*
X155505952Y-125435771D01*
X155505952Y-125435771D02*
X155744047Y-125435771D01*
X155744047Y-125435771D02*
X155839285Y-125483390D01*
X155839285Y-125483390D02*
X155886904Y-125531009D01*
X155886904Y-125531009D02*
X155934523Y-125626247D01*
X155934523Y-125626247D02*
X155934523Y-125864342D01*
X155934523Y-125864342D02*
X155886904Y-125959580D01*
X155886904Y-125959580D02*
X155839285Y-126007200D01*
X155839285Y-126007200D02*
X155744047Y-126054819D01*
X155744047Y-126054819D02*
X155505952Y-126054819D01*
X155505952Y-126054819D02*
X155410714Y-126007200D01*
X155410714Y-126007200D02*
X155363095Y-125959580D01*
X156791666Y-125388152D02*
X156791666Y-126054819D01*
X156553571Y-125007200D02*
X156315476Y-125721485D01*
X156315476Y-125721485D02*
X156934523Y-125721485D01*
X104410714Y-88554819D02*
X104410714Y-87554819D01*
X104410714Y-87554819D02*
X104648809Y-87554819D01*
X104648809Y-87554819D02*
X104791666Y-87602438D01*
X104791666Y-87602438D02*
X104886904Y-87697676D01*
X104886904Y-87697676D02*
X104934523Y-87792914D01*
X104934523Y-87792914D02*
X104982142Y-87983390D01*
X104982142Y-87983390D02*
X104982142Y-88126247D01*
X104982142Y-88126247D02*
X104934523Y-88316723D01*
X104934523Y-88316723D02*
X104886904Y-88411961D01*
X104886904Y-88411961D02*
X104791666Y-88507200D01*
X104791666Y-88507200D02*
X104648809Y-88554819D01*
X104648809Y-88554819D02*
X104410714Y-88554819D01*
X105363095Y-87650057D02*
X105410714Y-87602438D01*
X105410714Y-87602438D02*
X105505952Y-87554819D01*
X105505952Y-87554819D02*
X105744047Y-87554819D01*
X105744047Y-87554819D02*
X105839285Y-87602438D01*
X105839285Y-87602438D02*
X105886904Y-87650057D01*
X105886904Y-87650057D02*
X105934523Y-87745295D01*
X105934523Y-87745295D02*
X105934523Y-87840533D01*
X105934523Y-87840533D02*
X105886904Y-87983390D01*
X105886904Y-87983390D02*
X105315476Y-88554819D01*
X105315476Y-88554819D02*
X105934523Y-88554819D01*
X106791666Y-87554819D02*
X106601190Y-87554819D01*
X106601190Y-87554819D02*
X106505952Y-87602438D01*
X106505952Y-87602438D02*
X106458333Y-87650057D01*
X106458333Y-87650057D02*
X106363095Y-87792914D01*
X106363095Y-87792914D02*
X106315476Y-87983390D01*
X106315476Y-87983390D02*
X106315476Y-88364342D01*
X106315476Y-88364342D02*
X106363095Y-88459580D01*
X106363095Y-88459580D02*
X106410714Y-88507200D01*
X106410714Y-88507200D02*
X106505952Y-88554819D01*
X106505952Y-88554819D02*
X106696428Y-88554819D01*
X106696428Y-88554819D02*
X106791666Y-88507200D01*
X106791666Y-88507200D02*
X106839285Y-88459580D01*
X106839285Y-88459580D02*
X106886904Y-88364342D01*
X106886904Y-88364342D02*
X106886904Y-88126247D01*
X106886904Y-88126247D02*
X106839285Y-88031009D01*
X106839285Y-88031009D02*
X106791666Y-87983390D01*
X106791666Y-87983390D02*
X106696428Y-87935771D01*
X106696428Y-87935771D02*
X106505952Y-87935771D01*
X106505952Y-87935771D02*
X106410714Y-87983390D01*
X106410714Y-87983390D02*
X106363095Y-88031009D01*
X106363095Y-88031009D02*
X106315476Y-88126247D01*
X179886905Y-51054819D02*
X179886905Y-50054819D01*
X179886905Y-50054819D02*
X180125000Y-50054819D01*
X180125000Y-50054819D02*
X180267857Y-50102438D01*
X180267857Y-50102438D02*
X180363095Y-50197676D01*
X180363095Y-50197676D02*
X180410714Y-50292914D01*
X180410714Y-50292914D02*
X180458333Y-50483390D01*
X180458333Y-50483390D02*
X180458333Y-50626247D01*
X180458333Y-50626247D02*
X180410714Y-50816723D01*
X180410714Y-50816723D02*
X180363095Y-50911961D01*
X180363095Y-50911961D02*
X180267857Y-51007200D01*
X180267857Y-51007200D02*
X180125000Y-51054819D01*
X180125000Y-51054819D02*
X179886905Y-51054819D01*
X181029762Y-50483390D02*
X180934524Y-50435771D01*
X180934524Y-50435771D02*
X180886905Y-50388152D01*
X180886905Y-50388152D02*
X180839286Y-50292914D01*
X180839286Y-50292914D02*
X180839286Y-50245295D01*
X180839286Y-50245295D02*
X180886905Y-50150057D01*
X180886905Y-50150057D02*
X180934524Y-50102438D01*
X180934524Y-50102438D02*
X181029762Y-50054819D01*
X181029762Y-50054819D02*
X181220238Y-50054819D01*
X181220238Y-50054819D02*
X181315476Y-50102438D01*
X181315476Y-50102438D02*
X181363095Y-50150057D01*
X181363095Y-50150057D02*
X181410714Y-50245295D01*
X181410714Y-50245295D02*
X181410714Y-50292914D01*
X181410714Y-50292914D02*
X181363095Y-50388152D01*
X181363095Y-50388152D02*
X181315476Y-50435771D01*
X181315476Y-50435771D02*
X181220238Y-50483390D01*
X181220238Y-50483390D02*
X181029762Y-50483390D01*
X181029762Y-50483390D02*
X180934524Y-50531009D01*
X180934524Y-50531009D02*
X180886905Y-50578628D01*
X180886905Y-50578628D02*
X180839286Y-50673866D01*
X180839286Y-50673866D02*
X180839286Y-50864342D01*
X180839286Y-50864342D02*
X180886905Y-50959580D01*
X180886905Y-50959580D02*
X180934524Y-51007200D01*
X180934524Y-51007200D02*
X181029762Y-51054819D01*
X181029762Y-51054819D02*
X181220238Y-51054819D01*
X181220238Y-51054819D02*
X181315476Y-51007200D01*
X181315476Y-51007200D02*
X181363095Y-50959580D01*
X181363095Y-50959580D02*
X181410714Y-50864342D01*
X181410714Y-50864342D02*
X181410714Y-50673866D01*
X181410714Y-50673866D02*
X181363095Y-50578628D01*
X181363095Y-50578628D02*
X181315476Y-50531009D01*
X181315476Y-50531009D02*
X181220238Y-50483390D01*
X179410714Y-76054819D02*
X179410714Y-75054819D01*
X179410714Y-75054819D02*
X179648809Y-75054819D01*
X179648809Y-75054819D02*
X179791666Y-75102438D01*
X179791666Y-75102438D02*
X179886904Y-75197676D01*
X179886904Y-75197676D02*
X179934523Y-75292914D01*
X179934523Y-75292914D02*
X179982142Y-75483390D01*
X179982142Y-75483390D02*
X179982142Y-75626247D01*
X179982142Y-75626247D02*
X179934523Y-75816723D01*
X179934523Y-75816723D02*
X179886904Y-75911961D01*
X179886904Y-75911961D02*
X179791666Y-76007200D01*
X179791666Y-76007200D02*
X179648809Y-76054819D01*
X179648809Y-76054819D02*
X179410714Y-76054819D01*
X180363095Y-75150057D02*
X180410714Y-75102438D01*
X180410714Y-75102438D02*
X180505952Y-75054819D01*
X180505952Y-75054819D02*
X180744047Y-75054819D01*
X180744047Y-75054819D02*
X180839285Y-75102438D01*
X180839285Y-75102438D02*
X180886904Y-75150057D01*
X180886904Y-75150057D02*
X180934523Y-75245295D01*
X180934523Y-75245295D02*
X180934523Y-75340533D01*
X180934523Y-75340533D02*
X180886904Y-75483390D01*
X180886904Y-75483390D02*
X180315476Y-76054819D01*
X180315476Y-76054819D02*
X180934523Y-76054819D01*
X181791666Y-75388152D02*
X181791666Y-76054819D01*
X181553571Y-75007200D02*
X181315476Y-75721485D01*
X181315476Y-75721485D02*
X181934523Y-75721485D01*
X129410714Y-76054819D02*
X129410714Y-75054819D01*
X129410714Y-75054819D02*
X129648809Y-75054819D01*
X129648809Y-75054819D02*
X129791666Y-75102438D01*
X129791666Y-75102438D02*
X129886904Y-75197676D01*
X129886904Y-75197676D02*
X129934523Y-75292914D01*
X129934523Y-75292914D02*
X129982142Y-75483390D01*
X129982142Y-75483390D02*
X129982142Y-75626247D01*
X129982142Y-75626247D02*
X129934523Y-75816723D01*
X129934523Y-75816723D02*
X129886904Y-75911961D01*
X129886904Y-75911961D02*
X129791666Y-76007200D01*
X129791666Y-76007200D02*
X129648809Y-76054819D01*
X129648809Y-76054819D02*
X129410714Y-76054819D01*
X130363095Y-75150057D02*
X130410714Y-75102438D01*
X130410714Y-75102438D02*
X130505952Y-75054819D01*
X130505952Y-75054819D02*
X130744047Y-75054819D01*
X130744047Y-75054819D02*
X130839285Y-75102438D01*
X130839285Y-75102438D02*
X130886904Y-75150057D01*
X130886904Y-75150057D02*
X130934523Y-75245295D01*
X130934523Y-75245295D02*
X130934523Y-75340533D01*
X130934523Y-75340533D02*
X130886904Y-75483390D01*
X130886904Y-75483390D02*
X130315476Y-76054819D01*
X130315476Y-76054819D02*
X130934523Y-76054819D01*
X131553571Y-75054819D02*
X131648809Y-75054819D01*
X131648809Y-75054819D02*
X131744047Y-75102438D01*
X131744047Y-75102438D02*
X131791666Y-75150057D01*
X131791666Y-75150057D02*
X131839285Y-75245295D01*
X131839285Y-75245295D02*
X131886904Y-75435771D01*
X131886904Y-75435771D02*
X131886904Y-75673866D01*
X131886904Y-75673866D02*
X131839285Y-75864342D01*
X131839285Y-75864342D02*
X131791666Y-75959580D01*
X131791666Y-75959580D02*
X131744047Y-76007200D01*
X131744047Y-76007200D02*
X131648809Y-76054819D01*
X131648809Y-76054819D02*
X131553571Y-76054819D01*
X131553571Y-76054819D02*
X131458333Y-76007200D01*
X131458333Y-76007200D02*
X131410714Y-75959580D01*
X131410714Y-75959580D02*
X131363095Y-75864342D01*
X131363095Y-75864342D02*
X131315476Y-75673866D01*
X131315476Y-75673866D02*
X131315476Y-75435771D01*
X131315476Y-75435771D02*
X131363095Y-75245295D01*
X131363095Y-75245295D02*
X131410714Y-75150057D01*
X131410714Y-75150057D02*
X131458333Y-75102438D01*
X131458333Y-75102438D02*
X131553571Y-75054819D01*
X116910714Y-126054819D02*
X116910714Y-125054819D01*
X116910714Y-125054819D02*
X117148809Y-125054819D01*
X117148809Y-125054819D02*
X117291666Y-125102438D01*
X117291666Y-125102438D02*
X117386904Y-125197676D01*
X117386904Y-125197676D02*
X117434523Y-125292914D01*
X117434523Y-125292914D02*
X117482142Y-125483390D01*
X117482142Y-125483390D02*
X117482142Y-125626247D01*
X117482142Y-125626247D02*
X117434523Y-125816723D01*
X117434523Y-125816723D02*
X117386904Y-125911961D01*
X117386904Y-125911961D02*
X117291666Y-126007200D01*
X117291666Y-126007200D02*
X117148809Y-126054819D01*
X117148809Y-126054819D02*
X116910714Y-126054819D01*
X118386904Y-125054819D02*
X117910714Y-125054819D01*
X117910714Y-125054819D02*
X117863095Y-125531009D01*
X117863095Y-125531009D02*
X117910714Y-125483390D01*
X117910714Y-125483390D02*
X118005952Y-125435771D01*
X118005952Y-125435771D02*
X118244047Y-125435771D01*
X118244047Y-125435771D02*
X118339285Y-125483390D01*
X118339285Y-125483390D02*
X118386904Y-125531009D01*
X118386904Y-125531009D02*
X118434523Y-125626247D01*
X118434523Y-125626247D02*
X118434523Y-125864342D01*
X118434523Y-125864342D02*
X118386904Y-125959580D01*
X118386904Y-125959580D02*
X118339285Y-126007200D01*
X118339285Y-126007200D02*
X118244047Y-126054819D01*
X118244047Y-126054819D02*
X118005952Y-126054819D01*
X118005952Y-126054819D02*
X117910714Y-126007200D01*
X117910714Y-126007200D02*
X117863095Y-125959580D01*
X119386904Y-126054819D02*
X118815476Y-126054819D01*
X119101190Y-126054819D02*
X119101190Y-125054819D01*
X119101190Y-125054819D02*
X119005952Y-125197676D01*
X119005952Y-125197676D02*
X118910714Y-125292914D01*
X118910714Y-125292914D02*
X118815476Y-125340533D01*
X179410714Y-88554819D02*
X179410714Y-87554819D01*
X179410714Y-87554819D02*
X179648809Y-87554819D01*
X179648809Y-87554819D02*
X179791666Y-87602438D01*
X179791666Y-87602438D02*
X179886904Y-87697676D01*
X179886904Y-87697676D02*
X179934523Y-87792914D01*
X179934523Y-87792914D02*
X179982142Y-87983390D01*
X179982142Y-87983390D02*
X179982142Y-88126247D01*
X179982142Y-88126247D02*
X179934523Y-88316723D01*
X179934523Y-88316723D02*
X179886904Y-88411961D01*
X179886904Y-88411961D02*
X179791666Y-88507200D01*
X179791666Y-88507200D02*
X179648809Y-88554819D01*
X179648809Y-88554819D02*
X179410714Y-88554819D01*
X180315476Y-87554819D02*
X180934523Y-87554819D01*
X180934523Y-87554819D02*
X180601190Y-87935771D01*
X180601190Y-87935771D02*
X180744047Y-87935771D01*
X180744047Y-87935771D02*
X180839285Y-87983390D01*
X180839285Y-87983390D02*
X180886904Y-88031009D01*
X180886904Y-88031009D02*
X180934523Y-88126247D01*
X180934523Y-88126247D02*
X180934523Y-88364342D01*
X180934523Y-88364342D02*
X180886904Y-88459580D01*
X180886904Y-88459580D02*
X180839285Y-88507200D01*
X180839285Y-88507200D02*
X180744047Y-88554819D01*
X180744047Y-88554819D02*
X180458333Y-88554819D01*
X180458333Y-88554819D02*
X180363095Y-88507200D01*
X180363095Y-88507200D02*
X180315476Y-88459580D01*
X181315476Y-87650057D02*
X181363095Y-87602438D01*
X181363095Y-87602438D02*
X181458333Y-87554819D01*
X181458333Y-87554819D02*
X181696428Y-87554819D01*
X181696428Y-87554819D02*
X181791666Y-87602438D01*
X181791666Y-87602438D02*
X181839285Y-87650057D01*
X181839285Y-87650057D02*
X181886904Y-87745295D01*
X181886904Y-87745295D02*
X181886904Y-87840533D01*
X181886904Y-87840533D02*
X181839285Y-87983390D01*
X181839285Y-87983390D02*
X181267857Y-88554819D01*
X181267857Y-88554819D02*
X181886904Y-88554819D01*
X129410714Y-63554819D02*
X129410714Y-62554819D01*
X129410714Y-62554819D02*
X129648809Y-62554819D01*
X129648809Y-62554819D02*
X129791666Y-62602438D01*
X129791666Y-62602438D02*
X129886904Y-62697676D01*
X129886904Y-62697676D02*
X129934523Y-62792914D01*
X129934523Y-62792914D02*
X129982142Y-62983390D01*
X129982142Y-62983390D02*
X129982142Y-63126247D01*
X129982142Y-63126247D02*
X129934523Y-63316723D01*
X129934523Y-63316723D02*
X129886904Y-63411961D01*
X129886904Y-63411961D02*
X129791666Y-63507200D01*
X129791666Y-63507200D02*
X129648809Y-63554819D01*
X129648809Y-63554819D02*
X129410714Y-63554819D01*
X130934523Y-63554819D02*
X130363095Y-63554819D01*
X130648809Y-63554819D02*
X130648809Y-62554819D01*
X130648809Y-62554819D02*
X130553571Y-62697676D01*
X130553571Y-62697676D02*
X130458333Y-62792914D01*
X130458333Y-62792914D02*
X130363095Y-62840533D01*
X131315476Y-62650057D02*
X131363095Y-62602438D01*
X131363095Y-62602438D02*
X131458333Y-62554819D01*
X131458333Y-62554819D02*
X131696428Y-62554819D01*
X131696428Y-62554819D02*
X131791666Y-62602438D01*
X131791666Y-62602438D02*
X131839285Y-62650057D01*
X131839285Y-62650057D02*
X131886904Y-62745295D01*
X131886904Y-62745295D02*
X131886904Y-62840533D01*
X131886904Y-62840533D02*
X131839285Y-62983390D01*
X131839285Y-62983390D02*
X131267857Y-63554819D01*
X131267857Y-63554819D02*
X131886904Y-63554819D01*
X194888333Y-50983980D02*
X194840714Y-51031600D01*
X194840714Y-51031600D02*
X194697857Y-51079219D01*
X194697857Y-51079219D02*
X194602619Y-51079219D01*
X194602619Y-51079219D02*
X194459762Y-51031600D01*
X194459762Y-51031600D02*
X194364524Y-50936361D01*
X194364524Y-50936361D02*
X194316905Y-50841123D01*
X194316905Y-50841123D02*
X194269286Y-50650647D01*
X194269286Y-50650647D02*
X194269286Y-50507790D01*
X194269286Y-50507790D02*
X194316905Y-50317314D01*
X194316905Y-50317314D02*
X194364524Y-50222076D01*
X194364524Y-50222076D02*
X194459762Y-50126838D01*
X194459762Y-50126838D02*
X194602619Y-50079219D01*
X194602619Y-50079219D02*
X194697857Y-50079219D01*
X194697857Y-50079219D02*
X194840714Y-50126838D01*
X194840714Y-50126838D02*
X194888333Y-50174457D01*
X195745476Y-50079219D02*
X195555000Y-50079219D01*
X195555000Y-50079219D02*
X195459762Y-50126838D01*
X195459762Y-50126838D02*
X195412143Y-50174457D01*
X195412143Y-50174457D02*
X195316905Y-50317314D01*
X195316905Y-50317314D02*
X195269286Y-50507790D01*
X195269286Y-50507790D02*
X195269286Y-50888742D01*
X195269286Y-50888742D02*
X195316905Y-50983980D01*
X195316905Y-50983980D02*
X195364524Y-51031600D01*
X195364524Y-51031600D02*
X195459762Y-51079219D01*
X195459762Y-51079219D02*
X195650238Y-51079219D01*
X195650238Y-51079219D02*
X195745476Y-51031600D01*
X195745476Y-51031600D02*
X195793095Y-50983980D01*
X195793095Y-50983980D02*
X195840714Y-50888742D01*
X195840714Y-50888742D02*
X195840714Y-50650647D01*
X195840714Y-50650647D02*
X195793095Y-50555409D01*
X195793095Y-50555409D02*
X195745476Y-50507790D01*
X195745476Y-50507790D02*
X195650238Y-50460171D01*
X195650238Y-50460171D02*
X195459762Y-50460171D01*
X195459762Y-50460171D02*
X195364524Y-50507790D01*
X195364524Y-50507790D02*
X195316905Y-50555409D01*
X195316905Y-50555409D02*
X195269286Y-50650647D01*
X129410714Y-138554819D02*
X129410714Y-137554819D01*
X129410714Y-137554819D02*
X129648809Y-137554819D01*
X129648809Y-137554819D02*
X129791666Y-137602438D01*
X129791666Y-137602438D02*
X129886904Y-137697676D01*
X129886904Y-137697676D02*
X129934523Y-137792914D01*
X129934523Y-137792914D02*
X129982142Y-137983390D01*
X129982142Y-137983390D02*
X129982142Y-138126247D01*
X129982142Y-138126247D02*
X129934523Y-138316723D01*
X129934523Y-138316723D02*
X129886904Y-138411961D01*
X129886904Y-138411961D02*
X129791666Y-138507200D01*
X129791666Y-138507200D02*
X129648809Y-138554819D01*
X129648809Y-138554819D02*
X129410714Y-138554819D01*
X130839285Y-137554819D02*
X130648809Y-137554819D01*
X130648809Y-137554819D02*
X130553571Y-137602438D01*
X130553571Y-137602438D02*
X130505952Y-137650057D01*
X130505952Y-137650057D02*
X130410714Y-137792914D01*
X130410714Y-137792914D02*
X130363095Y-137983390D01*
X130363095Y-137983390D02*
X130363095Y-138364342D01*
X130363095Y-138364342D02*
X130410714Y-138459580D01*
X130410714Y-138459580D02*
X130458333Y-138507200D01*
X130458333Y-138507200D02*
X130553571Y-138554819D01*
X130553571Y-138554819D02*
X130744047Y-138554819D01*
X130744047Y-138554819D02*
X130839285Y-138507200D01*
X130839285Y-138507200D02*
X130886904Y-138459580D01*
X130886904Y-138459580D02*
X130934523Y-138364342D01*
X130934523Y-138364342D02*
X130934523Y-138126247D01*
X130934523Y-138126247D02*
X130886904Y-138031009D01*
X130886904Y-138031009D02*
X130839285Y-137983390D01*
X130839285Y-137983390D02*
X130744047Y-137935771D01*
X130744047Y-137935771D02*
X130553571Y-137935771D01*
X130553571Y-137935771D02*
X130458333Y-137983390D01*
X130458333Y-137983390D02*
X130410714Y-138031009D01*
X130410714Y-138031009D02*
X130363095Y-138126247D01*
X131553571Y-137554819D02*
X131648809Y-137554819D01*
X131648809Y-137554819D02*
X131744047Y-137602438D01*
X131744047Y-137602438D02*
X131791666Y-137650057D01*
X131791666Y-137650057D02*
X131839285Y-137745295D01*
X131839285Y-137745295D02*
X131886904Y-137935771D01*
X131886904Y-137935771D02*
X131886904Y-138173866D01*
X131886904Y-138173866D02*
X131839285Y-138364342D01*
X131839285Y-138364342D02*
X131791666Y-138459580D01*
X131791666Y-138459580D02*
X131744047Y-138507200D01*
X131744047Y-138507200D02*
X131648809Y-138554819D01*
X131648809Y-138554819D02*
X131553571Y-138554819D01*
X131553571Y-138554819D02*
X131458333Y-138507200D01*
X131458333Y-138507200D02*
X131410714Y-138459580D01*
X131410714Y-138459580D02*
X131363095Y-138364342D01*
X131363095Y-138364342D02*
X131315476Y-138173866D01*
X131315476Y-138173866D02*
X131315476Y-137935771D01*
X131315476Y-137935771D02*
X131363095Y-137745295D01*
X131363095Y-137745295D02*
X131410714Y-137650057D01*
X131410714Y-137650057D02*
X131458333Y-137602438D01*
X131458333Y-137602438D02*
X131553571Y-137554819D01*
X166910714Y-126054819D02*
X166910714Y-125054819D01*
X166910714Y-125054819D02*
X167148809Y-125054819D01*
X167148809Y-125054819D02*
X167291666Y-125102438D01*
X167291666Y-125102438D02*
X167386904Y-125197676D01*
X167386904Y-125197676D02*
X167434523Y-125292914D01*
X167434523Y-125292914D02*
X167482142Y-125483390D01*
X167482142Y-125483390D02*
X167482142Y-125626247D01*
X167482142Y-125626247D02*
X167434523Y-125816723D01*
X167434523Y-125816723D02*
X167386904Y-125911961D01*
X167386904Y-125911961D02*
X167291666Y-126007200D01*
X167291666Y-126007200D02*
X167148809Y-126054819D01*
X167148809Y-126054819D02*
X166910714Y-126054819D01*
X168386904Y-125054819D02*
X167910714Y-125054819D01*
X167910714Y-125054819D02*
X167863095Y-125531009D01*
X167863095Y-125531009D02*
X167910714Y-125483390D01*
X167910714Y-125483390D02*
X168005952Y-125435771D01*
X168005952Y-125435771D02*
X168244047Y-125435771D01*
X168244047Y-125435771D02*
X168339285Y-125483390D01*
X168339285Y-125483390D02*
X168386904Y-125531009D01*
X168386904Y-125531009D02*
X168434523Y-125626247D01*
X168434523Y-125626247D02*
X168434523Y-125864342D01*
X168434523Y-125864342D02*
X168386904Y-125959580D01*
X168386904Y-125959580D02*
X168339285Y-126007200D01*
X168339285Y-126007200D02*
X168244047Y-126054819D01*
X168244047Y-126054819D02*
X168005952Y-126054819D01*
X168005952Y-126054819D02*
X167910714Y-126007200D01*
X167910714Y-126007200D02*
X167863095Y-125959580D01*
X169339285Y-125054819D02*
X168863095Y-125054819D01*
X168863095Y-125054819D02*
X168815476Y-125531009D01*
X168815476Y-125531009D02*
X168863095Y-125483390D01*
X168863095Y-125483390D02*
X168958333Y-125435771D01*
X168958333Y-125435771D02*
X169196428Y-125435771D01*
X169196428Y-125435771D02*
X169291666Y-125483390D01*
X169291666Y-125483390D02*
X169339285Y-125531009D01*
X169339285Y-125531009D02*
X169386904Y-125626247D01*
X169386904Y-125626247D02*
X169386904Y-125864342D01*
X169386904Y-125864342D02*
X169339285Y-125959580D01*
X169339285Y-125959580D02*
X169291666Y-126007200D01*
X169291666Y-126007200D02*
X169196428Y-126054819D01*
X169196428Y-126054819D02*
X168958333Y-126054819D01*
X168958333Y-126054819D02*
X168863095Y-126007200D01*
X168863095Y-126007200D02*
X168815476Y-125959580D01*
X197682333Y-53193780D02*
X197634714Y-53241400D01*
X197634714Y-53241400D02*
X197491857Y-53289019D01*
X197491857Y-53289019D02*
X197396619Y-53289019D01*
X197396619Y-53289019D02*
X197253762Y-53241400D01*
X197253762Y-53241400D02*
X197158524Y-53146161D01*
X197158524Y-53146161D02*
X197110905Y-53050923D01*
X197110905Y-53050923D02*
X197063286Y-52860447D01*
X197063286Y-52860447D02*
X197063286Y-52717590D01*
X197063286Y-52717590D02*
X197110905Y-52527114D01*
X197110905Y-52527114D02*
X197158524Y-52431876D01*
X197158524Y-52431876D02*
X197253762Y-52336638D01*
X197253762Y-52336638D02*
X197396619Y-52289019D01*
X197396619Y-52289019D02*
X197491857Y-52289019D01*
X197491857Y-52289019D02*
X197634714Y-52336638D01*
X197634714Y-52336638D02*
X197682333Y-52384257D01*
X198587095Y-52289019D02*
X198110905Y-52289019D01*
X198110905Y-52289019D02*
X198063286Y-52765209D01*
X198063286Y-52765209D02*
X198110905Y-52717590D01*
X198110905Y-52717590D02*
X198206143Y-52669971D01*
X198206143Y-52669971D02*
X198444238Y-52669971D01*
X198444238Y-52669971D02*
X198539476Y-52717590D01*
X198539476Y-52717590D02*
X198587095Y-52765209D01*
X198587095Y-52765209D02*
X198634714Y-52860447D01*
X198634714Y-52860447D02*
X198634714Y-53098542D01*
X198634714Y-53098542D02*
X198587095Y-53193780D01*
X198587095Y-53193780D02*
X198539476Y-53241400D01*
X198539476Y-53241400D02*
X198444238Y-53289019D01*
X198444238Y-53289019D02*
X198206143Y-53289019D01*
X198206143Y-53289019D02*
X198110905Y-53241400D01*
X198110905Y-53241400D02*
X198063286Y-53193780D01*
X166910714Y-76054819D02*
X166910714Y-75054819D01*
X166910714Y-75054819D02*
X167148809Y-75054819D01*
X167148809Y-75054819D02*
X167291666Y-75102438D01*
X167291666Y-75102438D02*
X167386904Y-75197676D01*
X167386904Y-75197676D02*
X167434523Y-75292914D01*
X167434523Y-75292914D02*
X167482142Y-75483390D01*
X167482142Y-75483390D02*
X167482142Y-75626247D01*
X167482142Y-75626247D02*
X167434523Y-75816723D01*
X167434523Y-75816723D02*
X167386904Y-75911961D01*
X167386904Y-75911961D02*
X167291666Y-76007200D01*
X167291666Y-76007200D02*
X167148809Y-76054819D01*
X167148809Y-76054819D02*
X166910714Y-76054819D01*
X167863095Y-75150057D02*
X167910714Y-75102438D01*
X167910714Y-75102438D02*
X168005952Y-75054819D01*
X168005952Y-75054819D02*
X168244047Y-75054819D01*
X168244047Y-75054819D02*
X168339285Y-75102438D01*
X168339285Y-75102438D02*
X168386904Y-75150057D01*
X168386904Y-75150057D02*
X168434523Y-75245295D01*
X168434523Y-75245295D02*
X168434523Y-75340533D01*
X168434523Y-75340533D02*
X168386904Y-75483390D01*
X168386904Y-75483390D02*
X167815476Y-76054819D01*
X167815476Y-76054819D02*
X168434523Y-76054819D01*
X168767857Y-75054819D02*
X169386904Y-75054819D01*
X169386904Y-75054819D02*
X169053571Y-75435771D01*
X169053571Y-75435771D02*
X169196428Y-75435771D01*
X169196428Y-75435771D02*
X169291666Y-75483390D01*
X169291666Y-75483390D02*
X169339285Y-75531009D01*
X169339285Y-75531009D02*
X169386904Y-75626247D01*
X169386904Y-75626247D02*
X169386904Y-75864342D01*
X169386904Y-75864342D02*
X169339285Y-75959580D01*
X169339285Y-75959580D02*
X169291666Y-76007200D01*
X169291666Y-76007200D02*
X169196428Y-76054819D01*
X169196428Y-76054819D02*
X168910714Y-76054819D01*
X168910714Y-76054819D02*
X168815476Y-76007200D01*
X168815476Y-76007200D02*
X168767857Y-75959580D01*
X104886905Y-51054819D02*
X104886905Y-50054819D01*
X104886905Y-50054819D02*
X105125000Y-50054819D01*
X105125000Y-50054819D02*
X105267857Y-50102438D01*
X105267857Y-50102438D02*
X105363095Y-50197676D01*
X105363095Y-50197676D02*
X105410714Y-50292914D01*
X105410714Y-50292914D02*
X105458333Y-50483390D01*
X105458333Y-50483390D02*
X105458333Y-50626247D01*
X105458333Y-50626247D02*
X105410714Y-50816723D01*
X105410714Y-50816723D02*
X105363095Y-50911961D01*
X105363095Y-50911961D02*
X105267857Y-51007200D01*
X105267857Y-51007200D02*
X105125000Y-51054819D01*
X105125000Y-51054819D02*
X104886905Y-51054819D01*
X105839286Y-50150057D02*
X105886905Y-50102438D01*
X105886905Y-50102438D02*
X105982143Y-50054819D01*
X105982143Y-50054819D02*
X106220238Y-50054819D01*
X106220238Y-50054819D02*
X106315476Y-50102438D01*
X106315476Y-50102438D02*
X106363095Y-50150057D01*
X106363095Y-50150057D02*
X106410714Y-50245295D01*
X106410714Y-50245295D02*
X106410714Y-50340533D01*
X106410714Y-50340533D02*
X106363095Y-50483390D01*
X106363095Y-50483390D02*
X105791667Y-51054819D01*
X105791667Y-51054819D02*
X106410714Y-51054819D01*
X191910714Y-63554819D02*
X191910714Y-62554819D01*
X191910714Y-62554819D02*
X192148809Y-62554819D01*
X192148809Y-62554819D02*
X192291666Y-62602438D01*
X192291666Y-62602438D02*
X192386904Y-62697676D01*
X192386904Y-62697676D02*
X192434523Y-62792914D01*
X192434523Y-62792914D02*
X192482142Y-62983390D01*
X192482142Y-62983390D02*
X192482142Y-63126247D01*
X192482142Y-63126247D02*
X192434523Y-63316723D01*
X192434523Y-63316723D02*
X192386904Y-63411961D01*
X192386904Y-63411961D02*
X192291666Y-63507200D01*
X192291666Y-63507200D02*
X192148809Y-63554819D01*
X192148809Y-63554819D02*
X191910714Y-63554819D01*
X193434523Y-63554819D02*
X192863095Y-63554819D01*
X193148809Y-63554819D02*
X193148809Y-62554819D01*
X193148809Y-62554819D02*
X193053571Y-62697676D01*
X193053571Y-62697676D02*
X192958333Y-62792914D01*
X192958333Y-62792914D02*
X192863095Y-62840533D01*
X193767857Y-62554819D02*
X194434523Y-62554819D01*
X194434523Y-62554819D02*
X194005952Y-63554819D01*
X116910714Y-113554819D02*
X116910714Y-112554819D01*
X116910714Y-112554819D02*
X117148809Y-112554819D01*
X117148809Y-112554819D02*
X117291666Y-112602438D01*
X117291666Y-112602438D02*
X117386904Y-112697676D01*
X117386904Y-112697676D02*
X117434523Y-112792914D01*
X117434523Y-112792914D02*
X117482142Y-112983390D01*
X117482142Y-112983390D02*
X117482142Y-113126247D01*
X117482142Y-113126247D02*
X117434523Y-113316723D01*
X117434523Y-113316723D02*
X117386904Y-113411961D01*
X117386904Y-113411961D02*
X117291666Y-113507200D01*
X117291666Y-113507200D02*
X117148809Y-113554819D01*
X117148809Y-113554819D02*
X116910714Y-113554819D01*
X118339285Y-112888152D02*
X118339285Y-113554819D01*
X118101190Y-112507200D02*
X117863095Y-113221485D01*
X117863095Y-113221485D02*
X118482142Y-113221485D01*
X118767857Y-112554819D02*
X119386904Y-112554819D01*
X119386904Y-112554819D02*
X119053571Y-112935771D01*
X119053571Y-112935771D02*
X119196428Y-112935771D01*
X119196428Y-112935771D02*
X119291666Y-112983390D01*
X119291666Y-112983390D02*
X119339285Y-113031009D01*
X119339285Y-113031009D02*
X119386904Y-113126247D01*
X119386904Y-113126247D02*
X119386904Y-113364342D01*
X119386904Y-113364342D02*
X119339285Y-113459580D01*
X119339285Y-113459580D02*
X119291666Y-113507200D01*
X119291666Y-113507200D02*
X119196428Y-113554819D01*
X119196428Y-113554819D02*
X118910714Y-113554819D01*
X118910714Y-113554819D02*
X118815476Y-113507200D01*
X118815476Y-113507200D02*
X118767857Y-113459580D01*
X154410714Y-88554819D02*
X154410714Y-87554819D01*
X154410714Y-87554819D02*
X154648809Y-87554819D01*
X154648809Y-87554819D02*
X154791666Y-87602438D01*
X154791666Y-87602438D02*
X154886904Y-87697676D01*
X154886904Y-87697676D02*
X154934523Y-87792914D01*
X154934523Y-87792914D02*
X154982142Y-87983390D01*
X154982142Y-87983390D02*
X154982142Y-88126247D01*
X154982142Y-88126247D02*
X154934523Y-88316723D01*
X154934523Y-88316723D02*
X154886904Y-88411961D01*
X154886904Y-88411961D02*
X154791666Y-88507200D01*
X154791666Y-88507200D02*
X154648809Y-88554819D01*
X154648809Y-88554819D02*
X154410714Y-88554819D01*
X155315476Y-87554819D02*
X155934523Y-87554819D01*
X155934523Y-87554819D02*
X155601190Y-87935771D01*
X155601190Y-87935771D02*
X155744047Y-87935771D01*
X155744047Y-87935771D02*
X155839285Y-87983390D01*
X155839285Y-87983390D02*
X155886904Y-88031009D01*
X155886904Y-88031009D02*
X155934523Y-88126247D01*
X155934523Y-88126247D02*
X155934523Y-88364342D01*
X155934523Y-88364342D02*
X155886904Y-88459580D01*
X155886904Y-88459580D02*
X155839285Y-88507200D01*
X155839285Y-88507200D02*
X155744047Y-88554819D01*
X155744047Y-88554819D02*
X155458333Y-88554819D01*
X155458333Y-88554819D02*
X155363095Y-88507200D01*
X155363095Y-88507200D02*
X155315476Y-88459580D01*
X156553571Y-87554819D02*
X156648809Y-87554819D01*
X156648809Y-87554819D02*
X156744047Y-87602438D01*
X156744047Y-87602438D02*
X156791666Y-87650057D01*
X156791666Y-87650057D02*
X156839285Y-87745295D01*
X156839285Y-87745295D02*
X156886904Y-87935771D01*
X156886904Y-87935771D02*
X156886904Y-88173866D01*
X156886904Y-88173866D02*
X156839285Y-88364342D01*
X156839285Y-88364342D02*
X156791666Y-88459580D01*
X156791666Y-88459580D02*
X156744047Y-88507200D01*
X156744047Y-88507200D02*
X156648809Y-88554819D01*
X156648809Y-88554819D02*
X156553571Y-88554819D01*
X156553571Y-88554819D02*
X156458333Y-88507200D01*
X156458333Y-88507200D02*
X156410714Y-88459580D01*
X156410714Y-88459580D02*
X156363095Y-88364342D01*
X156363095Y-88364342D02*
X156315476Y-88173866D01*
X156315476Y-88173866D02*
X156315476Y-87935771D01*
X156315476Y-87935771D02*
X156363095Y-87745295D01*
X156363095Y-87745295D02*
X156410714Y-87650057D01*
X156410714Y-87650057D02*
X156458333Y-87602438D01*
X156458333Y-87602438D02*
X156553571Y-87554819D01*
D11*
%TO.C,D65*%
X191265000Y-138790000D02*
X191265000Y-140710000D01*
X191265000Y-140710000D02*
X194125000Y-140710000D01*
X194125000Y-138790000D02*
X191265000Y-138790000D01*
%TO.C,D15*%
X166265000Y-63790000D02*
X166265000Y-65710000D01*
X166265000Y-65710000D02*
X169125000Y-65710000D01*
X169125000Y-63790000D02*
X166265000Y-63790000D01*
%TO.C,D56*%
X178765000Y-126290000D02*
X178765000Y-128210000D01*
X178765000Y-128210000D02*
X181625000Y-128210000D01*
X181625000Y-126290000D02*
X178765000Y-126290000D01*
%TO.C,D25*%
X191265000Y-76290000D02*
X191265000Y-78210000D01*
X191265000Y-78210000D02*
X194125000Y-78210000D01*
X194125000Y-76290000D02*
X191265000Y-76290000D01*
%TO.C,D48*%
X178765000Y-113790000D02*
X178765000Y-115710000D01*
X178765000Y-115710000D02*
X181625000Y-115710000D01*
X181625000Y-113790000D02*
X178765000Y-113790000D01*
%TO.C,D13*%
X141265000Y-63790000D02*
X141265000Y-65710000D01*
X141265000Y-65710000D02*
X144125000Y-65710000D01*
X144125000Y-63790000D02*
X141265000Y-63790000D01*
%TO.C,D39*%
X166265000Y-101290000D02*
X166265000Y-103210000D01*
X166265000Y-103210000D02*
X169125000Y-103210000D01*
X169125000Y-101290000D02*
X166265000Y-101290000D01*
%TO.C,D61*%
X141265000Y-138790000D02*
X141265000Y-140710000D01*
X141265000Y-140710000D02*
X144125000Y-140710000D01*
X144125000Y-138790000D02*
X141265000Y-138790000D01*
%TO.C,D11*%
X116265000Y-63790000D02*
X116265000Y-65710000D01*
X116265000Y-65710000D02*
X119125000Y-65710000D01*
X119125000Y-63790000D02*
X116265000Y-63790000D01*
%TO.C,D53*%
X141265000Y-126290000D02*
X141265000Y-128210000D01*
X141265000Y-128210000D02*
X144125000Y-128210000D01*
X144125000Y-126290000D02*
X141265000Y-126290000D01*
%TO.C,D46*%
X153765000Y-113790000D02*
X153765000Y-115710000D01*
X153765000Y-115710000D02*
X156625000Y-115710000D01*
X156625000Y-113790000D02*
X153765000Y-113790000D01*
%TO.C,D59*%
X116265000Y-138790000D02*
X116265000Y-140710000D01*
X116265000Y-140710000D02*
X119125000Y-140710000D01*
X119125000Y-138790000D02*
X116265000Y-138790000D01*
%TO.C,J1*%
X172709200Y-47988400D02*
X173709200Y-47988400D01*
X172709200Y-49478400D02*
X172709200Y-47988400D01*
X172709200Y-49478400D02*
X172709200Y-49478400D01*
X172709200Y-49478400D02*
X172709200Y-50423400D01*
X173929200Y-49478400D02*
X174709200Y-49478400D01*
X174929200Y-47988400D02*
X175709200Y-47988400D01*
X175929200Y-49478400D02*
X176709200Y-49478400D01*
X176929200Y-47988400D02*
X177709200Y-47988400D01*
X177929200Y-49478400D02*
X178929200Y-49478400D01*
X178929200Y-47988400D02*
X178929200Y-47988400D01*
X178929200Y-49478400D02*
X178929200Y-47988400D01*
%TO.C,U3*%
X195324432Y-47815000D02*
X196460000Y-47815000D01*
X196460000Y-49685000D02*
X195040000Y-49685000D01*
X195030000Y-47810000D02*
X194890000Y-47620000D01*
X195170000Y-47620000D01*
X195030000Y-47810000D01*
G36*
X195030000Y-47810000D02*
G01*
X194890000Y-47620000D01*
X195170000Y-47620000D01*
X195030000Y-47810000D01*
G37*
%TO.C,D35*%
X116265000Y-101290000D02*
X116265000Y-103210000D01*
X116265000Y-103210000D02*
X119125000Y-103210000D01*
X119125000Y-101290000D02*
X116265000Y-101290000D01*
%TO.C,D7*%
X166265000Y-51290000D02*
X166265000Y-53210000D01*
X166265000Y-53210000D02*
X169125000Y-53210000D01*
X169125000Y-51290000D02*
X166265000Y-51290000D01*
%TO.C,D3*%
X116265000Y-51290000D02*
X116265000Y-53210000D01*
X116265000Y-53210000D02*
X119125000Y-53210000D01*
X119125000Y-51290000D02*
X116265000Y-51290000D01*
%TO.C,D6*%
X153765000Y-51290000D02*
X153765000Y-53210000D01*
X153765000Y-53210000D02*
X156625000Y-53210000D01*
X156625000Y-51290000D02*
X153765000Y-51290000D01*
%TO.C,D31*%
X166265000Y-88790000D02*
X166265000Y-90710000D01*
X166265000Y-90710000D02*
X169125000Y-90710000D01*
X169125000Y-88790000D02*
X166265000Y-88790000D01*
%TO.C,D37*%
X141265000Y-101290000D02*
X141265000Y-103210000D01*
X141265000Y-103210000D02*
X144125000Y-103210000D01*
X144125000Y-101290000D02*
X141265000Y-101290000D01*
%TO.C,D40*%
X178765000Y-101290000D02*
X178765000Y-103210000D01*
X178765000Y-103210000D02*
X181625000Y-103210000D01*
X181625000Y-101290000D02*
X178765000Y-101290000D01*
%TO.C,D19*%
X116265000Y-76290000D02*
X116265000Y-78210000D01*
X116265000Y-78210000D02*
X119125000Y-78210000D01*
X119125000Y-76290000D02*
X116265000Y-76290000D01*
%TO.C,D28*%
X128765000Y-88790000D02*
X128765000Y-90710000D01*
X128765000Y-90710000D02*
X131625000Y-90710000D01*
X131625000Y-88790000D02*
X128765000Y-88790000D01*
%TO.C,D44*%
X128765000Y-113790000D02*
X128765000Y-115710000D01*
X128765000Y-115710000D02*
X131625000Y-115710000D01*
X131625000Y-113790000D02*
X128765000Y-113790000D01*
%TO.C,D38*%
X153765000Y-101290000D02*
X153765000Y-103210000D01*
X153765000Y-103210000D02*
X156625000Y-103210000D01*
X156625000Y-101290000D02*
X153765000Y-101290000D01*
%TO.C,D42*%
X103765000Y-113790000D02*
X103765000Y-115710000D01*
X103765000Y-115710000D02*
X106625000Y-115710000D01*
X106625000Y-113790000D02*
X103765000Y-113790000D01*
%TO.C,D5*%
X141265000Y-51290000D02*
X141265000Y-53210000D01*
X141265000Y-53210000D02*
X144125000Y-53210000D01*
X144125000Y-51290000D02*
X141265000Y-51290000D01*
%TO.C,D64*%
X178765000Y-138790000D02*
X178765000Y-140710000D01*
X178765000Y-140710000D02*
X181625000Y-140710000D01*
X181625000Y-138790000D02*
X178765000Y-138790000D01*
%TO.C,D50*%
X103765000Y-126290000D02*
X103765000Y-128210000D01*
X103765000Y-128210000D02*
X106625000Y-128210000D01*
X106625000Y-126290000D02*
X103765000Y-126290000D01*
%TO.C,D57*%
X191265000Y-126290000D02*
X191265000Y-128210000D01*
X191265000Y-128210000D02*
X194125000Y-128210000D01*
X194125000Y-126290000D02*
X191265000Y-126290000D01*
%TO.C,D58*%
X103765000Y-138790000D02*
X103765000Y-140710000D01*
X103765000Y-140710000D02*
X106625000Y-140710000D01*
X106625000Y-138790000D02*
X103765000Y-138790000D01*
%TO.C,D14*%
X153765000Y-63790000D02*
X153765000Y-65710000D01*
X153765000Y-65710000D02*
X156625000Y-65710000D01*
X156625000Y-63790000D02*
X153765000Y-63790000D01*
%TO.C,D36*%
X128765000Y-101290000D02*
X128765000Y-103210000D01*
X128765000Y-103210000D02*
X131625000Y-103210000D01*
X131625000Y-101290000D02*
X128765000Y-101290000D01*
%TO.C,D45*%
X141265000Y-113790000D02*
X141265000Y-115710000D01*
X141265000Y-115710000D02*
X144125000Y-115710000D01*
X144125000Y-113790000D02*
X141265000Y-113790000D01*
%TO.C,D41*%
X191265000Y-101290000D02*
X191265000Y-103210000D01*
X191265000Y-103210000D02*
X194125000Y-103210000D01*
X194125000Y-101290000D02*
X191265000Y-101290000D01*
%TO.C,D63*%
X166265000Y-138790000D02*
X166265000Y-140710000D01*
X166265000Y-140710000D02*
X169125000Y-140710000D01*
X169125000Y-138790000D02*
X166265000Y-138790000D01*
%TO.C,D10*%
X103765000Y-63790000D02*
X103765000Y-65710000D01*
X103765000Y-65710000D02*
X106625000Y-65710000D01*
X106625000Y-63790000D02*
X103765000Y-63790000D01*
%TO.C,D34*%
X103765000Y-101290000D02*
X103765000Y-103210000D01*
X103765000Y-103210000D02*
X106625000Y-103210000D01*
X106625000Y-101290000D02*
X103765000Y-101290000D01*
%TO.C,D18*%
X103765000Y-76290000D02*
X103765000Y-78210000D01*
X103765000Y-78210000D02*
X106625000Y-78210000D01*
X106625000Y-76290000D02*
X103765000Y-76290000D01*
%TO.C,D33*%
X191265000Y-88790000D02*
X191265000Y-90710000D01*
X191265000Y-90710000D02*
X194125000Y-90710000D01*
X194125000Y-88790000D02*
X191265000Y-88790000D01*
%TO.C,D22*%
X153765000Y-76290000D02*
X153765000Y-78210000D01*
X153765000Y-78210000D02*
X156625000Y-78210000D01*
X156625000Y-76290000D02*
X153765000Y-76290000D01*
%TO.C,D27*%
X116265000Y-88790000D02*
X116265000Y-90710000D01*
X116265000Y-90710000D02*
X119125000Y-90710000D01*
X119125000Y-88790000D02*
X116265000Y-88790000D01*
%TO.C,D47*%
X166265000Y-113790000D02*
X166265000Y-115710000D01*
X166265000Y-115710000D02*
X169125000Y-115710000D01*
X169125000Y-113790000D02*
X166265000Y-113790000D01*
%TO.C,D16*%
X178765000Y-63790000D02*
X178765000Y-65710000D01*
X178765000Y-65710000D02*
X181625000Y-65710000D01*
X181625000Y-63790000D02*
X178765000Y-63790000D01*
%TO.C,D4*%
X128765000Y-51290000D02*
X128765000Y-53210000D01*
X128765000Y-53210000D02*
X131625000Y-53210000D01*
X131625000Y-51290000D02*
X128765000Y-51290000D01*
%TO.C,D62*%
X153765000Y-138790000D02*
X153765000Y-140710000D01*
X153765000Y-140710000D02*
X156625000Y-140710000D01*
X156625000Y-138790000D02*
X153765000Y-138790000D01*
%TO.C,D49*%
X191265000Y-113790000D02*
X191265000Y-115710000D01*
X191265000Y-115710000D02*
X194125000Y-115710000D01*
X194125000Y-113790000D02*
X191265000Y-113790000D01*
%TO.C,D21*%
X141265000Y-76290000D02*
X141265000Y-78210000D01*
X141265000Y-78210000D02*
X144125000Y-78210000D01*
X144125000Y-76290000D02*
X141265000Y-76290000D01*
%TO.C,D52*%
X128765000Y-126290000D02*
X128765000Y-128210000D01*
X128765000Y-128210000D02*
X131625000Y-128210000D01*
X131625000Y-126290000D02*
X128765000Y-126290000D01*
%TO.C,D29*%
X141265000Y-88790000D02*
X141265000Y-90710000D01*
X141265000Y-90710000D02*
X144125000Y-90710000D01*
X144125000Y-88790000D02*
X141265000Y-88790000D01*
%TO.C,D9*%
X191265000Y-51290000D02*
X191265000Y-53210000D01*
X191265000Y-53210000D02*
X194125000Y-53210000D01*
X194125000Y-51290000D02*
X191265000Y-51290000D01*
%TO.C,D54*%
X153765000Y-126290000D02*
X153765000Y-128210000D01*
X153765000Y-128210000D02*
X156625000Y-128210000D01*
X156625000Y-126290000D02*
X153765000Y-126290000D01*
%TO.C,D26*%
X103765000Y-88790000D02*
X103765000Y-90710000D01*
X103765000Y-90710000D02*
X106625000Y-90710000D01*
X106625000Y-88790000D02*
X103765000Y-88790000D01*
%TO.C,D8*%
X178765000Y-51290000D02*
X178765000Y-53210000D01*
X178765000Y-53210000D02*
X181625000Y-53210000D01*
X181625000Y-51290000D02*
X178765000Y-51290000D01*
%TO.C,D24*%
X178765000Y-76290000D02*
X178765000Y-78210000D01*
X178765000Y-78210000D02*
X181625000Y-78210000D01*
X181625000Y-76290000D02*
X178765000Y-76290000D01*
%TO.C,D20*%
X128765000Y-76290000D02*
X128765000Y-78210000D01*
X128765000Y-78210000D02*
X131625000Y-78210000D01*
X131625000Y-76290000D02*
X128765000Y-76290000D01*
%TO.C,D51*%
X116265000Y-126290000D02*
X116265000Y-128210000D01*
X116265000Y-128210000D02*
X119125000Y-128210000D01*
X119125000Y-126290000D02*
X116265000Y-126290000D01*
%TO.C,D32*%
X178765000Y-88790000D02*
X178765000Y-90710000D01*
X178765000Y-90710000D02*
X181625000Y-90710000D01*
X181625000Y-88790000D02*
X178765000Y-88790000D01*
%TO.C,D12*%
X128765000Y-63790000D02*
X128765000Y-65710000D01*
X128765000Y-65710000D02*
X131625000Y-65710000D01*
X131625000Y-63790000D02*
X128765000Y-63790000D01*
%TO.C,C6*%
X197165835Y-49890000D02*
X196934165Y-49890000D01*
X197165835Y-50610000D02*
X196934165Y-50610000D01*
%TO.C,D60*%
X128765000Y-138790000D02*
X128765000Y-140710000D01*
X128765000Y-140710000D02*
X131625000Y-140710000D01*
X131625000Y-138790000D02*
X128765000Y-138790000D01*
%TO.C,D55*%
X166265000Y-126290000D02*
X166265000Y-128210000D01*
X166265000Y-128210000D02*
X169125000Y-128210000D01*
X169125000Y-126290000D02*
X166265000Y-126290000D01*
%TO.C,C5*%
X197165835Y-50990000D02*
X196934165Y-50990000D01*
X197165835Y-51710000D02*
X196934165Y-51710000D01*
%TO.C,D23*%
X166265000Y-76290000D02*
X166265000Y-78210000D01*
X166265000Y-78210000D02*
X169125000Y-78210000D01*
X169125000Y-76290000D02*
X166265000Y-76290000D01*
%TO.C,D2*%
X103765000Y-51290000D02*
X103765000Y-53210000D01*
X103765000Y-53210000D02*
X106625000Y-53210000D01*
X106625000Y-51290000D02*
X103765000Y-51290000D01*
%TO.C,D17*%
X191265000Y-63790000D02*
X191265000Y-65710000D01*
X191265000Y-65710000D02*
X194125000Y-65710000D01*
X194125000Y-63790000D02*
X191265000Y-63790000D01*
%TO.C,D43*%
X116265000Y-113790000D02*
X116265000Y-115710000D01*
X116265000Y-115710000D02*
X119125000Y-115710000D01*
X119125000Y-113790000D02*
X116265000Y-113790000D01*
%TO.C,D30*%
X153765000Y-88790000D02*
X153765000Y-90710000D01*
X153765000Y-90710000D02*
X156625000Y-90710000D01*
X156625000Y-88790000D02*
X153765000Y-88790000D01*
%TD*%
M02*
