%TF.GenerationSoftware,KiCad,Pcbnew,9.0.6*%
%TF.CreationDate,2026-03-23T10:25:13+02:00*%
%TF.ProjectId,RocketClock,526f636b-6574-4436-9c6f-636b2e6b6963,rev?*%
%TF.SameCoordinates,Original*%
%TF.FileFunction,Legend,Bot*%
%TF.FilePolarity,Positive*%
%FSLAX46Y46*%
G04 Gerber Fmt 4.6, Leading zero omitted, Abs format (unit mm)*
G04 Created by KiCad (PCBNEW 9.0.6) date 2026-03-23 10:25:13*
%MOMM*%
%LPD*%
G01*
G04 APERTURE LIST*
%ADD10C,0.150000*%
%ADD11C,0.100000*%
%ADD12C,0.120000*%
%ADD13C,0.127000*%
G04 APERTURE END LIST*
D10*
X128663428Y-57141809D02*
X129139619Y-57141809D01*
X128139619Y-56808476D02*
X128663428Y-57141809D01*
X128663428Y-57141809D02*
X128139619Y-57475142D01*
X129139619Y-58332285D02*
X129139619Y-57760857D01*
X129139619Y-58046571D02*
X128139619Y-58046571D01*
X128139619Y-58046571D02*
X128282476Y-57951333D01*
X128282476Y-57951333D02*
X128377714Y-57856095D01*
X128377714Y-57856095D02*
X128425333Y-57760857D01*
X164794857Y-130767761D02*
X164747238Y-130672523D01*
X164747238Y-130672523D02*
X164652000Y-130577285D01*
X164652000Y-130577285D02*
X164509142Y-130434428D01*
X164509142Y-130434428D02*
X164461523Y-130339190D01*
X164461523Y-130339190D02*
X164461523Y-130243952D01*
X164699619Y-130291571D02*
X164652000Y-130196333D01*
X164652000Y-130196333D02*
X164556761Y-130101095D01*
X164556761Y-130101095D02*
X164366285Y-130053476D01*
X164366285Y-130053476D02*
X164032952Y-130053476D01*
X164032952Y-130053476D02*
X163842476Y-130101095D01*
X163842476Y-130101095D02*
X163747238Y-130196333D01*
X163747238Y-130196333D02*
X163699619Y-130291571D01*
X163699619Y-130291571D02*
X163699619Y-130482047D01*
X163699619Y-130482047D02*
X163747238Y-130577285D01*
X163747238Y-130577285D02*
X163842476Y-130672523D01*
X163842476Y-130672523D02*
X164032952Y-130720142D01*
X164032952Y-130720142D02*
X164366285Y-130720142D01*
X164366285Y-130720142D02*
X164556761Y-130672523D01*
X164556761Y-130672523D02*
X164652000Y-130577285D01*
X164652000Y-130577285D02*
X164699619Y-130482047D01*
X164699619Y-130482047D02*
X164699619Y-130291571D01*
X163699619Y-131577285D02*
X163699619Y-131386809D01*
X163699619Y-131386809D02*
X163747238Y-131291571D01*
X163747238Y-131291571D02*
X163794857Y-131243952D01*
X163794857Y-131243952D02*
X163937714Y-131148714D01*
X163937714Y-131148714D02*
X164128190Y-131101095D01*
X164128190Y-131101095D02*
X164509142Y-131101095D01*
X164509142Y-131101095D02*
X164604380Y-131148714D01*
X164604380Y-131148714D02*
X164652000Y-131196333D01*
X164652000Y-131196333D02*
X164699619Y-131291571D01*
X164699619Y-131291571D02*
X164699619Y-131482047D01*
X164699619Y-131482047D02*
X164652000Y-131577285D01*
X164652000Y-131577285D02*
X164604380Y-131624904D01*
X164604380Y-131624904D02*
X164509142Y-131672523D01*
X164509142Y-131672523D02*
X164271047Y-131672523D01*
X164271047Y-131672523D02*
X164175809Y-131624904D01*
X164175809Y-131624904D02*
X164128190Y-131577285D01*
X164128190Y-131577285D02*
X164080571Y-131482047D01*
X164080571Y-131482047D02*
X164080571Y-131291571D01*
X164080571Y-131291571D02*
X164128190Y-131196333D01*
X164128190Y-131196333D02*
X164175809Y-131148714D01*
X164175809Y-131148714D02*
X164271047Y-131101095D01*
X111139819Y-58916095D02*
X111949342Y-58916095D01*
X111949342Y-58916095D02*
X112044580Y-58963714D01*
X112044580Y-58963714D02*
X112092200Y-59011333D01*
X112092200Y-59011333D02*
X112139819Y-59106571D01*
X112139819Y-59106571D02*
X112139819Y-59297047D01*
X112139819Y-59297047D02*
X112092200Y-59392285D01*
X112092200Y-59392285D02*
X112044580Y-59439904D01*
X112044580Y-59439904D02*
X111949342Y-59487523D01*
X111949342Y-59487523D02*
X111139819Y-59487523D01*
X111473152Y-60392285D02*
X112139819Y-60392285D01*
X111092200Y-60154190D02*
X111806485Y-59916095D01*
X111806485Y-59916095D02*
X111806485Y-60535142D01*
X116902666Y-73253419D02*
X117235999Y-72777228D01*
X117474094Y-73253419D02*
X117474094Y-72253419D01*
X117474094Y-72253419D02*
X117093142Y-72253419D01*
X117093142Y-72253419D02*
X116997904Y-72301038D01*
X116997904Y-72301038D02*
X116950285Y-72348657D01*
X116950285Y-72348657D02*
X116902666Y-72443895D01*
X116902666Y-72443895D02*
X116902666Y-72586752D01*
X116902666Y-72586752D02*
X116950285Y-72681990D01*
X116950285Y-72681990D02*
X116997904Y-72729609D01*
X116997904Y-72729609D02*
X117093142Y-72777228D01*
X117093142Y-72777228D02*
X117474094Y-72777228D01*
X116331237Y-72681990D02*
X116426475Y-72634371D01*
X116426475Y-72634371D02*
X116474094Y-72586752D01*
X116474094Y-72586752D02*
X116521713Y-72491514D01*
X116521713Y-72491514D02*
X116521713Y-72443895D01*
X116521713Y-72443895D02*
X116474094Y-72348657D01*
X116474094Y-72348657D02*
X116426475Y-72301038D01*
X116426475Y-72301038D02*
X116331237Y-72253419D01*
X116331237Y-72253419D02*
X116140761Y-72253419D01*
X116140761Y-72253419D02*
X116045523Y-72301038D01*
X116045523Y-72301038D02*
X115997904Y-72348657D01*
X115997904Y-72348657D02*
X115950285Y-72443895D01*
X115950285Y-72443895D02*
X115950285Y-72491514D01*
X115950285Y-72491514D02*
X115997904Y-72586752D01*
X115997904Y-72586752D02*
X116045523Y-72634371D01*
X116045523Y-72634371D02*
X116140761Y-72681990D01*
X116140761Y-72681990D02*
X116331237Y-72681990D01*
X116331237Y-72681990D02*
X116426475Y-72729609D01*
X116426475Y-72729609D02*
X116474094Y-72777228D01*
X116474094Y-72777228D02*
X116521713Y-72872466D01*
X116521713Y-72872466D02*
X116521713Y-73062942D01*
X116521713Y-73062942D02*
X116474094Y-73158180D01*
X116474094Y-73158180D02*
X116426475Y-73205800D01*
X116426475Y-73205800D02*
X116331237Y-73253419D01*
X116331237Y-73253419D02*
X116140761Y-73253419D01*
X116140761Y-73253419D02*
X116045523Y-73205800D01*
X116045523Y-73205800D02*
X115997904Y-73158180D01*
X115997904Y-73158180D02*
X115950285Y-73062942D01*
X115950285Y-73062942D02*
X115950285Y-72872466D01*
X115950285Y-72872466D02*
X115997904Y-72777228D01*
X115997904Y-72777228D02*
X116045523Y-72729609D01*
X116045523Y-72729609D02*
X116140761Y-72681990D01*
X121868857Y-67369361D02*
X121821238Y-67274123D01*
X121821238Y-67274123D02*
X121726000Y-67178885D01*
X121726000Y-67178885D02*
X121583142Y-67036028D01*
X121583142Y-67036028D02*
X121535523Y-66940790D01*
X121535523Y-66940790D02*
X121535523Y-66845552D01*
X121773619Y-66893171D02*
X121726000Y-66797933D01*
X121726000Y-66797933D02*
X121630761Y-66702695D01*
X121630761Y-66702695D02*
X121440285Y-66655076D01*
X121440285Y-66655076D02*
X121106952Y-66655076D01*
X121106952Y-66655076D02*
X120916476Y-66702695D01*
X120916476Y-66702695D02*
X120821238Y-66797933D01*
X120821238Y-66797933D02*
X120773619Y-66893171D01*
X120773619Y-66893171D02*
X120773619Y-67083647D01*
X120773619Y-67083647D02*
X120821238Y-67178885D01*
X120821238Y-67178885D02*
X120916476Y-67274123D01*
X120916476Y-67274123D02*
X121106952Y-67321742D01*
X121106952Y-67321742D02*
X121440285Y-67321742D01*
X121440285Y-67321742D02*
X121630761Y-67274123D01*
X121630761Y-67274123D02*
X121726000Y-67178885D01*
X121726000Y-67178885D02*
X121773619Y-67083647D01*
X121773619Y-67083647D02*
X121773619Y-66893171D01*
X120868857Y-67702695D02*
X120821238Y-67750314D01*
X120821238Y-67750314D02*
X120773619Y-67845552D01*
X120773619Y-67845552D02*
X120773619Y-68083647D01*
X120773619Y-68083647D02*
X120821238Y-68178885D01*
X120821238Y-68178885D02*
X120868857Y-68226504D01*
X120868857Y-68226504D02*
X120964095Y-68274123D01*
X120964095Y-68274123D02*
X121059333Y-68274123D01*
X121059333Y-68274123D02*
X121202190Y-68226504D01*
X121202190Y-68226504D02*
X121773619Y-67655076D01*
X121773619Y-67655076D02*
X121773619Y-68274123D01*
D11*
X195610666Y-104194180D02*
X195610666Y-103479895D01*
X195610666Y-103479895D02*
X195563047Y-103337038D01*
X195563047Y-103337038D02*
X195467809Y-103241800D01*
X195467809Y-103241800D02*
X195324952Y-103194180D01*
X195324952Y-103194180D02*
X195229714Y-103194180D01*
X196039238Y-104098942D02*
X196086857Y-104146561D01*
X196086857Y-104146561D02*
X196182095Y-104194180D01*
X196182095Y-104194180D02*
X196420190Y-104194180D01*
X196420190Y-104194180D02*
X196515428Y-104146561D01*
X196515428Y-104146561D02*
X196563047Y-104098942D01*
X196563047Y-104098942D02*
X196610666Y-104003704D01*
X196610666Y-104003704D02*
X196610666Y-103908466D01*
X196610666Y-103908466D02*
X196563047Y-103765609D01*
X196563047Y-103765609D02*
X195991619Y-103194180D01*
X195991619Y-103194180D02*
X196610666Y-103194180D01*
D10*
X165954457Y-137195819D02*
X166287790Y-136719628D01*
X166525885Y-137195819D02*
X166525885Y-136195819D01*
X166525885Y-136195819D02*
X166144933Y-136195819D01*
X166144933Y-136195819D02*
X166049695Y-136243438D01*
X166049695Y-136243438D02*
X166002076Y-136291057D01*
X166002076Y-136291057D02*
X165954457Y-136386295D01*
X165954457Y-136386295D02*
X165954457Y-136529152D01*
X165954457Y-136529152D02*
X166002076Y-136624390D01*
X166002076Y-136624390D02*
X166049695Y-136672009D01*
X166049695Y-136672009D02*
X166144933Y-136719628D01*
X166144933Y-136719628D02*
X166525885Y-136719628D01*
X165002076Y-137195819D02*
X165573504Y-137195819D01*
X165287790Y-137195819D02*
X165287790Y-136195819D01*
X165287790Y-136195819D02*
X165383028Y-136338676D01*
X165383028Y-136338676D02*
X165478266Y-136433914D01*
X165478266Y-136433914D02*
X165573504Y-136481533D01*
X164621123Y-136291057D02*
X164573504Y-136243438D01*
X164573504Y-136243438D02*
X164478266Y-136195819D01*
X164478266Y-136195819D02*
X164240171Y-136195819D01*
X164240171Y-136195819D02*
X164144933Y-136243438D01*
X164144933Y-136243438D02*
X164097314Y-136291057D01*
X164097314Y-136291057D02*
X164049695Y-136386295D01*
X164049695Y-136386295D02*
X164049695Y-136481533D01*
X164049695Y-136481533D02*
X164097314Y-136624390D01*
X164097314Y-136624390D02*
X164668742Y-137195819D01*
X164668742Y-137195819D02*
X164049695Y-137195819D01*
X110367419Y-55182133D02*
X109891228Y-54848800D01*
X110367419Y-54610705D02*
X109367419Y-54610705D01*
X109367419Y-54610705D02*
X109367419Y-54991657D01*
X109367419Y-54991657D02*
X109415038Y-55086895D01*
X109415038Y-55086895D02*
X109462657Y-55134514D01*
X109462657Y-55134514D02*
X109557895Y-55182133D01*
X109557895Y-55182133D02*
X109700752Y-55182133D01*
X109700752Y-55182133D02*
X109795990Y-55134514D01*
X109795990Y-55134514D02*
X109843609Y-55086895D01*
X109843609Y-55086895D02*
X109891228Y-54991657D01*
X109891228Y-54991657D02*
X109891228Y-54610705D01*
X109367419Y-55515467D02*
X109367419Y-56134514D01*
X109367419Y-56134514D02*
X109748371Y-55801181D01*
X109748371Y-55801181D02*
X109748371Y-55944038D01*
X109748371Y-55944038D02*
X109795990Y-56039276D01*
X109795990Y-56039276D02*
X109843609Y-56086895D01*
X109843609Y-56086895D02*
X109938847Y-56134514D01*
X109938847Y-56134514D02*
X110176942Y-56134514D01*
X110176942Y-56134514D02*
X110272180Y-56086895D01*
X110272180Y-56086895D02*
X110319800Y-56039276D01*
X110319800Y-56039276D02*
X110367419Y-55944038D01*
X110367419Y-55944038D02*
X110367419Y-55658324D01*
X110367419Y-55658324D02*
X110319800Y-55563086D01*
X110319800Y-55563086D02*
X110272180Y-55515467D01*
X175682657Y-127660219D02*
X176015990Y-127184028D01*
X176254085Y-127660219D02*
X176254085Y-126660219D01*
X176254085Y-126660219D02*
X175873133Y-126660219D01*
X175873133Y-126660219D02*
X175777895Y-126707838D01*
X175777895Y-126707838D02*
X175730276Y-126755457D01*
X175730276Y-126755457D02*
X175682657Y-126850695D01*
X175682657Y-126850695D02*
X175682657Y-126993552D01*
X175682657Y-126993552D02*
X175730276Y-127088790D01*
X175730276Y-127088790D02*
X175777895Y-127136409D01*
X175777895Y-127136409D02*
X175873133Y-127184028D01*
X175873133Y-127184028D02*
X176254085Y-127184028D01*
X174730276Y-127660219D02*
X175301704Y-127660219D01*
X175015990Y-127660219D02*
X175015990Y-126660219D01*
X175015990Y-126660219D02*
X175111228Y-126803076D01*
X175111228Y-126803076D02*
X175206466Y-126898314D01*
X175206466Y-126898314D02*
X175301704Y-126945933D01*
X174396942Y-126660219D02*
X173730276Y-126660219D01*
X173730276Y-126660219D02*
X174158847Y-127660219D01*
X191117904Y-71923219D02*
X191117904Y-72732742D01*
X191117904Y-72732742D02*
X191070285Y-72827980D01*
X191070285Y-72827980D02*
X191022666Y-72875600D01*
X191022666Y-72875600D02*
X190927428Y-72923219D01*
X190927428Y-72923219D02*
X190736952Y-72923219D01*
X190736952Y-72923219D02*
X190641714Y-72875600D01*
X190641714Y-72875600D02*
X190594095Y-72827980D01*
X190594095Y-72827980D02*
X190546476Y-72732742D01*
X190546476Y-72732742D02*
X190546476Y-71923219D01*
X189641714Y-71923219D02*
X189832190Y-71923219D01*
X189832190Y-71923219D02*
X189927428Y-71970838D01*
X189927428Y-71970838D02*
X189975047Y-72018457D01*
X189975047Y-72018457D02*
X190070285Y-72161314D01*
X190070285Y-72161314D02*
X190117904Y-72351790D01*
X190117904Y-72351790D02*
X190117904Y-72732742D01*
X190117904Y-72732742D02*
X190070285Y-72827980D01*
X190070285Y-72827980D02*
X190022666Y-72875600D01*
X190022666Y-72875600D02*
X189927428Y-72923219D01*
X189927428Y-72923219D02*
X189736952Y-72923219D01*
X189736952Y-72923219D02*
X189641714Y-72875600D01*
X189641714Y-72875600D02*
X189594095Y-72827980D01*
X189594095Y-72827980D02*
X189546476Y-72732742D01*
X189546476Y-72732742D02*
X189546476Y-72494647D01*
X189546476Y-72494647D02*
X189594095Y-72399409D01*
X189594095Y-72399409D02*
X189641714Y-72351790D01*
X189641714Y-72351790D02*
X189736952Y-72304171D01*
X189736952Y-72304171D02*
X189927428Y-72304171D01*
X189927428Y-72304171D02*
X190022666Y-72351790D01*
X190022666Y-72351790D02*
X190070285Y-72399409D01*
X190070285Y-72399409D02*
X190117904Y-72494647D01*
X138884466Y-52450819D02*
X139217799Y-51974628D01*
X139455894Y-52450819D02*
X139455894Y-51450819D01*
X139455894Y-51450819D02*
X139074942Y-51450819D01*
X139074942Y-51450819D02*
X138979704Y-51498438D01*
X138979704Y-51498438D02*
X138932085Y-51546057D01*
X138932085Y-51546057D02*
X138884466Y-51641295D01*
X138884466Y-51641295D02*
X138884466Y-51784152D01*
X138884466Y-51784152D02*
X138932085Y-51879390D01*
X138932085Y-51879390D02*
X138979704Y-51927009D01*
X138979704Y-51927009D02*
X139074942Y-51974628D01*
X139074942Y-51974628D02*
X139455894Y-51974628D01*
X138027323Y-51784152D02*
X138027323Y-52450819D01*
X138265418Y-51403200D02*
X138503513Y-52117485D01*
X138503513Y-52117485D02*
X137884466Y-52117485D01*
X129349180Y-52444433D02*
X129396800Y-52396814D01*
X129396800Y-52396814D02*
X129444419Y-52253957D01*
X129444419Y-52253957D02*
X129444419Y-52158719D01*
X129444419Y-52158719D02*
X129396800Y-52015862D01*
X129396800Y-52015862D02*
X129301561Y-51920624D01*
X129301561Y-51920624D02*
X129206323Y-51873005D01*
X129206323Y-51873005D02*
X129015847Y-51825386D01*
X129015847Y-51825386D02*
X128872990Y-51825386D01*
X128872990Y-51825386D02*
X128682514Y-51873005D01*
X128682514Y-51873005D02*
X128587276Y-51920624D01*
X128587276Y-51920624D02*
X128492038Y-52015862D01*
X128492038Y-52015862D02*
X128444419Y-52158719D01*
X128444419Y-52158719D02*
X128444419Y-52253957D01*
X128444419Y-52253957D02*
X128492038Y-52396814D01*
X128492038Y-52396814D02*
X128539657Y-52444433D01*
X129444419Y-53396814D02*
X129444419Y-52825386D01*
X129444419Y-53111100D02*
X128444419Y-53111100D01*
X128444419Y-53111100D02*
X128587276Y-53015862D01*
X128587276Y-53015862D02*
X128682514Y-52920624D01*
X128682514Y-52920624D02*
X128730133Y-52825386D01*
X169002457Y-133527619D02*
X169335790Y-133051428D01*
X169573885Y-133527619D02*
X169573885Y-132527619D01*
X169573885Y-132527619D02*
X169192933Y-132527619D01*
X169192933Y-132527619D02*
X169097695Y-132575238D01*
X169097695Y-132575238D02*
X169050076Y-132622857D01*
X169050076Y-132622857D02*
X169002457Y-132718095D01*
X169002457Y-132718095D02*
X169002457Y-132860952D01*
X169002457Y-132860952D02*
X169050076Y-132956190D01*
X169050076Y-132956190D02*
X169097695Y-133003809D01*
X169097695Y-133003809D02*
X169192933Y-133051428D01*
X169192933Y-133051428D02*
X169573885Y-133051428D01*
X168050076Y-133527619D02*
X168621504Y-133527619D01*
X168335790Y-133527619D02*
X168335790Y-132527619D01*
X168335790Y-132527619D02*
X168431028Y-132670476D01*
X168431028Y-132670476D02*
X168526266Y-132765714D01*
X168526266Y-132765714D02*
X168621504Y-132813333D01*
X167716742Y-132527619D02*
X167097695Y-132527619D01*
X167097695Y-132527619D02*
X167431028Y-132908571D01*
X167431028Y-132908571D02*
X167288171Y-132908571D01*
X167288171Y-132908571D02*
X167192933Y-132956190D01*
X167192933Y-132956190D02*
X167145314Y-133003809D01*
X167145314Y-133003809D02*
X167097695Y-133099047D01*
X167097695Y-133099047D02*
X167097695Y-133337142D01*
X167097695Y-133337142D02*
X167145314Y-133432380D01*
X167145314Y-133432380D02*
X167192933Y-133480000D01*
X167192933Y-133480000D02*
X167288171Y-133527619D01*
X167288171Y-133527619D02*
X167573885Y-133527619D01*
X167573885Y-133527619D02*
X167669123Y-133480000D01*
X167669123Y-133480000D02*
X167716742Y-133432380D01*
X116775666Y-65760419D02*
X117108999Y-65284228D01*
X117347094Y-65760419D02*
X117347094Y-64760419D01*
X117347094Y-64760419D02*
X116966142Y-64760419D01*
X116966142Y-64760419D02*
X116870904Y-64808038D01*
X116870904Y-64808038D02*
X116823285Y-64855657D01*
X116823285Y-64855657D02*
X116775666Y-64950895D01*
X116775666Y-64950895D02*
X116775666Y-65093752D01*
X116775666Y-65093752D02*
X116823285Y-65188990D01*
X116823285Y-65188990D02*
X116870904Y-65236609D01*
X116870904Y-65236609D02*
X116966142Y-65284228D01*
X116966142Y-65284228D02*
X117347094Y-65284228D01*
X116442332Y-64760419D02*
X115775666Y-64760419D01*
X115775666Y-64760419D02*
X116204237Y-65760419D01*
X173282333Y-137175819D02*
X173282333Y-137890104D01*
X173282333Y-137890104D02*
X173329952Y-138032961D01*
X173329952Y-138032961D02*
X173425190Y-138128200D01*
X173425190Y-138128200D02*
X173568047Y-138175819D01*
X173568047Y-138175819D02*
X173663285Y-138175819D01*
X172806142Y-138175819D02*
X172806142Y-137175819D01*
X172806142Y-137175819D02*
X172425190Y-137175819D01*
X172425190Y-137175819D02*
X172329952Y-137223438D01*
X172329952Y-137223438D02*
X172282333Y-137271057D01*
X172282333Y-137271057D02*
X172234714Y-137366295D01*
X172234714Y-137366295D02*
X172234714Y-137509152D01*
X172234714Y-137509152D02*
X172282333Y-137604390D01*
X172282333Y-137604390D02*
X172329952Y-137652009D01*
X172329952Y-137652009D02*
X172425190Y-137699628D01*
X172425190Y-137699628D02*
X172806142Y-137699628D01*
X171282333Y-138175819D02*
X171853761Y-138175819D01*
X171568047Y-138175819D02*
X171568047Y-137175819D01*
X171568047Y-137175819D02*
X171663285Y-137318676D01*
X171663285Y-137318676D02*
X171758523Y-137413914D01*
X171758523Y-137413914D02*
X171853761Y-137461533D01*
X167376857Y-135229419D02*
X167710190Y-134753228D01*
X167948285Y-135229419D02*
X167948285Y-134229419D01*
X167948285Y-134229419D02*
X167567333Y-134229419D01*
X167567333Y-134229419D02*
X167472095Y-134277038D01*
X167472095Y-134277038D02*
X167424476Y-134324657D01*
X167424476Y-134324657D02*
X167376857Y-134419895D01*
X167376857Y-134419895D02*
X167376857Y-134562752D01*
X167376857Y-134562752D02*
X167424476Y-134657990D01*
X167424476Y-134657990D02*
X167472095Y-134705609D01*
X167472095Y-134705609D02*
X167567333Y-134753228D01*
X167567333Y-134753228D02*
X167948285Y-134753228D01*
X166424476Y-135229419D02*
X166995904Y-135229419D01*
X166710190Y-135229419D02*
X166710190Y-134229419D01*
X166710190Y-134229419D02*
X166805428Y-134372276D01*
X166805428Y-134372276D02*
X166900666Y-134467514D01*
X166900666Y-134467514D02*
X166995904Y-134515133D01*
X165472095Y-135229419D02*
X166043523Y-135229419D01*
X165757809Y-135229419D02*
X165757809Y-134229419D01*
X165757809Y-134229419D02*
X165853047Y-134372276D01*
X165853047Y-134372276D02*
X165948285Y-134467514D01*
X165948285Y-134467514D02*
X166043523Y-134515133D01*
X125539180Y-52642133D02*
X125586800Y-52594514D01*
X125586800Y-52594514D02*
X125634419Y-52451657D01*
X125634419Y-52451657D02*
X125634419Y-52356419D01*
X125634419Y-52356419D02*
X125586800Y-52213562D01*
X125586800Y-52213562D02*
X125491561Y-52118324D01*
X125491561Y-52118324D02*
X125396323Y-52070705D01*
X125396323Y-52070705D02*
X125205847Y-52023086D01*
X125205847Y-52023086D02*
X125062990Y-52023086D01*
X125062990Y-52023086D02*
X124872514Y-52070705D01*
X124872514Y-52070705D02*
X124777276Y-52118324D01*
X124777276Y-52118324D02*
X124682038Y-52213562D01*
X124682038Y-52213562D02*
X124634419Y-52356419D01*
X124634419Y-52356419D02*
X124634419Y-52451657D01*
X124634419Y-52451657D02*
X124682038Y-52594514D01*
X124682038Y-52594514D02*
X124729657Y-52642133D01*
X125634419Y-53118324D02*
X125634419Y-53308800D01*
X125634419Y-53308800D02*
X125586800Y-53404038D01*
X125586800Y-53404038D02*
X125539180Y-53451657D01*
X125539180Y-53451657D02*
X125396323Y-53546895D01*
X125396323Y-53546895D02*
X125205847Y-53594514D01*
X125205847Y-53594514D02*
X124824895Y-53594514D01*
X124824895Y-53594514D02*
X124729657Y-53546895D01*
X124729657Y-53546895D02*
X124682038Y-53499276D01*
X124682038Y-53499276D02*
X124634419Y-53404038D01*
X124634419Y-53404038D02*
X124634419Y-53213562D01*
X124634419Y-53213562D02*
X124682038Y-53118324D01*
X124682038Y-53118324D02*
X124729657Y-53070705D01*
X124729657Y-53070705D02*
X124824895Y-53023086D01*
X124824895Y-53023086D02*
X125062990Y-53023086D01*
X125062990Y-53023086D02*
X125158228Y-53070705D01*
X125158228Y-53070705D02*
X125205847Y-53118324D01*
X125205847Y-53118324D02*
X125253466Y-53213562D01*
X125253466Y-53213562D02*
X125253466Y-53404038D01*
X125253466Y-53404038D02*
X125205847Y-53499276D01*
X125205847Y-53499276D02*
X125158228Y-53546895D01*
X125158228Y-53546895D02*
X125062990Y-53594514D01*
X131112066Y-49155180D02*
X131159685Y-49202800D01*
X131159685Y-49202800D02*
X131302542Y-49250419D01*
X131302542Y-49250419D02*
X131397780Y-49250419D01*
X131397780Y-49250419D02*
X131540637Y-49202800D01*
X131540637Y-49202800D02*
X131635875Y-49107561D01*
X131635875Y-49107561D02*
X131683494Y-49012323D01*
X131683494Y-49012323D02*
X131731113Y-48821847D01*
X131731113Y-48821847D02*
X131731113Y-48678990D01*
X131731113Y-48678990D02*
X131683494Y-48488514D01*
X131683494Y-48488514D02*
X131635875Y-48393276D01*
X131635875Y-48393276D02*
X131540637Y-48298038D01*
X131540637Y-48298038D02*
X131397780Y-48250419D01*
X131397780Y-48250419D02*
X131302542Y-48250419D01*
X131302542Y-48250419D02*
X131159685Y-48298038D01*
X131159685Y-48298038D02*
X131112066Y-48345657D01*
X130731113Y-48345657D02*
X130683494Y-48298038D01*
X130683494Y-48298038D02*
X130588256Y-48250419D01*
X130588256Y-48250419D02*
X130350161Y-48250419D01*
X130350161Y-48250419D02*
X130254923Y-48298038D01*
X130254923Y-48298038D02*
X130207304Y-48345657D01*
X130207304Y-48345657D02*
X130159685Y-48440895D01*
X130159685Y-48440895D02*
X130159685Y-48536133D01*
X130159685Y-48536133D02*
X130207304Y-48678990D01*
X130207304Y-48678990D02*
X130778732Y-49250419D01*
X130778732Y-49250419D02*
X130159685Y-49250419D01*
X108645166Y-62179019D02*
X108978499Y-61702828D01*
X109216594Y-62179019D02*
X109216594Y-61179019D01*
X109216594Y-61179019D02*
X108835642Y-61179019D01*
X108835642Y-61179019D02*
X108740404Y-61226638D01*
X108740404Y-61226638D02*
X108692785Y-61274257D01*
X108692785Y-61274257D02*
X108645166Y-61369495D01*
X108645166Y-61369495D02*
X108645166Y-61512352D01*
X108645166Y-61512352D02*
X108692785Y-61607590D01*
X108692785Y-61607590D02*
X108740404Y-61655209D01*
X108740404Y-61655209D02*
X108835642Y-61702828D01*
X108835642Y-61702828D02*
X109216594Y-61702828D01*
X107788023Y-61179019D02*
X107978499Y-61179019D01*
X107978499Y-61179019D02*
X108073737Y-61226638D01*
X108073737Y-61226638D02*
X108121356Y-61274257D01*
X108121356Y-61274257D02*
X108216594Y-61417114D01*
X108216594Y-61417114D02*
X108264213Y-61607590D01*
X108264213Y-61607590D02*
X108264213Y-61988542D01*
X108264213Y-61988542D02*
X108216594Y-62083780D01*
X108216594Y-62083780D02*
X108168975Y-62131400D01*
X108168975Y-62131400D02*
X108073737Y-62179019D01*
X108073737Y-62179019D02*
X107883261Y-62179019D01*
X107883261Y-62179019D02*
X107788023Y-62131400D01*
X107788023Y-62131400D02*
X107740404Y-62083780D01*
X107740404Y-62083780D02*
X107692785Y-61988542D01*
X107692785Y-61988542D02*
X107692785Y-61750447D01*
X107692785Y-61750447D02*
X107740404Y-61655209D01*
X107740404Y-61655209D02*
X107788023Y-61607590D01*
X107788023Y-61607590D02*
X107883261Y-61559971D01*
X107883261Y-61559971D02*
X108073737Y-61559971D01*
X108073737Y-61559971D02*
X108168975Y-61607590D01*
X108168975Y-61607590D02*
X108216594Y-61655209D01*
X108216594Y-61655209D02*
X108264213Y-61750447D01*
X161645257Y-130793161D02*
X161597638Y-130697923D01*
X161597638Y-130697923D02*
X161502400Y-130602685D01*
X161502400Y-130602685D02*
X161359542Y-130459828D01*
X161359542Y-130459828D02*
X161311923Y-130364590D01*
X161311923Y-130364590D02*
X161311923Y-130269352D01*
X161550019Y-130316971D02*
X161502400Y-130221733D01*
X161502400Y-130221733D02*
X161407161Y-130126495D01*
X161407161Y-130126495D02*
X161216685Y-130078876D01*
X161216685Y-130078876D02*
X160883352Y-130078876D01*
X160883352Y-130078876D02*
X160692876Y-130126495D01*
X160692876Y-130126495D02*
X160597638Y-130221733D01*
X160597638Y-130221733D02*
X160550019Y-130316971D01*
X160550019Y-130316971D02*
X160550019Y-130507447D01*
X160550019Y-130507447D02*
X160597638Y-130602685D01*
X160597638Y-130602685D02*
X160692876Y-130697923D01*
X160692876Y-130697923D02*
X160883352Y-130745542D01*
X160883352Y-130745542D02*
X161216685Y-130745542D01*
X161216685Y-130745542D02*
X161407161Y-130697923D01*
X161407161Y-130697923D02*
X161502400Y-130602685D01*
X161502400Y-130602685D02*
X161550019Y-130507447D01*
X161550019Y-130507447D02*
X161550019Y-130316971D01*
X160883352Y-131602685D02*
X161550019Y-131602685D01*
X160502400Y-131364590D02*
X161216685Y-131126495D01*
X161216685Y-131126495D02*
X161216685Y-131745542D01*
X129530857Y-61626580D02*
X129578476Y-61674200D01*
X129578476Y-61674200D02*
X129721333Y-61721819D01*
X129721333Y-61721819D02*
X129816571Y-61721819D01*
X129816571Y-61721819D02*
X129959428Y-61674200D01*
X129959428Y-61674200D02*
X130054666Y-61578961D01*
X130054666Y-61578961D02*
X130102285Y-61483723D01*
X130102285Y-61483723D02*
X130149904Y-61293247D01*
X130149904Y-61293247D02*
X130149904Y-61150390D01*
X130149904Y-61150390D02*
X130102285Y-60959914D01*
X130102285Y-60959914D02*
X130054666Y-60864676D01*
X130054666Y-60864676D02*
X129959428Y-60769438D01*
X129959428Y-60769438D02*
X129816571Y-60721819D01*
X129816571Y-60721819D02*
X129721333Y-60721819D01*
X129721333Y-60721819D02*
X129578476Y-60769438D01*
X129578476Y-60769438D02*
X129530857Y-60817057D01*
X128578476Y-61721819D02*
X129149904Y-61721819D01*
X128864190Y-61721819D02*
X128864190Y-60721819D01*
X128864190Y-60721819D02*
X128959428Y-60864676D01*
X128959428Y-60864676D02*
X129054666Y-60959914D01*
X129054666Y-60959914D02*
X129149904Y-61007533D01*
X127959428Y-60721819D02*
X127864190Y-60721819D01*
X127864190Y-60721819D02*
X127768952Y-60769438D01*
X127768952Y-60769438D02*
X127721333Y-60817057D01*
X127721333Y-60817057D02*
X127673714Y-60912295D01*
X127673714Y-60912295D02*
X127626095Y-61102771D01*
X127626095Y-61102771D02*
X127626095Y-61340866D01*
X127626095Y-61340866D02*
X127673714Y-61531342D01*
X127673714Y-61531342D02*
X127721333Y-61626580D01*
X127721333Y-61626580D02*
X127768952Y-61674200D01*
X127768952Y-61674200D02*
X127864190Y-61721819D01*
X127864190Y-61721819D02*
X127959428Y-61721819D01*
X127959428Y-61721819D02*
X128054666Y-61674200D01*
X128054666Y-61674200D02*
X128102285Y-61626580D01*
X128102285Y-61626580D02*
X128149904Y-61531342D01*
X128149904Y-61531342D02*
X128197523Y-61340866D01*
X128197523Y-61340866D02*
X128197523Y-61102771D01*
X128197523Y-61102771D02*
X128149904Y-60912295D01*
X128149904Y-60912295D02*
X128102285Y-60817057D01*
X128102285Y-60817057D02*
X128054666Y-60769438D01*
X128054666Y-60769438D02*
X127959428Y-60721819D01*
X191572819Y-49441733D02*
X191096628Y-49108400D01*
X191572819Y-48870305D02*
X190572819Y-48870305D01*
X190572819Y-48870305D02*
X190572819Y-49251257D01*
X190572819Y-49251257D02*
X190620438Y-49346495D01*
X190620438Y-49346495D02*
X190668057Y-49394114D01*
X190668057Y-49394114D02*
X190763295Y-49441733D01*
X190763295Y-49441733D02*
X190906152Y-49441733D01*
X190906152Y-49441733D02*
X191001390Y-49394114D01*
X191001390Y-49394114D02*
X191049009Y-49346495D01*
X191049009Y-49346495D02*
X191096628Y-49251257D01*
X191096628Y-49251257D02*
X191096628Y-48870305D01*
X190668057Y-49822686D02*
X190620438Y-49870305D01*
X190620438Y-49870305D02*
X190572819Y-49965543D01*
X190572819Y-49965543D02*
X190572819Y-50203638D01*
X190572819Y-50203638D02*
X190620438Y-50298876D01*
X190620438Y-50298876D02*
X190668057Y-50346495D01*
X190668057Y-50346495D02*
X190763295Y-50394114D01*
X190763295Y-50394114D02*
X190858533Y-50394114D01*
X190858533Y-50394114D02*
X191001390Y-50346495D01*
X191001390Y-50346495D02*
X191572819Y-49775067D01*
X191572819Y-49775067D02*
X191572819Y-50394114D01*
X174996857Y-52550819D02*
X175330190Y-52074628D01*
X175568285Y-52550819D02*
X175568285Y-51550819D01*
X175568285Y-51550819D02*
X175187333Y-51550819D01*
X175187333Y-51550819D02*
X175092095Y-51598438D01*
X175092095Y-51598438D02*
X175044476Y-51646057D01*
X175044476Y-51646057D02*
X174996857Y-51741295D01*
X174996857Y-51741295D02*
X174996857Y-51884152D01*
X174996857Y-51884152D02*
X175044476Y-51979390D01*
X175044476Y-51979390D02*
X175092095Y-52027009D01*
X175092095Y-52027009D02*
X175187333Y-52074628D01*
X175187333Y-52074628D02*
X175568285Y-52074628D01*
X174615904Y-51646057D02*
X174568285Y-51598438D01*
X174568285Y-51598438D02*
X174473047Y-51550819D01*
X174473047Y-51550819D02*
X174234952Y-51550819D01*
X174234952Y-51550819D02*
X174139714Y-51598438D01*
X174139714Y-51598438D02*
X174092095Y-51646057D01*
X174092095Y-51646057D02*
X174044476Y-51741295D01*
X174044476Y-51741295D02*
X174044476Y-51836533D01*
X174044476Y-51836533D02*
X174092095Y-51979390D01*
X174092095Y-51979390D02*
X174663523Y-52550819D01*
X174663523Y-52550819D02*
X174044476Y-52550819D01*
X173663523Y-51646057D02*
X173615904Y-51598438D01*
X173615904Y-51598438D02*
X173520666Y-51550819D01*
X173520666Y-51550819D02*
X173282571Y-51550819D01*
X173282571Y-51550819D02*
X173187333Y-51598438D01*
X173187333Y-51598438D02*
X173139714Y-51646057D01*
X173139714Y-51646057D02*
X173092095Y-51741295D01*
X173092095Y-51741295D02*
X173092095Y-51836533D01*
X173092095Y-51836533D02*
X173139714Y-51979390D01*
X173139714Y-51979390D02*
X173711142Y-52550819D01*
X173711142Y-52550819D02*
X173092095Y-52550819D01*
D11*
X102856133Y-86869019D02*
X102856133Y-87583304D01*
X102856133Y-87583304D02*
X102903752Y-87726161D01*
X102903752Y-87726161D02*
X102998990Y-87821400D01*
X102998990Y-87821400D02*
X103141847Y-87869019D01*
X103141847Y-87869019D02*
X103237085Y-87869019D01*
X102475180Y-86869019D02*
X101856133Y-86869019D01*
X101856133Y-86869019D02*
X102189466Y-87249971D01*
X102189466Y-87249971D02*
X102046609Y-87249971D01*
X102046609Y-87249971D02*
X101951371Y-87297590D01*
X101951371Y-87297590D02*
X101903752Y-87345209D01*
X101903752Y-87345209D02*
X101856133Y-87440447D01*
X101856133Y-87440447D02*
X101856133Y-87678542D01*
X101856133Y-87678542D02*
X101903752Y-87773780D01*
X101903752Y-87773780D02*
X101951371Y-87821400D01*
X101951371Y-87821400D02*
X102046609Y-87869019D01*
X102046609Y-87869019D02*
X102332323Y-87869019D01*
X102332323Y-87869019D02*
X102427561Y-87821400D01*
X102427561Y-87821400D02*
X102475180Y-87773780D01*
D10*
X182714819Y-132443714D02*
X181714819Y-132443714D01*
X181714819Y-132443714D02*
X181714819Y-132681809D01*
X181714819Y-132681809D02*
X181762438Y-132824666D01*
X181762438Y-132824666D02*
X181857676Y-132919904D01*
X181857676Y-132919904D02*
X181952914Y-132967523D01*
X181952914Y-132967523D02*
X182143390Y-133015142D01*
X182143390Y-133015142D02*
X182286247Y-133015142D01*
X182286247Y-133015142D02*
X182476723Y-132967523D01*
X182476723Y-132967523D02*
X182571961Y-132919904D01*
X182571961Y-132919904D02*
X182667200Y-132824666D01*
X182667200Y-132824666D02*
X182714819Y-132681809D01*
X182714819Y-132681809D02*
X182714819Y-132443714D01*
X181714819Y-133872285D02*
X181714819Y-133681809D01*
X181714819Y-133681809D02*
X181762438Y-133586571D01*
X181762438Y-133586571D02*
X181810057Y-133538952D01*
X181810057Y-133538952D02*
X181952914Y-133443714D01*
X181952914Y-133443714D02*
X182143390Y-133396095D01*
X182143390Y-133396095D02*
X182524342Y-133396095D01*
X182524342Y-133396095D02*
X182619580Y-133443714D01*
X182619580Y-133443714D02*
X182667200Y-133491333D01*
X182667200Y-133491333D02*
X182714819Y-133586571D01*
X182714819Y-133586571D02*
X182714819Y-133777047D01*
X182714819Y-133777047D02*
X182667200Y-133872285D01*
X182667200Y-133872285D02*
X182619580Y-133919904D01*
X182619580Y-133919904D02*
X182524342Y-133967523D01*
X182524342Y-133967523D02*
X182286247Y-133967523D01*
X182286247Y-133967523D02*
X182191009Y-133919904D01*
X182191009Y-133919904D02*
X182143390Y-133872285D01*
X182143390Y-133872285D02*
X182095771Y-133777047D01*
X182095771Y-133777047D02*
X182095771Y-133586571D01*
X182095771Y-133586571D02*
X182143390Y-133491333D01*
X182143390Y-133491333D02*
X182191009Y-133443714D01*
X182191009Y-133443714D02*
X182286247Y-133396095D01*
X181714819Y-134824666D02*
X181714819Y-134634190D01*
X181714819Y-134634190D02*
X181762438Y-134538952D01*
X181762438Y-134538952D02*
X181810057Y-134491333D01*
X181810057Y-134491333D02*
X181952914Y-134396095D01*
X181952914Y-134396095D02*
X182143390Y-134348476D01*
X182143390Y-134348476D02*
X182524342Y-134348476D01*
X182524342Y-134348476D02*
X182619580Y-134396095D01*
X182619580Y-134396095D02*
X182667200Y-134443714D01*
X182667200Y-134443714D02*
X182714819Y-134538952D01*
X182714819Y-134538952D02*
X182714819Y-134729428D01*
X182714819Y-134729428D02*
X182667200Y-134824666D01*
X182667200Y-134824666D02*
X182619580Y-134872285D01*
X182619580Y-134872285D02*
X182524342Y-134919904D01*
X182524342Y-134919904D02*
X182286247Y-134919904D01*
X182286247Y-134919904D02*
X182191009Y-134872285D01*
X182191009Y-134872285D02*
X182143390Y-134824666D01*
X182143390Y-134824666D02*
X182095771Y-134729428D01*
X182095771Y-134729428D02*
X182095771Y-134538952D01*
X182095771Y-134538952D02*
X182143390Y-134443714D01*
X182143390Y-134443714D02*
X182191009Y-134396095D01*
X182191009Y-134396095D02*
X182286247Y-134348476D01*
X138361819Y-53442095D02*
X139171342Y-53442095D01*
X139171342Y-53442095D02*
X139266580Y-53489714D01*
X139266580Y-53489714D02*
X139314200Y-53537333D01*
X139314200Y-53537333D02*
X139361819Y-53632571D01*
X139361819Y-53632571D02*
X139361819Y-53823047D01*
X139361819Y-53823047D02*
X139314200Y-53918285D01*
X139314200Y-53918285D02*
X139266580Y-53965904D01*
X139266580Y-53965904D02*
X139171342Y-54013523D01*
X139171342Y-54013523D02*
X138361819Y-54013523D01*
X138457057Y-54442095D02*
X138409438Y-54489714D01*
X138409438Y-54489714D02*
X138361819Y-54584952D01*
X138361819Y-54584952D02*
X138361819Y-54823047D01*
X138361819Y-54823047D02*
X138409438Y-54918285D01*
X138409438Y-54918285D02*
X138457057Y-54965904D01*
X138457057Y-54965904D02*
X138552295Y-55013523D01*
X138552295Y-55013523D02*
X138647533Y-55013523D01*
X138647533Y-55013523D02*
X138790390Y-54965904D01*
X138790390Y-54965904D02*
X139361819Y-54394476D01*
X139361819Y-54394476D02*
X139361819Y-55013523D01*
X189005137Y-130766904D02*
X188861731Y-130814706D01*
X188861731Y-130814706D02*
X188813929Y-130862508D01*
X188813929Y-130862508D02*
X188766127Y-130958112D01*
X188766127Y-130958112D02*
X188766127Y-131101518D01*
X188766127Y-131101518D02*
X188813929Y-131197122D01*
X188813929Y-131197122D02*
X188861731Y-131244925D01*
X188861731Y-131244925D02*
X188957335Y-131292727D01*
X188957335Y-131292727D02*
X189339751Y-131292727D01*
X189339751Y-131292727D02*
X189339751Y-130288884D01*
X189339751Y-130288884D02*
X189005137Y-130288884D01*
X189005137Y-130288884D02*
X188909533Y-130336686D01*
X188909533Y-130336686D02*
X188861731Y-130384488D01*
X188861731Y-130384488D02*
X188813929Y-130480092D01*
X188813929Y-130480092D02*
X188813929Y-130575696D01*
X188813929Y-130575696D02*
X188861731Y-130671300D01*
X188861731Y-130671300D02*
X188909533Y-130719102D01*
X188909533Y-130719102D02*
X189005137Y-130766904D01*
X189005137Y-130766904D02*
X189339751Y-130766904D01*
X188431512Y-130288884D02*
X187762284Y-130288884D01*
X187762284Y-130288884D02*
X188431512Y-131292727D01*
X188431512Y-131292727D02*
X187762284Y-131292727D01*
X186854045Y-131292727D02*
X187427669Y-131292727D01*
X187140857Y-131292727D02*
X187140857Y-130288884D01*
X187140857Y-130288884D02*
X187236461Y-130432290D01*
X187236461Y-130432290D02*
X187332065Y-130527894D01*
X187332065Y-130527894D02*
X187427669Y-130575696D01*
X187151268Y-136399946D02*
X186388350Y-136399946D01*
X197158849Y-140258728D02*
X196396369Y-140258728D01*
X196777609Y-140639969D02*
X196777609Y-139877488D01*
X161031532Y-49075800D02*
X160888675Y-49123419D01*
X160888675Y-49123419D02*
X160650580Y-49123419D01*
X160650580Y-49123419D02*
X160555342Y-49075800D01*
X160555342Y-49075800D02*
X160507723Y-49028180D01*
X160507723Y-49028180D02*
X160460104Y-48932942D01*
X160460104Y-48932942D02*
X160460104Y-48837704D01*
X160460104Y-48837704D02*
X160507723Y-48742466D01*
X160507723Y-48742466D02*
X160555342Y-48694847D01*
X160555342Y-48694847D02*
X160650580Y-48647228D01*
X160650580Y-48647228D02*
X160841056Y-48599609D01*
X160841056Y-48599609D02*
X160936294Y-48551990D01*
X160936294Y-48551990D02*
X160983913Y-48504371D01*
X160983913Y-48504371D02*
X161031532Y-48409133D01*
X161031532Y-48409133D02*
X161031532Y-48313895D01*
X161031532Y-48313895D02*
X160983913Y-48218657D01*
X160983913Y-48218657D02*
X160936294Y-48171038D01*
X160936294Y-48171038D02*
X160841056Y-48123419D01*
X160841056Y-48123419D02*
X160602961Y-48123419D01*
X160602961Y-48123419D02*
X160460104Y-48171038D01*
X160126770Y-48123419D02*
X159888675Y-49123419D01*
X159888675Y-49123419D02*
X159698199Y-48409133D01*
X159698199Y-48409133D02*
X159507723Y-49123419D01*
X159507723Y-49123419D02*
X159269628Y-48123419D01*
X158364866Y-49123419D02*
X158936294Y-49123419D01*
X158650580Y-49123419D02*
X158650580Y-48123419D01*
X158650580Y-48123419D02*
X158745818Y-48266276D01*
X158745818Y-48266276D02*
X158841056Y-48361514D01*
X158841056Y-48361514D02*
X158936294Y-48409133D01*
X172762857Y-127609419D02*
X173096190Y-127133228D01*
X173334285Y-127609419D02*
X173334285Y-126609419D01*
X173334285Y-126609419D02*
X172953333Y-126609419D01*
X172953333Y-126609419D02*
X172858095Y-126657038D01*
X172858095Y-126657038D02*
X172810476Y-126704657D01*
X172810476Y-126704657D02*
X172762857Y-126799895D01*
X172762857Y-126799895D02*
X172762857Y-126942752D01*
X172762857Y-126942752D02*
X172810476Y-127037990D01*
X172810476Y-127037990D02*
X172858095Y-127085609D01*
X172858095Y-127085609D02*
X172953333Y-127133228D01*
X172953333Y-127133228D02*
X173334285Y-127133228D01*
X171810476Y-127609419D02*
X172381904Y-127609419D01*
X172096190Y-127609419D02*
X172096190Y-126609419D01*
X172096190Y-126609419D02*
X172191428Y-126752276D01*
X172191428Y-126752276D02*
X172286666Y-126847514D01*
X172286666Y-126847514D02*
X172381904Y-126895133D01*
X171239047Y-127037990D02*
X171334285Y-126990371D01*
X171334285Y-126990371D02*
X171381904Y-126942752D01*
X171381904Y-126942752D02*
X171429523Y-126847514D01*
X171429523Y-126847514D02*
X171429523Y-126799895D01*
X171429523Y-126799895D02*
X171381904Y-126704657D01*
X171381904Y-126704657D02*
X171334285Y-126657038D01*
X171334285Y-126657038D02*
X171239047Y-126609419D01*
X171239047Y-126609419D02*
X171048571Y-126609419D01*
X171048571Y-126609419D02*
X170953333Y-126657038D01*
X170953333Y-126657038D02*
X170905714Y-126704657D01*
X170905714Y-126704657D02*
X170858095Y-126799895D01*
X170858095Y-126799895D02*
X170858095Y-126847514D01*
X170858095Y-126847514D02*
X170905714Y-126942752D01*
X170905714Y-126942752D02*
X170953333Y-126990371D01*
X170953333Y-126990371D02*
X171048571Y-127037990D01*
X171048571Y-127037990D02*
X171239047Y-127037990D01*
X171239047Y-127037990D02*
X171334285Y-127085609D01*
X171334285Y-127085609D02*
X171381904Y-127133228D01*
X171381904Y-127133228D02*
X171429523Y-127228466D01*
X171429523Y-127228466D02*
X171429523Y-127418942D01*
X171429523Y-127418942D02*
X171381904Y-127514180D01*
X171381904Y-127514180D02*
X171334285Y-127561800D01*
X171334285Y-127561800D02*
X171239047Y-127609419D01*
X171239047Y-127609419D02*
X171048571Y-127609419D01*
X171048571Y-127609419D02*
X170953333Y-127561800D01*
X170953333Y-127561800D02*
X170905714Y-127514180D01*
X170905714Y-127514180D02*
X170858095Y-127418942D01*
X170858095Y-127418942D02*
X170858095Y-127228466D01*
X170858095Y-127228466D02*
X170905714Y-127133228D01*
X170905714Y-127133228D02*
X170953333Y-127085609D01*
X170953333Y-127085609D02*
X171048571Y-127037990D01*
X188897066Y-128193619D02*
X189230399Y-127717428D01*
X189468494Y-128193619D02*
X189468494Y-127193619D01*
X189468494Y-127193619D02*
X189087542Y-127193619D01*
X189087542Y-127193619D02*
X188992304Y-127241238D01*
X188992304Y-127241238D02*
X188944685Y-127288857D01*
X188944685Y-127288857D02*
X188897066Y-127384095D01*
X188897066Y-127384095D02*
X188897066Y-127526952D01*
X188897066Y-127526952D02*
X188944685Y-127622190D01*
X188944685Y-127622190D02*
X188992304Y-127669809D01*
X188992304Y-127669809D02*
X189087542Y-127717428D01*
X189087542Y-127717428D02*
X189468494Y-127717428D01*
X188420875Y-128193619D02*
X188230399Y-128193619D01*
X188230399Y-128193619D02*
X188135161Y-128146000D01*
X188135161Y-128146000D02*
X188087542Y-128098380D01*
X188087542Y-128098380D02*
X187992304Y-127955523D01*
X187992304Y-127955523D02*
X187944685Y-127765047D01*
X187944685Y-127765047D02*
X187944685Y-127384095D01*
X187944685Y-127384095D02*
X187992304Y-127288857D01*
X187992304Y-127288857D02*
X188039923Y-127241238D01*
X188039923Y-127241238D02*
X188135161Y-127193619D01*
X188135161Y-127193619D02*
X188325637Y-127193619D01*
X188325637Y-127193619D02*
X188420875Y-127241238D01*
X188420875Y-127241238D02*
X188468494Y-127288857D01*
X188468494Y-127288857D02*
X188516113Y-127384095D01*
X188516113Y-127384095D02*
X188516113Y-127622190D01*
X188516113Y-127622190D02*
X188468494Y-127717428D01*
X188468494Y-127717428D02*
X188420875Y-127765047D01*
X188420875Y-127765047D02*
X188325637Y-127812666D01*
X188325637Y-127812666D02*
X188135161Y-127812666D01*
X188135161Y-127812666D02*
X188039923Y-127765047D01*
X188039923Y-127765047D02*
X187992304Y-127717428D01*
X187992304Y-127717428D02*
X187944685Y-127622190D01*
X192995219Y-49467133D02*
X192519028Y-49133800D01*
X192995219Y-48895705D02*
X191995219Y-48895705D01*
X191995219Y-48895705D02*
X191995219Y-49276657D01*
X191995219Y-49276657D02*
X192042838Y-49371895D01*
X192042838Y-49371895D02*
X192090457Y-49419514D01*
X192090457Y-49419514D02*
X192185695Y-49467133D01*
X192185695Y-49467133D02*
X192328552Y-49467133D01*
X192328552Y-49467133D02*
X192423790Y-49419514D01*
X192423790Y-49419514D02*
X192471409Y-49371895D01*
X192471409Y-49371895D02*
X192519028Y-49276657D01*
X192519028Y-49276657D02*
X192519028Y-48895705D01*
X192995219Y-50419514D02*
X192995219Y-49848086D01*
X192995219Y-50133800D02*
X191995219Y-50133800D01*
X191995219Y-50133800D02*
X192138076Y-50038562D01*
X192138076Y-50038562D02*
X192233314Y-49943324D01*
X192233314Y-49943324D02*
X192280933Y-49848086D01*
X111440580Y-51108494D02*
X112440580Y-51108494D01*
X112440580Y-51108494D02*
X112440580Y-50727542D01*
X112440580Y-50727542D02*
X112392961Y-50632304D01*
X112392961Y-50632304D02*
X112345342Y-50584685D01*
X112345342Y-50584685D02*
X112250104Y-50537066D01*
X112250104Y-50537066D02*
X112107247Y-50537066D01*
X112107247Y-50537066D02*
X112012009Y-50584685D01*
X112012009Y-50584685D02*
X111964390Y-50632304D01*
X111964390Y-50632304D02*
X111916771Y-50727542D01*
X111916771Y-50727542D02*
X111916771Y-51108494D01*
X111440580Y-49584685D02*
X111440580Y-50156113D01*
X111440580Y-49870399D02*
X112440580Y-49870399D01*
X112440580Y-49870399D02*
X112297723Y-49965637D01*
X112297723Y-49965637D02*
X112202485Y-50060875D01*
X112202485Y-50060875D02*
X112154866Y-50156113D01*
X190178104Y-46370819D02*
X190178104Y-47180342D01*
X190178104Y-47180342D02*
X190130485Y-47275580D01*
X190130485Y-47275580D02*
X190082866Y-47323200D01*
X190082866Y-47323200D02*
X189987628Y-47370819D01*
X189987628Y-47370819D02*
X189797152Y-47370819D01*
X189797152Y-47370819D02*
X189701914Y-47323200D01*
X189701914Y-47323200D02*
X189654295Y-47275580D01*
X189654295Y-47275580D02*
X189606676Y-47180342D01*
X189606676Y-47180342D02*
X189606676Y-46370819D01*
X188654295Y-46370819D02*
X189130485Y-46370819D01*
X189130485Y-46370819D02*
X189178104Y-46847009D01*
X189178104Y-46847009D02*
X189130485Y-46799390D01*
X189130485Y-46799390D02*
X189035247Y-46751771D01*
X189035247Y-46751771D02*
X188797152Y-46751771D01*
X188797152Y-46751771D02*
X188701914Y-46799390D01*
X188701914Y-46799390D02*
X188654295Y-46847009D01*
X188654295Y-46847009D02*
X188606676Y-46942247D01*
X188606676Y-46942247D02*
X188606676Y-47180342D01*
X188606676Y-47180342D02*
X188654295Y-47275580D01*
X188654295Y-47275580D02*
X188701914Y-47323200D01*
X188701914Y-47323200D02*
X188797152Y-47370819D01*
X188797152Y-47370819D02*
X189035247Y-47370819D01*
X189035247Y-47370819D02*
X189130485Y-47323200D01*
X189130485Y-47323200D02*
X189178104Y-47275580D01*
X194515238Y-130384057D02*
X194610476Y-130336438D01*
X194610476Y-130336438D02*
X194705714Y-130241200D01*
X194705714Y-130241200D02*
X194848571Y-130098342D01*
X194848571Y-130098342D02*
X194943809Y-130050723D01*
X194943809Y-130050723D02*
X195039047Y-130050723D01*
X194991428Y-130288819D02*
X195086666Y-130241200D01*
X195086666Y-130241200D02*
X195181904Y-130145961D01*
X195181904Y-130145961D02*
X195229523Y-129955485D01*
X195229523Y-129955485D02*
X195229523Y-129622152D01*
X195229523Y-129622152D02*
X195181904Y-129431676D01*
X195181904Y-129431676D02*
X195086666Y-129336438D01*
X195086666Y-129336438D02*
X194991428Y-129288819D01*
X194991428Y-129288819D02*
X194800952Y-129288819D01*
X194800952Y-129288819D02*
X194705714Y-129336438D01*
X194705714Y-129336438D02*
X194610476Y-129431676D01*
X194610476Y-129431676D02*
X194562857Y-129622152D01*
X194562857Y-129622152D02*
X194562857Y-129955485D01*
X194562857Y-129955485D02*
X194610476Y-130145961D01*
X194610476Y-130145961D02*
X194705714Y-130241200D01*
X194705714Y-130241200D02*
X194800952Y-130288819D01*
X194800952Y-130288819D02*
X194991428Y-130288819D01*
X194229523Y-129288819D02*
X193610476Y-129288819D01*
X193610476Y-129288819D02*
X193943809Y-129669771D01*
X193943809Y-129669771D02*
X193800952Y-129669771D01*
X193800952Y-129669771D02*
X193705714Y-129717390D01*
X193705714Y-129717390D02*
X193658095Y-129765009D01*
X193658095Y-129765009D02*
X193610476Y-129860247D01*
X193610476Y-129860247D02*
X193610476Y-130098342D01*
X193610476Y-130098342D02*
X193658095Y-130193580D01*
X193658095Y-130193580D02*
X193705714Y-130241200D01*
X193705714Y-130241200D02*
X193800952Y-130288819D01*
X193800952Y-130288819D02*
X194086666Y-130288819D01*
X194086666Y-130288819D02*
X194181904Y-130241200D01*
X194181904Y-130241200D02*
X194229523Y-130193580D01*
X183238557Y-74777419D02*
X183571890Y-74301228D01*
X183809985Y-74777419D02*
X183809985Y-73777419D01*
X183809985Y-73777419D02*
X183429033Y-73777419D01*
X183429033Y-73777419D02*
X183333795Y-73825038D01*
X183333795Y-73825038D02*
X183286176Y-73872657D01*
X183286176Y-73872657D02*
X183238557Y-73967895D01*
X183238557Y-73967895D02*
X183238557Y-74110752D01*
X183238557Y-74110752D02*
X183286176Y-74205990D01*
X183286176Y-74205990D02*
X183333795Y-74253609D01*
X183333795Y-74253609D02*
X183429033Y-74301228D01*
X183429033Y-74301228D02*
X183809985Y-74301228D01*
X182857604Y-73872657D02*
X182809985Y-73825038D01*
X182809985Y-73825038D02*
X182714747Y-73777419D01*
X182714747Y-73777419D02*
X182476652Y-73777419D01*
X182476652Y-73777419D02*
X182381414Y-73825038D01*
X182381414Y-73825038D02*
X182333795Y-73872657D01*
X182333795Y-73872657D02*
X182286176Y-73967895D01*
X182286176Y-73967895D02*
X182286176Y-74063133D01*
X182286176Y-74063133D02*
X182333795Y-74205990D01*
X182333795Y-74205990D02*
X182905223Y-74777419D01*
X182905223Y-74777419D02*
X182286176Y-74777419D01*
X181333795Y-74777419D02*
X181905223Y-74777419D01*
X181619509Y-74777419D02*
X181619509Y-73777419D01*
X181619509Y-73777419D02*
X181714747Y-73920276D01*
X181714747Y-73920276D02*
X181809985Y-74015514D01*
X181809985Y-74015514D02*
X181905223Y-74063133D01*
X110654780Y-64224533D02*
X110702400Y-64176914D01*
X110702400Y-64176914D02*
X110750019Y-64034057D01*
X110750019Y-64034057D02*
X110750019Y-63938819D01*
X110750019Y-63938819D02*
X110702400Y-63795962D01*
X110702400Y-63795962D02*
X110607161Y-63700724D01*
X110607161Y-63700724D02*
X110511923Y-63653105D01*
X110511923Y-63653105D02*
X110321447Y-63605486D01*
X110321447Y-63605486D02*
X110178590Y-63605486D01*
X110178590Y-63605486D02*
X109988114Y-63653105D01*
X109988114Y-63653105D02*
X109892876Y-63700724D01*
X109892876Y-63700724D02*
X109797638Y-63795962D01*
X109797638Y-63795962D02*
X109750019Y-63938819D01*
X109750019Y-63938819D02*
X109750019Y-64034057D01*
X109750019Y-64034057D02*
X109797638Y-64176914D01*
X109797638Y-64176914D02*
X109845257Y-64224533D01*
X109750019Y-64557867D02*
X109750019Y-65224533D01*
X109750019Y-65224533D02*
X110750019Y-64795962D01*
X170243180Y-73146342D02*
X170290800Y-73098723D01*
X170290800Y-73098723D02*
X170338419Y-72955866D01*
X170338419Y-72955866D02*
X170338419Y-72860628D01*
X170338419Y-72860628D02*
X170290800Y-72717771D01*
X170290800Y-72717771D02*
X170195561Y-72622533D01*
X170195561Y-72622533D02*
X170100323Y-72574914D01*
X170100323Y-72574914D02*
X169909847Y-72527295D01*
X169909847Y-72527295D02*
X169766990Y-72527295D01*
X169766990Y-72527295D02*
X169576514Y-72574914D01*
X169576514Y-72574914D02*
X169481276Y-72622533D01*
X169481276Y-72622533D02*
X169386038Y-72717771D01*
X169386038Y-72717771D02*
X169338419Y-72860628D01*
X169338419Y-72860628D02*
X169338419Y-72955866D01*
X169338419Y-72955866D02*
X169386038Y-73098723D01*
X169386038Y-73098723D02*
X169433657Y-73146342D01*
X170338419Y-74098723D02*
X170338419Y-73527295D01*
X170338419Y-73813009D02*
X169338419Y-73813009D01*
X169338419Y-73813009D02*
X169481276Y-73717771D01*
X169481276Y-73717771D02*
X169576514Y-73622533D01*
X169576514Y-73622533D02*
X169624133Y-73527295D01*
X169671752Y-74955866D02*
X170338419Y-74955866D01*
X169290800Y-74717771D02*
X170005085Y-74479676D01*
X170005085Y-74479676D02*
X170005085Y-75098723D01*
X168820780Y-73146342D02*
X168868400Y-73098723D01*
X168868400Y-73098723D02*
X168916019Y-72955866D01*
X168916019Y-72955866D02*
X168916019Y-72860628D01*
X168916019Y-72860628D02*
X168868400Y-72717771D01*
X168868400Y-72717771D02*
X168773161Y-72622533D01*
X168773161Y-72622533D02*
X168677923Y-72574914D01*
X168677923Y-72574914D02*
X168487447Y-72527295D01*
X168487447Y-72527295D02*
X168344590Y-72527295D01*
X168344590Y-72527295D02*
X168154114Y-72574914D01*
X168154114Y-72574914D02*
X168058876Y-72622533D01*
X168058876Y-72622533D02*
X167963638Y-72717771D01*
X167963638Y-72717771D02*
X167916019Y-72860628D01*
X167916019Y-72860628D02*
X167916019Y-72955866D01*
X167916019Y-72955866D02*
X167963638Y-73098723D01*
X167963638Y-73098723D02*
X168011257Y-73146342D01*
X168916019Y-74098723D02*
X168916019Y-73527295D01*
X168916019Y-73813009D02*
X167916019Y-73813009D01*
X167916019Y-73813009D02*
X168058876Y-73717771D01*
X168058876Y-73717771D02*
X168154114Y-73622533D01*
X168154114Y-73622533D02*
X168201733Y-73527295D01*
X168011257Y-74479676D02*
X167963638Y-74527295D01*
X167963638Y-74527295D02*
X167916019Y-74622533D01*
X167916019Y-74622533D02*
X167916019Y-74860628D01*
X167916019Y-74860628D02*
X167963638Y-74955866D01*
X167963638Y-74955866D02*
X168011257Y-75003485D01*
X168011257Y-75003485D02*
X168106495Y-75051104D01*
X168106495Y-75051104D02*
X168201733Y-75051104D01*
X168201733Y-75051104D02*
X168344590Y-75003485D01*
X168344590Y-75003485D02*
X168916019Y-74432057D01*
X168916019Y-74432057D02*
X168916019Y-75051104D01*
X150035066Y-62667980D02*
X150082685Y-62715600D01*
X150082685Y-62715600D02*
X150225542Y-62763219D01*
X150225542Y-62763219D02*
X150320780Y-62763219D01*
X150320780Y-62763219D02*
X150463637Y-62715600D01*
X150463637Y-62715600D02*
X150558875Y-62620361D01*
X150558875Y-62620361D02*
X150606494Y-62525123D01*
X150606494Y-62525123D02*
X150654113Y-62334647D01*
X150654113Y-62334647D02*
X150654113Y-62191790D01*
X150654113Y-62191790D02*
X150606494Y-62001314D01*
X150606494Y-62001314D02*
X150558875Y-61906076D01*
X150558875Y-61906076D02*
X150463637Y-61810838D01*
X150463637Y-61810838D02*
X150320780Y-61763219D01*
X150320780Y-61763219D02*
X150225542Y-61763219D01*
X150225542Y-61763219D02*
X150082685Y-61810838D01*
X150082685Y-61810838D02*
X150035066Y-61858457D01*
X149177923Y-62096552D02*
X149177923Y-62763219D01*
X149416018Y-61715600D02*
X149654113Y-62429885D01*
X149654113Y-62429885D02*
X149035066Y-62429885D01*
X183277257Y-53523980D02*
X183324876Y-53571600D01*
X183324876Y-53571600D02*
X183467733Y-53619219D01*
X183467733Y-53619219D02*
X183562971Y-53619219D01*
X183562971Y-53619219D02*
X183705828Y-53571600D01*
X183705828Y-53571600D02*
X183801066Y-53476361D01*
X183801066Y-53476361D02*
X183848685Y-53381123D01*
X183848685Y-53381123D02*
X183896304Y-53190647D01*
X183896304Y-53190647D02*
X183896304Y-53047790D01*
X183896304Y-53047790D02*
X183848685Y-52857314D01*
X183848685Y-52857314D02*
X183801066Y-52762076D01*
X183801066Y-52762076D02*
X183705828Y-52666838D01*
X183705828Y-52666838D02*
X183562971Y-52619219D01*
X183562971Y-52619219D02*
X183467733Y-52619219D01*
X183467733Y-52619219D02*
X183324876Y-52666838D01*
X183324876Y-52666838D02*
X183277257Y-52714457D01*
X182324876Y-53619219D02*
X182896304Y-53619219D01*
X182610590Y-53619219D02*
X182610590Y-52619219D01*
X182610590Y-52619219D02*
X182705828Y-52762076D01*
X182705828Y-52762076D02*
X182801066Y-52857314D01*
X182801066Y-52857314D02*
X182896304Y-52904933D01*
X181372495Y-53619219D02*
X181943923Y-53619219D01*
X181658209Y-53619219D02*
X181658209Y-52619219D01*
X181658209Y-52619219D02*
X181753447Y-52762076D01*
X181753447Y-52762076D02*
X181848685Y-52857314D01*
X181848685Y-52857314D02*
X181943923Y-52904933D01*
X174742857Y-50268019D02*
X175076190Y-49791828D01*
X175314285Y-50268019D02*
X175314285Y-49268019D01*
X175314285Y-49268019D02*
X174933333Y-49268019D01*
X174933333Y-49268019D02*
X174838095Y-49315638D01*
X174838095Y-49315638D02*
X174790476Y-49363257D01*
X174790476Y-49363257D02*
X174742857Y-49458495D01*
X174742857Y-49458495D02*
X174742857Y-49601352D01*
X174742857Y-49601352D02*
X174790476Y-49696590D01*
X174790476Y-49696590D02*
X174838095Y-49744209D01*
X174838095Y-49744209D02*
X174933333Y-49791828D01*
X174933333Y-49791828D02*
X175314285Y-49791828D01*
X173790476Y-50268019D02*
X174361904Y-50268019D01*
X174076190Y-50268019D02*
X174076190Y-49268019D01*
X174076190Y-49268019D02*
X174171428Y-49410876D01*
X174171428Y-49410876D02*
X174266666Y-49506114D01*
X174266666Y-49506114D02*
X174361904Y-49553733D01*
X173171428Y-49268019D02*
X173076190Y-49268019D01*
X173076190Y-49268019D02*
X172980952Y-49315638D01*
X172980952Y-49315638D02*
X172933333Y-49363257D01*
X172933333Y-49363257D02*
X172885714Y-49458495D01*
X172885714Y-49458495D02*
X172838095Y-49648971D01*
X172838095Y-49648971D02*
X172838095Y-49887066D01*
X172838095Y-49887066D02*
X172885714Y-50077542D01*
X172885714Y-50077542D02*
X172933333Y-50172780D01*
X172933333Y-50172780D02*
X172980952Y-50220400D01*
X172980952Y-50220400D02*
X173076190Y-50268019D01*
X173076190Y-50268019D02*
X173171428Y-50268019D01*
X173171428Y-50268019D02*
X173266666Y-50220400D01*
X173266666Y-50220400D02*
X173314285Y-50172780D01*
X173314285Y-50172780D02*
X173361904Y-50077542D01*
X173361904Y-50077542D02*
X173409523Y-49887066D01*
X173409523Y-49887066D02*
X173409523Y-49648971D01*
X173409523Y-49648971D02*
X173361904Y-49458495D01*
X173361904Y-49458495D02*
X173314285Y-49363257D01*
X173314285Y-49363257D02*
X173266666Y-49315638D01*
X173266666Y-49315638D02*
X173171428Y-49268019D01*
X166793857Y-127634819D02*
X167127190Y-127158628D01*
X167365285Y-127634819D02*
X167365285Y-126634819D01*
X167365285Y-126634819D02*
X166984333Y-126634819D01*
X166984333Y-126634819D02*
X166889095Y-126682438D01*
X166889095Y-126682438D02*
X166841476Y-126730057D01*
X166841476Y-126730057D02*
X166793857Y-126825295D01*
X166793857Y-126825295D02*
X166793857Y-126968152D01*
X166793857Y-126968152D02*
X166841476Y-127063390D01*
X166841476Y-127063390D02*
X166889095Y-127111009D01*
X166889095Y-127111009D02*
X166984333Y-127158628D01*
X166984333Y-127158628D02*
X167365285Y-127158628D01*
X165841476Y-127634819D02*
X166412904Y-127634819D01*
X166127190Y-127634819D02*
X166127190Y-126634819D01*
X166127190Y-126634819D02*
X166222428Y-126777676D01*
X166222428Y-126777676D02*
X166317666Y-126872914D01*
X166317666Y-126872914D02*
X166412904Y-126920533D01*
X164984333Y-126634819D02*
X165174809Y-126634819D01*
X165174809Y-126634819D02*
X165270047Y-126682438D01*
X165270047Y-126682438D02*
X165317666Y-126730057D01*
X165317666Y-126730057D02*
X165412904Y-126872914D01*
X165412904Y-126872914D02*
X165460523Y-127063390D01*
X165460523Y-127063390D02*
X165460523Y-127444342D01*
X165460523Y-127444342D02*
X165412904Y-127539580D01*
X165412904Y-127539580D02*
X165365285Y-127587200D01*
X165365285Y-127587200D02*
X165270047Y-127634819D01*
X165270047Y-127634819D02*
X165079571Y-127634819D01*
X165079571Y-127634819D02*
X164984333Y-127587200D01*
X164984333Y-127587200D02*
X164936714Y-127539580D01*
X164936714Y-127539580D02*
X164889095Y-127444342D01*
X164889095Y-127444342D02*
X164889095Y-127206247D01*
X164889095Y-127206247D02*
X164936714Y-127111009D01*
X164936714Y-127111009D02*
X164984333Y-127063390D01*
X164984333Y-127063390D02*
X165079571Y-127015771D01*
X165079571Y-127015771D02*
X165270047Y-127015771D01*
X165270047Y-127015771D02*
X165365285Y-127063390D01*
X165365285Y-127063390D02*
X165412904Y-127111009D01*
X165412904Y-127111009D02*
X165460523Y-127206247D01*
X136253904Y-54067019D02*
X136253904Y-54876542D01*
X136253904Y-54876542D02*
X136206285Y-54971780D01*
X136206285Y-54971780D02*
X136158666Y-55019400D01*
X136158666Y-55019400D02*
X136063428Y-55067019D01*
X136063428Y-55067019D02*
X135872952Y-55067019D01*
X135872952Y-55067019D02*
X135777714Y-55019400D01*
X135777714Y-55019400D02*
X135730095Y-54971780D01*
X135730095Y-54971780D02*
X135682476Y-54876542D01*
X135682476Y-54876542D02*
X135682476Y-54067019D01*
X134682476Y-55067019D02*
X135253904Y-55067019D01*
X134968190Y-55067019D02*
X134968190Y-54067019D01*
X134968190Y-54067019D02*
X135063428Y-54209876D01*
X135063428Y-54209876D02*
X135158666Y-54305114D01*
X135158666Y-54305114D02*
X135253904Y-54352733D01*
X161014580Y-50489542D02*
X161062200Y-50441923D01*
X161062200Y-50441923D02*
X161109819Y-50299066D01*
X161109819Y-50299066D02*
X161109819Y-50203828D01*
X161109819Y-50203828D02*
X161062200Y-50060971D01*
X161062200Y-50060971D02*
X160966961Y-49965733D01*
X160966961Y-49965733D02*
X160871723Y-49918114D01*
X160871723Y-49918114D02*
X160681247Y-49870495D01*
X160681247Y-49870495D02*
X160538390Y-49870495D01*
X160538390Y-49870495D02*
X160347914Y-49918114D01*
X160347914Y-49918114D02*
X160252676Y-49965733D01*
X160252676Y-49965733D02*
X160157438Y-50060971D01*
X160157438Y-50060971D02*
X160109819Y-50203828D01*
X160109819Y-50203828D02*
X160109819Y-50299066D01*
X160109819Y-50299066D02*
X160157438Y-50441923D01*
X160157438Y-50441923D02*
X160205057Y-50489542D01*
X161109819Y-51441923D02*
X161109819Y-50870495D01*
X161109819Y-51156209D02*
X160109819Y-51156209D01*
X160109819Y-51156209D02*
X160252676Y-51060971D01*
X160252676Y-51060971D02*
X160347914Y-50965733D01*
X160347914Y-50965733D02*
X160395533Y-50870495D01*
X160109819Y-52346685D02*
X160109819Y-51870495D01*
X160109819Y-51870495D02*
X160586009Y-51822876D01*
X160586009Y-51822876D02*
X160538390Y-51870495D01*
X160538390Y-51870495D02*
X160490771Y-51965733D01*
X160490771Y-51965733D02*
X160490771Y-52203828D01*
X160490771Y-52203828D02*
X160538390Y-52299066D01*
X160538390Y-52299066D02*
X160586009Y-52346685D01*
X160586009Y-52346685D02*
X160681247Y-52394304D01*
X160681247Y-52394304D02*
X160919342Y-52394304D01*
X160919342Y-52394304D02*
X161014580Y-52346685D01*
X161014580Y-52346685D02*
X161062200Y-52299066D01*
X161062200Y-52299066D02*
X161109819Y-52203828D01*
X161109819Y-52203828D02*
X161109819Y-51965733D01*
X161109819Y-51965733D02*
X161062200Y-51870495D01*
X161062200Y-51870495D02*
X161014580Y-51822876D01*
X109268066Y-58115019D02*
X109601399Y-57638828D01*
X109839494Y-58115019D02*
X109839494Y-57115019D01*
X109839494Y-57115019D02*
X109458542Y-57115019D01*
X109458542Y-57115019D02*
X109363304Y-57162638D01*
X109363304Y-57162638D02*
X109315685Y-57210257D01*
X109315685Y-57210257D02*
X109268066Y-57305495D01*
X109268066Y-57305495D02*
X109268066Y-57448352D01*
X109268066Y-57448352D02*
X109315685Y-57543590D01*
X109315685Y-57543590D02*
X109363304Y-57591209D01*
X109363304Y-57591209D02*
X109458542Y-57638828D01*
X109458542Y-57638828D02*
X109839494Y-57638828D01*
X108363304Y-57115019D02*
X108839494Y-57115019D01*
X108839494Y-57115019D02*
X108887113Y-57591209D01*
X108887113Y-57591209D02*
X108839494Y-57543590D01*
X108839494Y-57543590D02*
X108744256Y-57495971D01*
X108744256Y-57495971D02*
X108506161Y-57495971D01*
X108506161Y-57495971D02*
X108410923Y-57543590D01*
X108410923Y-57543590D02*
X108363304Y-57591209D01*
X108363304Y-57591209D02*
X108315685Y-57686447D01*
X108315685Y-57686447D02*
X108315685Y-57924542D01*
X108315685Y-57924542D02*
X108363304Y-58019780D01*
X108363304Y-58019780D02*
X108410923Y-58067400D01*
X108410923Y-58067400D02*
X108506161Y-58115019D01*
X108506161Y-58115019D02*
X108744256Y-58115019D01*
X108744256Y-58115019D02*
X108839494Y-58067400D01*
X108839494Y-58067400D02*
X108887113Y-58019780D01*
X167398380Y-73146342D02*
X167446000Y-73098723D01*
X167446000Y-73098723D02*
X167493619Y-72955866D01*
X167493619Y-72955866D02*
X167493619Y-72860628D01*
X167493619Y-72860628D02*
X167446000Y-72717771D01*
X167446000Y-72717771D02*
X167350761Y-72622533D01*
X167350761Y-72622533D02*
X167255523Y-72574914D01*
X167255523Y-72574914D02*
X167065047Y-72527295D01*
X167065047Y-72527295D02*
X166922190Y-72527295D01*
X166922190Y-72527295D02*
X166731714Y-72574914D01*
X166731714Y-72574914D02*
X166636476Y-72622533D01*
X166636476Y-72622533D02*
X166541238Y-72717771D01*
X166541238Y-72717771D02*
X166493619Y-72860628D01*
X166493619Y-72860628D02*
X166493619Y-72955866D01*
X166493619Y-72955866D02*
X166541238Y-73098723D01*
X166541238Y-73098723D02*
X166588857Y-73146342D01*
X167493619Y-74098723D02*
X167493619Y-73527295D01*
X167493619Y-73813009D02*
X166493619Y-73813009D01*
X166493619Y-73813009D02*
X166636476Y-73717771D01*
X166636476Y-73717771D02*
X166731714Y-73622533D01*
X166731714Y-73622533D02*
X166779333Y-73527295D01*
X166493619Y-74432057D02*
X166493619Y-75051104D01*
X166493619Y-75051104D02*
X166874571Y-74717771D01*
X166874571Y-74717771D02*
X166874571Y-74860628D01*
X166874571Y-74860628D02*
X166922190Y-74955866D01*
X166922190Y-74955866D02*
X166969809Y-75003485D01*
X166969809Y-75003485D02*
X167065047Y-75051104D01*
X167065047Y-75051104D02*
X167303142Y-75051104D01*
X167303142Y-75051104D02*
X167398380Y-75003485D01*
X167398380Y-75003485D02*
X167446000Y-74955866D01*
X167446000Y-74955866D02*
X167493619Y-74860628D01*
X167493619Y-74860628D02*
X167493619Y-74574914D01*
X167493619Y-74574914D02*
X167446000Y-74479676D01*
X167446000Y-74479676D02*
X167398380Y-74432057D01*
X158944057Y-57251419D02*
X159277390Y-56775228D01*
X159515485Y-57251419D02*
X159515485Y-56251419D01*
X159515485Y-56251419D02*
X159134533Y-56251419D01*
X159134533Y-56251419D02*
X159039295Y-56299038D01*
X159039295Y-56299038D02*
X158991676Y-56346657D01*
X158991676Y-56346657D02*
X158944057Y-56441895D01*
X158944057Y-56441895D02*
X158944057Y-56584752D01*
X158944057Y-56584752D02*
X158991676Y-56679990D01*
X158991676Y-56679990D02*
X159039295Y-56727609D01*
X159039295Y-56727609D02*
X159134533Y-56775228D01*
X159134533Y-56775228D02*
X159515485Y-56775228D01*
X157991676Y-57251419D02*
X158563104Y-57251419D01*
X158277390Y-57251419D02*
X158277390Y-56251419D01*
X158277390Y-56251419D02*
X158372628Y-56394276D01*
X158372628Y-56394276D02*
X158467866Y-56489514D01*
X158467866Y-56489514D02*
X158563104Y-56537133D01*
X157515485Y-57251419D02*
X157325009Y-57251419D01*
X157325009Y-57251419D02*
X157229771Y-57203800D01*
X157229771Y-57203800D02*
X157182152Y-57156180D01*
X157182152Y-57156180D02*
X157086914Y-57013323D01*
X157086914Y-57013323D02*
X157039295Y-56822847D01*
X157039295Y-56822847D02*
X157039295Y-56441895D01*
X157039295Y-56441895D02*
X157086914Y-56346657D01*
X157086914Y-56346657D02*
X157134533Y-56299038D01*
X157134533Y-56299038D02*
X157229771Y-56251419D01*
X157229771Y-56251419D02*
X157420247Y-56251419D01*
X157420247Y-56251419D02*
X157515485Y-56299038D01*
X157515485Y-56299038D02*
X157563104Y-56346657D01*
X157563104Y-56346657D02*
X157610723Y-56441895D01*
X157610723Y-56441895D02*
X157610723Y-56679990D01*
X157610723Y-56679990D02*
X157563104Y-56775228D01*
X157563104Y-56775228D02*
X157515485Y-56822847D01*
X157515485Y-56822847D02*
X157420247Y-56870466D01*
X157420247Y-56870466D02*
X157229771Y-56870466D01*
X157229771Y-56870466D02*
X157134533Y-56822847D01*
X157134533Y-56822847D02*
X157086914Y-56775228D01*
X157086914Y-56775228D02*
X157039295Y-56679990D01*
X159892657Y-130804561D02*
X159845038Y-130709323D01*
X159845038Y-130709323D02*
X159749800Y-130614085D01*
X159749800Y-130614085D02*
X159606942Y-130471228D01*
X159606942Y-130471228D02*
X159559323Y-130375990D01*
X159559323Y-130375990D02*
X159559323Y-130280752D01*
X159797419Y-130328371D02*
X159749800Y-130233133D01*
X159749800Y-130233133D02*
X159654561Y-130137895D01*
X159654561Y-130137895D02*
X159464085Y-130090276D01*
X159464085Y-130090276D02*
X159130752Y-130090276D01*
X159130752Y-130090276D02*
X158940276Y-130137895D01*
X158940276Y-130137895D02*
X158845038Y-130233133D01*
X158845038Y-130233133D02*
X158797419Y-130328371D01*
X158797419Y-130328371D02*
X158797419Y-130518847D01*
X158797419Y-130518847D02*
X158845038Y-130614085D01*
X158845038Y-130614085D02*
X158940276Y-130709323D01*
X158940276Y-130709323D02*
X159130752Y-130756942D01*
X159130752Y-130756942D02*
X159464085Y-130756942D01*
X159464085Y-130756942D02*
X159654561Y-130709323D01*
X159654561Y-130709323D02*
X159749800Y-130614085D01*
X159749800Y-130614085D02*
X159797419Y-130518847D01*
X159797419Y-130518847D02*
X159797419Y-130328371D01*
X158797419Y-131661704D02*
X158797419Y-131185514D01*
X158797419Y-131185514D02*
X159273609Y-131137895D01*
X159273609Y-131137895D02*
X159225990Y-131185514D01*
X159225990Y-131185514D02*
X159178371Y-131280752D01*
X159178371Y-131280752D02*
X159178371Y-131518847D01*
X159178371Y-131518847D02*
X159225990Y-131614085D01*
X159225990Y-131614085D02*
X159273609Y-131661704D01*
X159273609Y-131661704D02*
X159368847Y-131709323D01*
X159368847Y-131709323D02*
X159606942Y-131709323D01*
X159606942Y-131709323D02*
X159702180Y-131661704D01*
X159702180Y-131661704D02*
X159749800Y-131614085D01*
X159749800Y-131614085D02*
X159797419Y-131518847D01*
X159797419Y-131518847D02*
X159797419Y-131280752D01*
X159797419Y-131280752D02*
X159749800Y-131185514D01*
X159749800Y-131185514D02*
X159702180Y-131137895D01*
X112077180Y-64199133D02*
X112124800Y-64151514D01*
X112124800Y-64151514D02*
X112172419Y-64008657D01*
X112172419Y-64008657D02*
X112172419Y-63913419D01*
X112172419Y-63913419D02*
X112124800Y-63770562D01*
X112124800Y-63770562D02*
X112029561Y-63675324D01*
X112029561Y-63675324D02*
X111934323Y-63627705D01*
X111934323Y-63627705D02*
X111743847Y-63580086D01*
X111743847Y-63580086D02*
X111600990Y-63580086D01*
X111600990Y-63580086D02*
X111410514Y-63627705D01*
X111410514Y-63627705D02*
X111315276Y-63675324D01*
X111315276Y-63675324D02*
X111220038Y-63770562D01*
X111220038Y-63770562D02*
X111172419Y-63913419D01*
X111172419Y-63913419D02*
X111172419Y-64008657D01*
X111172419Y-64008657D02*
X111220038Y-64151514D01*
X111220038Y-64151514D02*
X111267657Y-64199133D01*
X111600990Y-64770562D02*
X111553371Y-64675324D01*
X111553371Y-64675324D02*
X111505752Y-64627705D01*
X111505752Y-64627705D02*
X111410514Y-64580086D01*
X111410514Y-64580086D02*
X111362895Y-64580086D01*
X111362895Y-64580086D02*
X111267657Y-64627705D01*
X111267657Y-64627705D02*
X111220038Y-64675324D01*
X111220038Y-64675324D02*
X111172419Y-64770562D01*
X111172419Y-64770562D02*
X111172419Y-64961038D01*
X111172419Y-64961038D02*
X111220038Y-65056276D01*
X111220038Y-65056276D02*
X111267657Y-65103895D01*
X111267657Y-65103895D02*
X111362895Y-65151514D01*
X111362895Y-65151514D02*
X111410514Y-65151514D01*
X111410514Y-65151514D02*
X111505752Y-65103895D01*
X111505752Y-65103895D02*
X111553371Y-65056276D01*
X111553371Y-65056276D02*
X111600990Y-64961038D01*
X111600990Y-64961038D02*
X111600990Y-64770562D01*
X111600990Y-64770562D02*
X111648609Y-64675324D01*
X111648609Y-64675324D02*
X111696228Y-64627705D01*
X111696228Y-64627705D02*
X111791466Y-64580086D01*
X111791466Y-64580086D02*
X111981942Y-64580086D01*
X111981942Y-64580086D02*
X112077180Y-64627705D01*
X112077180Y-64627705D02*
X112124800Y-64675324D01*
X112124800Y-64675324D02*
X112172419Y-64770562D01*
X112172419Y-64770562D02*
X112172419Y-64961038D01*
X112172419Y-64961038D02*
X112124800Y-65056276D01*
X112124800Y-65056276D02*
X112077180Y-65103895D01*
X112077180Y-65103895D02*
X111981942Y-65151514D01*
X111981942Y-65151514D02*
X111791466Y-65151514D01*
X111791466Y-65151514D02*
X111696228Y-65103895D01*
X111696228Y-65103895D02*
X111648609Y-65056276D01*
X111648609Y-65056276D02*
X111600990Y-64961038D01*
X169408857Y-57607019D02*
X169742190Y-57130828D01*
X169980285Y-57607019D02*
X169980285Y-56607019D01*
X169980285Y-56607019D02*
X169599333Y-56607019D01*
X169599333Y-56607019D02*
X169504095Y-56654638D01*
X169504095Y-56654638D02*
X169456476Y-56702257D01*
X169456476Y-56702257D02*
X169408857Y-56797495D01*
X169408857Y-56797495D02*
X169408857Y-56940352D01*
X169408857Y-56940352D02*
X169456476Y-57035590D01*
X169456476Y-57035590D02*
X169504095Y-57083209D01*
X169504095Y-57083209D02*
X169599333Y-57130828D01*
X169599333Y-57130828D02*
X169980285Y-57130828D01*
X169027904Y-56702257D02*
X168980285Y-56654638D01*
X168980285Y-56654638D02*
X168885047Y-56607019D01*
X168885047Y-56607019D02*
X168646952Y-56607019D01*
X168646952Y-56607019D02*
X168551714Y-56654638D01*
X168551714Y-56654638D02*
X168504095Y-56702257D01*
X168504095Y-56702257D02*
X168456476Y-56797495D01*
X168456476Y-56797495D02*
X168456476Y-56892733D01*
X168456476Y-56892733D02*
X168504095Y-57035590D01*
X168504095Y-57035590D02*
X169075523Y-57607019D01*
X169075523Y-57607019D02*
X168456476Y-57607019D01*
X167837428Y-56607019D02*
X167742190Y-56607019D01*
X167742190Y-56607019D02*
X167646952Y-56654638D01*
X167646952Y-56654638D02*
X167599333Y-56702257D01*
X167599333Y-56702257D02*
X167551714Y-56797495D01*
X167551714Y-56797495D02*
X167504095Y-56987971D01*
X167504095Y-56987971D02*
X167504095Y-57226066D01*
X167504095Y-57226066D02*
X167551714Y-57416542D01*
X167551714Y-57416542D02*
X167599333Y-57511780D01*
X167599333Y-57511780D02*
X167646952Y-57559400D01*
X167646952Y-57559400D02*
X167742190Y-57607019D01*
X167742190Y-57607019D02*
X167837428Y-57607019D01*
X167837428Y-57607019D02*
X167932666Y-57559400D01*
X167932666Y-57559400D02*
X167980285Y-57511780D01*
X167980285Y-57511780D02*
X168027904Y-57416542D01*
X168027904Y-57416542D02*
X168075523Y-57226066D01*
X168075523Y-57226066D02*
X168075523Y-56987971D01*
X168075523Y-56987971D02*
X168027904Y-56797495D01*
X168027904Y-56797495D02*
X167980285Y-56702257D01*
X167980285Y-56702257D02*
X167932666Y-56654638D01*
X167932666Y-56654638D02*
X167837428Y-56607019D01*
X150060466Y-63988780D02*
X150108085Y-64036400D01*
X150108085Y-64036400D02*
X150250942Y-64084019D01*
X150250942Y-64084019D02*
X150346180Y-64084019D01*
X150346180Y-64084019D02*
X150489037Y-64036400D01*
X150489037Y-64036400D02*
X150584275Y-63941161D01*
X150584275Y-63941161D02*
X150631894Y-63845923D01*
X150631894Y-63845923D02*
X150679513Y-63655447D01*
X150679513Y-63655447D02*
X150679513Y-63512590D01*
X150679513Y-63512590D02*
X150631894Y-63322114D01*
X150631894Y-63322114D02*
X150584275Y-63226876D01*
X150584275Y-63226876D02*
X150489037Y-63131638D01*
X150489037Y-63131638D02*
X150346180Y-63084019D01*
X150346180Y-63084019D02*
X150250942Y-63084019D01*
X150250942Y-63084019D02*
X150108085Y-63131638D01*
X150108085Y-63131638D02*
X150060466Y-63179257D01*
X149727132Y-63084019D02*
X149108085Y-63084019D01*
X149108085Y-63084019D02*
X149441418Y-63464971D01*
X149441418Y-63464971D02*
X149298561Y-63464971D01*
X149298561Y-63464971D02*
X149203323Y-63512590D01*
X149203323Y-63512590D02*
X149155704Y-63560209D01*
X149155704Y-63560209D02*
X149108085Y-63655447D01*
X149108085Y-63655447D02*
X149108085Y-63893542D01*
X149108085Y-63893542D02*
X149155704Y-63988780D01*
X149155704Y-63988780D02*
X149203323Y-64036400D01*
X149203323Y-64036400D02*
X149298561Y-64084019D01*
X149298561Y-64084019D02*
X149584275Y-64084019D01*
X149584275Y-64084019D02*
X149679513Y-64036400D01*
X149679513Y-64036400D02*
X149727132Y-63988780D01*
X176266857Y-134514319D02*
X176600190Y-134038128D01*
X176838285Y-134514319D02*
X176838285Y-133514319D01*
X176838285Y-133514319D02*
X176457333Y-133514319D01*
X176457333Y-133514319D02*
X176362095Y-133561938D01*
X176362095Y-133561938D02*
X176314476Y-133609557D01*
X176314476Y-133609557D02*
X176266857Y-133704795D01*
X176266857Y-133704795D02*
X176266857Y-133847652D01*
X176266857Y-133847652D02*
X176314476Y-133942890D01*
X176314476Y-133942890D02*
X176362095Y-133990509D01*
X176362095Y-133990509D02*
X176457333Y-134038128D01*
X176457333Y-134038128D02*
X176838285Y-134038128D01*
X175314476Y-134514319D02*
X175885904Y-134514319D01*
X175600190Y-134514319D02*
X175600190Y-133514319D01*
X175600190Y-133514319D02*
X175695428Y-133657176D01*
X175695428Y-133657176D02*
X175790666Y-133752414D01*
X175790666Y-133752414D02*
X175885904Y-133800033D01*
X174457333Y-133847652D02*
X174457333Y-134514319D01*
X174695428Y-133466700D02*
X174933523Y-134180985D01*
X174933523Y-134180985D02*
X174314476Y-134180985D01*
X163270857Y-130752561D02*
X163223238Y-130657323D01*
X163223238Y-130657323D02*
X163128000Y-130562085D01*
X163128000Y-130562085D02*
X162985142Y-130419228D01*
X162985142Y-130419228D02*
X162937523Y-130323990D01*
X162937523Y-130323990D02*
X162937523Y-130228752D01*
X163175619Y-130276371D02*
X163128000Y-130181133D01*
X163128000Y-130181133D02*
X163032761Y-130085895D01*
X163032761Y-130085895D02*
X162842285Y-130038276D01*
X162842285Y-130038276D02*
X162508952Y-130038276D01*
X162508952Y-130038276D02*
X162318476Y-130085895D01*
X162318476Y-130085895D02*
X162223238Y-130181133D01*
X162223238Y-130181133D02*
X162175619Y-130276371D01*
X162175619Y-130276371D02*
X162175619Y-130466847D01*
X162175619Y-130466847D02*
X162223238Y-130562085D01*
X162223238Y-130562085D02*
X162318476Y-130657323D01*
X162318476Y-130657323D02*
X162508952Y-130704942D01*
X162508952Y-130704942D02*
X162842285Y-130704942D01*
X162842285Y-130704942D02*
X163032761Y-130657323D01*
X163032761Y-130657323D02*
X163128000Y-130562085D01*
X163128000Y-130562085D02*
X163175619Y-130466847D01*
X163175619Y-130466847D02*
X163175619Y-130276371D01*
X162175619Y-131038276D02*
X162175619Y-131704942D01*
X162175619Y-131704942D02*
X163175619Y-131276371D01*
X111912057Y-69426761D02*
X111864438Y-69331523D01*
X111864438Y-69331523D02*
X111769200Y-69236285D01*
X111769200Y-69236285D02*
X111626342Y-69093428D01*
X111626342Y-69093428D02*
X111578723Y-68998190D01*
X111578723Y-68998190D02*
X111578723Y-68902952D01*
X111816819Y-68950571D02*
X111769200Y-68855333D01*
X111769200Y-68855333D02*
X111673961Y-68760095D01*
X111673961Y-68760095D02*
X111483485Y-68712476D01*
X111483485Y-68712476D02*
X111150152Y-68712476D01*
X111150152Y-68712476D02*
X110959676Y-68760095D01*
X110959676Y-68760095D02*
X110864438Y-68855333D01*
X110864438Y-68855333D02*
X110816819Y-68950571D01*
X110816819Y-68950571D02*
X110816819Y-69141047D01*
X110816819Y-69141047D02*
X110864438Y-69236285D01*
X110864438Y-69236285D02*
X110959676Y-69331523D01*
X110959676Y-69331523D02*
X111150152Y-69379142D01*
X111150152Y-69379142D02*
X111483485Y-69379142D01*
X111483485Y-69379142D02*
X111673961Y-69331523D01*
X111673961Y-69331523D02*
X111769200Y-69236285D01*
X111769200Y-69236285D02*
X111816819Y-69141047D01*
X111816819Y-69141047D02*
X111816819Y-68950571D01*
X111816819Y-70331523D02*
X111816819Y-69760095D01*
X111816819Y-70045809D02*
X110816819Y-70045809D01*
X110816819Y-70045809D02*
X110959676Y-69950571D01*
X110959676Y-69950571D02*
X111054914Y-69855333D01*
X111054914Y-69855333D02*
X111102533Y-69760095D01*
X169815257Y-127634819D02*
X170148590Y-127158628D01*
X170386685Y-127634819D02*
X170386685Y-126634819D01*
X170386685Y-126634819D02*
X170005733Y-126634819D01*
X170005733Y-126634819D02*
X169910495Y-126682438D01*
X169910495Y-126682438D02*
X169862876Y-126730057D01*
X169862876Y-126730057D02*
X169815257Y-126825295D01*
X169815257Y-126825295D02*
X169815257Y-126968152D01*
X169815257Y-126968152D02*
X169862876Y-127063390D01*
X169862876Y-127063390D02*
X169910495Y-127111009D01*
X169910495Y-127111009D02*
X170005733Y-127158628D01*
X170005733Y-127158628D02*
X170386685Y-127158628D01*
X168862876Y-127634819D02*
X169434304Y-127634819D01*
X169148590Y-127634819D02*
X169148590Y-126634819D01*
X169148590Y-126634819D02*
X169243828Y-126777676D01*
X169243828Y-126777676D02*
X169339066Y-126872914D01*
X169339066Y-126872914D02*
X169434304Y-126920533D01*
X167958114Y-126634819D02*
X168434304Y-126634819D01*
X168434304Y-126634819D02*
X168481923Y-127111009D01*
X168481923Y-127111009D02*
X168434304Y-127063390D01*
X168434304Y-127063390D02*
X168339066Y-127015771D01*
X168339066Y-127015771D02*
X168100971Y-127015771D01*
X168100971Y-127015771D02*
X168005733Y-127063390D01*
X168005733Y-127063390D02*
X167958114Y-127111009D01*
X167958114Y-127111009D02*
X167910495Y-127206247D01*
X167910495Y-127206247D02*
X167910495Y-127444342D01*
X167910495Y-127444342D02*
X167958114Y-127539580D01*
X167958114Y-127539580D02*
X168005733Y-127587200D01*
X168005733Y-127587200D02*
X168100971Y-127634819D01*
X168100971Y-127634819D02*
X168339066Y-127634819D01*
X168339066Y-127634819D02*
X168434304Y-127587200D01*
X168434304Y-127587200D02*
X168481923Y-127539580D01*
D12*
%TO.C,Y1*%
X123091200Y-54851600D02*
X127711200Y-54851600D01*
X127711200Y-54851600D02*
X127711200Y-60371600D01*
%TO.C,Q6*%
X175405000Y-130294000D02*
X175405000Y-131704000D01*
X175405000Y-131704000D02*
X176065000Y-131704000D01*
X177065000Y-131704000D02*
X177725000Y-131704000D01*
X177725000Y-130294000D02*
X177725000Y-131704000D01*
X175425000Y-129924000D02*
X175095000Y-130164000D01*
X175095000Y-129684000D01*
X175425000Y-129924000D01*
G36*
X175425000Y-129924000D02*
G01*
X175095000Y-130164000D01*
X175095000Y-129684000D01*
X175425000Y-129924000D01*
G37*
%TO.C,U4*%
X112525000Y-57618000D02*
X112525000Y-61738000D01*
X112525000Y-61738000D02*
X112580000Y-61738000D01*
X112580000Y-57618000D02*
X112525000Y-57618000D01*
X122590000Y-61738000D02*
X122645000Y-61738000D01*
X122645000Y-57618000D02*
X122590000Y-57618000D01*
X122645000Y-61738000D02*
X122645000Y-57618000D01*
X112575000Y-57078000D02*
X112245000Y-57318000D01*
X112245000Y-56838000D01*
X112575000Y-57078000D01*
G36*
X112575000Y-57078000D02*
G01*
X112245000Y-57318000D01*
X112245000Y-56838000D01*
X112575000Y-57078000D01*
G37*
%TO.C,R8*%
X116903621Y-70778500D02*
X116568379Y-70778500D01*
X116903621Y-71538500D02*
X116568379Y-71538500D01*
%TO.C,Q2*%
X117300000Y-68762000D02*
X117300000Y-70282000D01*
X117300000Y-70282000D02*
X118300000Y-70282000D01*
X117350000Y-68762000D02*
X117300000Y-68762000D01*
X119250000Y-68762000D02*
X118470000Y-68762000D01*
X119420000Y-70282000D02*
X120420000Y-70282000D01*
X120420000Y-68762000D02*
X120370000Y-68762000D01*
X120420000Y-70282000D02*
X120420000Y-68762000D01*
X118810000Y-68462000D02*
X118480000Y-68222000D01*
X118810000Y-67982000D01*
X118810000Y-68462000D01*
G36*
X118810000Y-68462000D02*
G01*
X118480000Y-68222000D01*
X118810000Y-67982000D01*
X118810000Y-68462000D01*
G37*
%TO.C,J2*%
D11*
X194869000Y-106901600D02*
X197054000Y-106901600D01*
X197054000Y-84901600D01*
X194869000Y-84901600D01*
X194869000Y-106901600D01*
D12*
%TO.C,R12*%
X167041000Y-136573379D02*
X167041000Y-136908621D01*
X167801000Y-136573379D02*
X167801000Y-136908621D01*
%TO.C,R3*%
X110702600Y-56412479D02*
X110702600Y-56747721D01*
X111462600Y-56412479D02*
X111462600Y-56747721D01*
%TO.C,R17*%
X175417621Y-128054000D02*
X175082379Y-128054000D01*
X175417621Y-128814000D02*
X175082379Y-128814000D01*
%TO.C,U6*%
X171840400Y-54930400D02*
X171840400Y-57050400D01*
X171840400Y-69050400D02*
X171840400Y-71170400D01*
X171840400Y-71170400D02*
X172460400Y-71170400D01*
X172460400Y-54930400D02*
X171840400Y-54930400D01*
X188460400Y-71170400D02*
X196080400Y-71170400D01*
X196080400Y-54930400D02*
X188460400Y-54930400D01*
X196080400Y-71170400D02*
X196080400Y-54930400D01*
X188796400Y-71840400D02*
X188460400Y-71600400D01*
X188796400Y-71360400D01*
X188796400Y-71840400D01*
G36*
X188796400Y-71840400D02*
G01*
X188460400Y-71600400D01*
X188796400Y-71360400D01*
X188796400Y-71840400D01*
G37*
%TO.C,R4*%
X137622479Y-49076000D02*
X137957721Y-49076000D01*
X137622479Y-49836000D02*
X137957721Y-49836000D01*
%TO.C,C1*%
X130900400Y-52726935D02*
X130900400Y-52495265D01*
X131620400Y-52726935D02*
X131620400Y-52495265D01*
%TO.C,R13*%
X169835000Y-133891879D02*
X169835000Y-134227121D01*
X170595000Y-133891879D02*
X170595000Y-134227121D01*
%TO.C,R7*%
X116441379Y-66460500D02*
X116776621Y-66460500D01*
X116441379Y-67220500D02*
X116776621Y-67220500D01*
%TO.C,JP1*%
X168204200Y-137395600D02*
X168204200Y-137995600D01*
X168904200Y-138695600D02*
X170304200Y-138695600D01*
X170304200Y-136695600D02*
X168904200Y-136695600D01*
X171004200Y-137995600D02*
X171004200Y-137395600D01*
X168204200Y-137395600D02*
G75*
G02*
X168904200Y-136695600I699999J1D01*
G01*
X168904200Y-138695600D02*
G75*
G02*
X168204200Y-137995600I-1J699999D01*
G01*
X170304200Y-136695600D02*
G75*
G02*
X171004200Y-137395600I0J-700000D01*
G01*
X171004200Y-137995600D02*
G75*
G02*
X170304200Y-138695600I-700000J0D01*
G01*
%TO.C,R11*%
X168438000Y-135459621D02*
X168438000Y-135124379D01*
X169198000Y-135459621D02*
X169198000Y-135124379D01*
%TO.C,C9*%
X123397200Y-53254835D02*
X123397200Y-53023165D01*
X124117200Y-53254835D02*
X124117200Y-53023165D01*
%TO.C,C2*%
X133303565Y-48441100D02*
X133535235Y-48441100D01*
X133303565Y-49161100D02*
X133535235Y-49161100D01*
%TO.C,R6*%
X108646121Y-59896400D02*
X108310879Y-59896400D01*
X108646121Y-60656400D02*
X108310879Y-60656400D01*
%TO.C,Q4*%
X169055000Y-130294000D02*
X169055000Y-131704000D01*
X169055000Y-131704000D02*
X169715000Y-131704000D01*
X170715000Y-131704000D02*
X171375000Y-131704000D01*
X171375000Y-130294000D02*
X171375000Y-131704000D01*
X169075000Y-129924000D02*
X168745000Y-130164000D01*
X168745000Y-129684000D01*
X169075000Y-129924000D01*
G36*
X169075000Y-129924000D02*
G01*
X168745000Y-130164000D01*
X168745000Y-129684000D01*
X169075000Y-129924000D01*
G37*
%TO.C,C10*%
X125309065Y-60780000D02*
X125540735Y-60780000D01*
X125309065Y-61500000D02*
X125540735Y-61500000D01*
%TO.C,R2*%
X190738000Y-51828379D02*
X190738000Y-52163621D01*
X191498000Y-51828379D02*
X191498000Y-52163621D01*
%TO.C,R22*%
X174521621Y-52886000D02*
X174186379Y-52886000D01*
X174521621Y-53646000D02*
X174186379Y-53646000D01*
%TO.C,J3*%
D11*
X103597800Y-84161600D02*
X101412800Y-84161600D01*
X101412800Y-106161600D01*
X103597800Y-106161600D01*
X103597800Y-84161600D01*
D12*
%TO.C,D66*%
X183260000Y-131298000D02*
X183260000Y-135308000D01*
X183260000Y-131298000D02*
X185260000Y-131298000D01*
X185260000Y-131298000D02*
X185260000Y-135308000D01*
%TO.C,U2*%
X139747000Y-50344000D02*
X139747000Y-58064000D01*
X139747000Y-58064000D02*
X140012000Y-58064000D01*
X140012000Y-50344000D02*
X139747000Y-50344000D01*
X155102000Y-58064000D02*
X155367000Y-58064000D01*
X155367000Y-50344000D02*
X155102000Y-50344000D01*
X155367000Y-58064000D02*
X155367000Y-50344000D01*
X140007000Y-49554000D02*
X139537000Y-49894000D01*
X139537000Y-49214000D01*
X140007000Y-49554000D01*
G36*
X140007000Y-49554000D02*
G01*
X139537000Y-49894000D01*
X139537000Y-49214000D01*
X140007000Y-49554000D01*
G37*
D13*
%TO.C,BZ1*%
X188873600Y-131848000D02*
X188873600Y-134148000D01*
X194073600Y-131848000D02*
X188873600Y-131848000D01*
X194073600Y-131848000D02*
X194073600Y-134148000D01*
X188033600Y-134948000D02*
G75*
G02*
X195713600Y-136338000I3442775J-2889741D01*
G01*
X192953600Y-142098000D02*
G75*
G02*
X187213600Y-139308000I-1475000J4265000D01*
G01*
X195733600Y-139298000D02*
G75*
G02*
X194383601Y-141278001I-4306280J1485870D01*
G01*
D12*
%TO.C,SW1*%
X162440000Y-48215000D02*
X168860000Y-48215000D01*
X162440000Y-48650000D02*
X162440000Y-48215000D01*
X162440000Y-52650000D02*
X162440000Y-50250000D01*
X162440000Y-54685000D02*
X162440000Y-54380000D01*
X168860000Y-48215000D02*
X168860000Y-48650000D01*
X168860000Y-50250000D02*
X168860000Y-52650000D01*
X168860000Y-54250000D02*
X168860000Y-54685000D01*
X168860000Y-54685000D02*
X162440000Y-54685000D01*
%TO.C,R18*%
X171952379Y-128054000D02*
X172287621Y-128054000D01*
X171952379Y-128814000D02*
X172287621Y-128814000D01*
%TO.C,R9*%
X190442379Y-128070000D02*
X190777621Y-128070000D01*
X190442379Y-128830000D02*
X190777621Y-128830000D01*
%TO.C,R1*%
X192008000Y-51828379D02*
X192008000Y-52163621D01*
X192768000Y-51828379D02*
X192768000Y-52163621D01*
%TO.C,P1*%
X113042000Y-49625000D02*
X113042000Y-51325000D01*
X122382000Y-49625000D02*
X122382000Y-51325000D01*
%TO.C,U5*%
X183928000Y-47092000D02*
X183928000Y-47817000D01*
X183928000Y-50587000D02*
X183928000Y-51312000D01*
X183928000Y-51312000D02*
X184653000Y-51312000D01*
X184653000Y-47092000D02*
X183928000Y-47092000D01*
X187423000Y-51312000D02*
X188148000Y-51312000D01*
X188148000Y-47092000D02*
X187423000Y-47092000D01*
X188148000Y-47817000D02*
X188148000Y-47092000D01*
X188148000Y-51312000D02*
X188148000Y-50587000D01*
X188978000Y-48442000D02*
X188648000Y-48202000D01*
X188978000Y-47962000D01*
X188978000Y-48442000D01*
G36*
X188978000Y-48442000D02*
G01*
X188648000Y-48202000D01*
X188978000Y-47962000D01*
X188978000Y-48442000D01*
G37*
%TO.C,Q3*%
X193660000Y-125874000D02*
X193660000Y-125924000D01*
X193660000Y-127044000D02*
X193660000Y-127824000D01*
X193660000Y-128944000D02*
X193660000Y-128994000D01*
X193660000Y-128994000D02*
X195180000Y-128994000D01*
X195180000Y-125874000D02*
X193660000Y-125874000D01*
X195180000Y-126874000D02*
X195180000Y-125874000D01*
X195180000Y-128994000D02*
X195180000Y-127994000D01*
X193120000Y-127814000D02*
X192880000Y-127484000D01*
X193360000Y-127484000D01*
X193120000Y-127814000D01*
G36*
X193120000Y-127814000D02*
G01*
X192880000Y-127484000D01*
X193360000Y-127484000D01*
X193120000Y-127814000D01*
G37*
%TO.C,R21*%
X182428079Y-72571000D02*
X182763321Y-72571000D01*
X182428079Y-73331000D02*
X182763321Y-73331000D01*
%TO.C,C7*%
X110113000Y-62144835D02*
X110113000Y-61913165D01*
X110833000Y-62144835D02*
X110833000Y-61913165D01*
%TO.C,C14*%
X169490000Y-70765835D02*
X169490000Y-70534165D01*
X170210000Y-70765835D02*
X170210000Y-70534165D01*
%TO.C,C12*%
X168025000Y-70713335D02*
X168025000Y-70481665D01*
X168745000Y-70713335D02*
X168745000Y-70481665D01*
%TO.C,C4*%
X147434165Y-60290000D02*
X147665835Y-60290000D01*
X147434165Y-61010000D02*
X147665835Y-61010000D01*
%TO.C,C11*%
X185734165Y-51940800D02*
X185965835Y-51940800D01*
X185734165Y-52660800D02*
X185965835Y-52660800D01*
%TO.C,R10*%
X176128879Y-48263200D02*
X176464121Y-48263200D01*
X176128879Y-49023200D02*
X176464121Y-49023200D01*
%TO.C,R16*%
X166318621Y-128106000D02*
X165983379Y-128106000D01*
X166318621Y-128866000D02*
X165983379Y-128866000D01*
%TO.C,U1*%
X132240400Y-50812100D02*
X132240400Y-52632100D01*
X132240400Y-52632100D02*
X132290400Y-52632100D01*
X132290400Y-50812100D02*
X132240400Y-50812100D01*
X133410400Y-52632100D02*
X134190400Y-52632100D01*
X135310400Y-52632100D02*
X135360400Y-52632100D01*
X135360400Y-50812100D02*
X135310400Y-50812100D01*
X135360400Y-52632100D02*
X135360400Y-50812100D01*
X132290400Y-50272100D02*
X131960400Y-50512100D01*
X131960400Y-50032100D01*
X132290400Y-50272100D01*
G36*
X132290400Y-50272100D02*
G01*
X131960400Y-50512100D01*
X131960400Y-50032100D01*
X132290400Y-50272100D01*
G37*
%TO.C,C15*%
X159135000Y-53568335D02*
X159135000Y-53336665D01*
X159855000Y-53568335D02*
X159855000Y-53336665D01*
%TO.C,R5*%
X109116621Y-58601000D02*
X108781379Y-58601000D01*
X109116621Y-59361000D02*
X108781379Y-59361000D01*
%TO.C,C13*%
X166628000Y-70713335D02*
X166628000Y-70481665D01*
X167348000Y-70713335D02*
X167348000Y-70481665D01*
%TO.C,R19*%
X157972000Y-54995121D02*
X157972000Y-54659879D01*
X158732000Y-54995121D02*
X158732000Y-54659879D01*
%TO.C,Q5*%
X166261000Y-130346000D02*
X166261000Y-131756000D01*
X166261000Y-131756000D02*
X166921000Y-131756000D01*
X167921000Y-131756000D02*
X168581000Y-131756000D01*
X168581000Y-130346000D02*
X168581000Y-131756000D01*
X166281000Y-129976000D02*
X165951000Y-130216000D01*
X165951000Y-129736000D01*
X166281000Y-129976000D01*
G36*
X166281000Y-129976000D02*
G01*
X165951000Y-130216000D01*
X165951000Y-129736000D01*
X166281000Y-129976000D01*
G37*
%TO.C,C8*%
X111256000Y-62144835D02*
X111256000Y-61913165D01*
X111976000Y-62144835D02*
X111976000Y-61913165D01*
%TO.C,R20*%
X166229121Y-56746800D02*
X165893879Y-56746800D01*
X166229121Y-57506800D02*
X165893879Y-57506800D01*
%TO.C,C3*%
X147484165Y-61440000D02*
X147715835Y-61440000D01*
X147484165Y-62160000D02*
X147715835Y-62160000D01*
%TO.C,R14*%
X173010000Y-133891879D02*
X173010000Y-134227121D01*
X173770000Y-133891879D02*
X173770000Y-134227121D01*
%TO.C,Q7*%
X172193000Y-130294000D02*
X172193000Y-131704000D01*
X172193000Y-131704000D02*
X172853000Y-131704000D01*
X173853000Y-131704000D02*
X174513000Y-131704000D01*
X174513000Y-130294000D02*
X174513000Y-131704000D01*
X172213000Y-129924000D02*
X171883000Y-130164000D01*
X171883000Y-129684000D01*
X172213000Y-129924000D01*
G36*
X172213000Y-129924000D02*
G01*
X171883000Y-130164000D01*
X171883000Y-129684000D01*
X172213000Y-129924000D01*
G37*
%TO.C,Q1*%
X112850000Y-68762000D02*
X112850000Y-70282000D01*
X112850000Y-70282000D02*
X113850000Y-70282000D01*
X112900000Y-68762000D02*
X112850000Y-68762000D01*
X114800000Y-68762000D02*
X114020000Y-68762000D01*
X114970000Y-70282000D02*
X115970000Y-70282000D01*
X115970000Y-68762000D02*
X115920000Y-68762000D01*
X115970000Y-70282000D02*
X115970000Y-68762000D01*
X114360000Y-68462000D02*
X114030000Y-68222000D01*
X114360000Y-67982000D01*
X114360000Y-68462000D01*
G36*
X114360000Y-68462000D02*
G01*
X114030000Y-68222000D01*
X114360000Y-67982000D01*
X114360000Y-68462000D01*
G37*
%TO.C,R15*%
X169112621Y-128181000D02*
X168777379Y-128181000D01*
X169112621Y-128941000D02*
X168777379Y-128941000D01*
%TD*%
M02*
