%TF.GenerationSoftware,KiCad,Pcbnew,9.0.6*%
%TF.CreationDate,2026-03-20T11:44:22+02:00*%
%TF.ProjectId,RocketClock,526f636b-6574-4436-9c6f-636b2e6b6963,rev?*%
%TF.SameCoordinates,Original*%
%TF.FileFunction,Profile,NP*%
%FSLAX46Y46*%
G04 Gerber Fmt 4.6, Leading zero omitted, Abs format (unit mm)*
G04 Created by KiCad (PCBNEW 9.0.6) date 2026-03-20 11:44:22*
%MOMM*%
%LPD*%
G01*
G04 APERTURE LIST*
%TA.AperFunction,Profile*%
%ADD10C,0.200000*%
%TD*%
G04 APERTURE END LIST*
D10*
X197050000Y-82953499D02*
G75*
G02*
X199050000Y-80953500I2000000J-1D01*
G01*
X199250000Y-50999999D02*
X199250000Y-80953472D01*
X199250000Y-140999999D02*
G75*
G02*
X194250000Y-146000000I-5000000J-1D01*
G01*
X197050000Y-82953499D02*
X197050000Y-108115991D01*
X199050000Y-110115991D02*
X199250000Y-110115991D01*
X199050000Y-110115991D02*
G75*
G02*
X197050009Y-108115991I0J1999991D01*
G01*
X99250000Y-110115991D02*
X99250000Y-141000000D01*
X99250000Y-80953472D02*
X99450001Y-80953472D01*
X194250000Y-45999999D02*
G75*
G02*
X199250001Y-50999999I0J-5000001D01*
G01*
X99450001Y-110115991D02*
X99250000Y-110115991D01*
X194250000Y-145999999D02*
X104250001Y-145999999D01*
X194250000Y-45999999D02*
X104249999Y-45999999D01*
X199050000Y-80953499D02*
X199050000Y-80953472D01*
X199250000Y-110115991D02*
X199250000Y-140999999D01*
X101450000Y-82953471D02*
X101450000Y-108115991D01*
X99250000Y-51000000D02*
G75*
G02*
X104249999Y-46000000I5000000J0D01*
G01*
X101450000Y-108115991D02*
G75*
G02*
X99450001Y-110116000I-2000000J-9D01*
G01*
X104250001Y-145999999D02*
G75*
G02*
X99250001Y-141000000I-1J4999999D01*
G01*
X99250000Y-51000000D02*
X99250000Y-80953472D01*
X99450001Y-80953472D02*
G75*
G02*
X101450028Y-82953471I-1J-2000028D01*
G01*
X199250000Y-80953472D02*
X199050000Y-80953472D01*
M02*
