%TF.GenerationSoftware,KiCad,Pcbnew,9.0.6*%
%TF.CreationDate,2026-03-23T10:25:13+02:00*%
%TF.ProjectId,RocketClock,526f636b-6574-4436-9c6f-636b2e6b6963,rev?*%
%TF.SameCoordinates,Original*%
%TF.FileFunction,Soldermask,Top*%
%TF.FilePolarity,Negative*%
%FSLAX46Y46*%
G04 Gerber Fmt 4.6, Leading zero omitted, Abs format (unit mm)*
G04 Created by KiCad (PCBNEW 9.0.6) date 2026-03-23 10:25:13*
%MOMM*%
%LPD*%
G01*
G04 APERTURE LIST*
G04 Aperture macros list*
%AMRoundRect*
0 Rectangle with rounded corners*
0 $1 Rounding radius*
0 $2 $3 $4 $5 $6 $7 $8 $9 X,Y pos of 4 corners*
0 Add a 4 corners polygon primitive as box body*
4,1,4,$2,$3,$4,$5,$6,$7,$8,$9,$2,$3,0*
0 Add four circle primitives for the rounded corners*
1,1,$1+$1,$2,$3*
1,1,$1+$1,$4,$5*
1,1,$1+$1,$6,$7*
1,1,$1+$1,$8,$9*
0 Add four rect primitives between the rounded corners*
20,1,$1+$1,$2,$3,$4,$5,0*
20,1,$1+$1,$4,$5,$6,$7,0*
20,1,$1+$1,$6,$7,$8,$9,0*
20,1,$1+$1,$8,$9,$2,$3,0*%
G04 Aperture macros list end*
%ADD10RoundRect,0.250000X-0.325000X-0.450000X0.325000X-0.450000X0.325000X0.450000X-0.325000X0.450000X0*%
%ADD11R,0.600000X1.750000*%
%ADD12RoundRect,0.087500X-0.250000X-0.087500X0.250000X-0.087500X0.250000X0.087500X-0.250000X0.087500X0*%
%ADD13RoundRect,0.155000X0.212500X0.155000X-0.212500X0.155000X-0.212500X-0.155000X0.212500X-0.155000X0*%
%ADD14C,0.800000*%
%ADD15O,1.000000X1.800000*%
%ADD16O,1.000000X2.100000*%
G04 APERTURE END LIST*
D10*
%TO.C,D65*%
X192100000Y-139750000D03*
X194150000Y-139750000D03*
%TD*%
%TO.C,D15*%
X167100000Y-64750000D03*
X169150000Y-64750000D03*
%TD*%
%TO.C,D56*%
X179600000Y-127250000D03*
X181650000Y-127250000D03*
%TD*%
%TO.C,D25*%
X192100000Y-77250000D03*
X194150000Y-77250000D03*
%TD*%
%TO.C,D48*%
X179600000Y-114750000D03*
X181650000Y-114750000D03*
%TD*%
%TO.C,D13*%
X142100000Y-64750000D03*
X144150000Y-64750000D03*
%TD*%
%TO.C,D39*%
X167100000Y-102250000D03*
X169150000Y-102250000D03*
%TD*%
%TO.C,D61*%
X142100000Y-139750000D03*
X144150000Y-139750000D03*
%TD*%
%TO.C,D11*%
X117100000Y-64750000D03*
X119150000Y-64750000D03*
%TD*%
%TO.C,D53*%
X142100000Y-127250000D03*
X144150000Y-127250000D03*
%TD*%
%TO.C,D46*%
X154600000Y-114750000D03*
X156650000Y-114750000D03*
%TD*%
%TO.C,D59*%
X117100000Y-139750000D03*
X119150000Y-139750000D03*
%TD*%
D11*
%TO.C,J1*%
X173319200Y-49608400D03*
X174319200Y-47858400D03*
X175319200Y-49608400D03*
X176319200Y-47858400D03*
X177319200Y-49608400D03*
X178319200Y-47858400D03*
%TD*%
D12*
%TO.C,U3*%
X195037500Y-48250000D03*
X195037500Y-48750000D03*
X195037500Y-49250000D03*
X196462500Y-49250000D03*
X196462500Y-48750000D03*
X196462500Y-48250000D03*
%TD*%
D10*
%TO.C,D35*%
X117100000Y-102250000D03*
X119150000Y-102250000D03*
%TD*%
%TO.C,D7*%
X167100000Y-52250000D03*
X169150000Y-52250000D03*
%TD*%
%TO.C,D3*%
X117100000Y-52250000D03*
X119150000Y-52250000D03*
%TD*%
%TO.C,D6*%
X154600000Y-52250000D03*
X156650000Y-52250000D03*
%TD*%
%TO.C,D31*%
X167100000Y-89750000D03*
X169150000Y-89750000D03*
%TD*%
%TO.C,D37*%
X142100000Y-102250000D03*
X144150000Y-102250000D03*
%TD*%
%TO.C,D40*%
X179600000Y-102250000D03*
X181650000Y-102250000D03*
%TD*%
%TO.C,D19*%
X117100000Y-77250000D03*
X119150000Y-77250000D03*
%TD*%
%TO.C,D28*%
X129600000Y-89750000D03*
X131650000Y-89750000D03*
%TD*%
%TO.C,D44*%
X129600000Y-114750000D03*
X131650000Y-114750000D03*
%TD*%
%TO.C,D38*%
X154600000Y-102250000D03*
X156650000Y-102250000D03*
%TD*%
%TO.C,D42*%
X104600000Y-114750000D03*
X106650000Y-114750000D03*
%TD*%
%TO.C,D5*%
X142100000Y-52250000D03*
X144150000Y-52250000D03*
%TD*%
%TO.C,D64*%
X179600000Y-139750000D03*
X181650000Y-139750000D03*
%TD*%
%TO.C,D50*%
X104600000Y-127250000D03*
X106650000Y-127250000D03*
%TD*%
%TO.C,D57*%
X192100000Y-127250000D03*
X194150000Y-127250000D03*
%TD*%
%TO.C,D58*%
X104600000Y-139750000D03*
X106650000Y-139750000D03*
%TD*%
%TO.C,D14*%
X154600000Y-64750000D03*
X156650000Y-64750000D03*
%TD*%
%TO.C,D36*%
X129600000Y-102250000D03*
X131650000Y-102250000D03*
%TD*%
%TO.C,D45*%
X142100000Y-114750000D03*
X144150000Y-114750000D03*
%TD*%
%TO.C,D41*%
X192100000Y-102250000D03*
X194150000Y-102250000D03*
%TD*%
%TO.C,D63*%
X167100000Y-139750000D03*
X169150000Y-139750000D03*
%TD*%
%TO.C,D10*%
X104600000Y-64750000D03*
X106650000Y-64750000D03*
%TD*%
%TO.C,D34*%
X104600000Y-102250000D03*
X106650000Y-102250000D03*
%TD*%
%TO.C,D18*%
X104600000Y-77250000D03*
X106650000Y-77250000D03*
%TD*%
%TO.C,D33*%
X192100000Y-89750000D03*
X194150000Y-89750000D03*
%TD*%
%TO.C,D22*%
X154600000Y-77250000D03*
X156650000Y-77250000D03*
%TD*%
%TO.C,D27*%
X117100000Y-89750000D03*
X119150000Y-89750000D03*
%TD*%
%TO.C,D47*%
X167100000Y-114750000D03*
X169150000Y-114750000D03*
%TD*%
%TO.C,D16*%
X179600000Y-64750000D03*
X181650000Y-64750000D03*
%TD*%
%TO.C,D4*%
X129600000Y-52250000D03*
X131650000Y-52250000D03*
%TD*%
%TO.C,D62*%
X154600000Y-139750000D03*
X156650000Y-139750000D03*
%TD*%
%TO.C,D49*%
X192100000Y-114750000D03*
X194150000Y-114750000D03*
%TD*%
%TO.C,D21*%
X142100000Y-77250000D03*
X144150000Y-77250000D03*
%TD*%
%TO.C,D52*%
X129600000Y-127250000D03*
X131650000Y-127250000D03*
%TD*%
%TO.C,D29*%
X142100000Y-89750000D03*
X144150000Y-89750000D03*
%TD*%
%TO.C,D9*%
X192100000Y-52250000D03*
X194150000Y-52250000D03*
%TD*%
%TO.C,D54*%
X154600000Y-127250000D03*
X156650000Y-127250000D03*
%TD*%
%TO.C,D26*%
X104600000Y-89750000D03*
X106650000Y-89750000D03*
%TD*%
%TO.C,D8*%
X179600000Y-52250000D03*
X181650000Y-52250000D03*
%TD*%
%TO.C,D24*%
X179600000Y-77250000D03*
X181650000Y-77250000D03*
%TD*%
%TO.C,D20*%
X129600000Y-77250000D03*
X131650000Y-77250000D03*
%TD*%
%TO.C,D51*%
X117100000Y-127250000D03*
X119150000Y-127250000D03*
%TD*%
%TO.C,D32*%
X179600000Y-89750000D03*
X181650000Y-89750000D03*
%TD*%
%TO.C,D12*%
X129600000Y-64750000D03*
X131650000Y-64750000D03*
%TD*%
D13*
%TO.C,C6*%
X197617500Y-50250000D03*
X196482500Y-50250000D03*
%TD*%
D10*
%TO.C,D60*%
X129600000Y-139750000D03*
X131650000Y-139750000D03*
%TD*%
%TO.C,D55*%
X167100000Y-127250000D03*
X169150000Y-127250000D03*
%TD*%
D13*
%TO.C,C5*%
X197617500Y-51350000D03*
X196482500Y-51350000D03*
%TD*%
D10*
%TO.C,D23*%
X167100000Y-77250000D03*
X169150000Y-77250000D03*
%TD*%
%TO.C,D2*%
X104600000Y-52250000D03*
X106650000Y-52250000D03*
%TD*%
%TO.C,D17*%
X192100000Y-64750000D03*
X194150000Y-64750000D03*
%TD*%
%TO.C,D43*%
X117100000Y-114750000D03*
X119150000Y-114750000D03*
%TD*%
%TO.C,D30*%
X154600000Y-89750000D03*
X156650000Y-89750000D03*
%TD*%
D14*
%TO.C,BZ1*%
X193723600Y-141745000D03*
X187576600Y-135598000D03*
%TD*%
D15*
%TO.C,P1*%
X113392000Y-48450000D03*
D16*
X113392000Y-52630000D03*
D15*
X122032000Y-48450000D03*
D16*
X122032000Y-52630000D03*
%TD*%
M02*
