M48
; DRILL file {KiCad 9.0.6} date 2026-03-23T10:25:17+0200
; FORMAT={-:-/ absolute / metric / decimal}
; #@! TF.CreationDate,2026-03-23T10:25:17+02:00
; #@! TF.GenerationSoftware,Kicad,Pcbnew,9.0.6
; #@! TF.FileFunction,Plated,1,2,PTH
FMAT,2
METRIC
; #@! TA.AperFunction,Plated,PTH,ViaDrill
T1C0.300
; #@! TA.AperFunction,Plated,PTH,ComponentDrill
T2C0.600
%
G90
G05
T1
X102.116Y-77.088
X102.218Y-64.696
X102.37Y-114.68
X102.37Y-127.126
X102.37Y-139.826
X102.574Y-94.414
X102.624Y-102.234
X104.606Y-88.064
X105.647Y-48.567
X108.335Y-48.004
X108.72Y-77.088
X108.72Y-89.788
X108.822Y-64.696
X108.949Y-50.091
X108.974Y-114.68
X108.974Y-127.126
X108.974Y-139.826
X109.076Y-53.774
X109.228Y-102.234
X109.838Y-47.881
X113.14Y-70.792
X114.61Y-76.326
X114.61Y-89.026
X114.61Y-101.472
X114.61Y-113.918
X114.61Y-126.364
X114.61Y-139.064
X115.299Y-65.966
X115.498Y-49.5
X116.34Y-59.159
X116.34Y-59.921
X116.467Y-68.531
X116.95Y-59.159
X116.95Y-59.921
X118.347Y-66.093
X119.363Y-49.5
X119.7Y-70.459
X119.998Y-59.108
X119.998Y-59.743
X119.998Y-60.378
X120.633Y-59.108
X120.633Y-59.743
X120.633Y-60.378
X121.268Y-59.108
X121.268Y-59.743
X121.268Y-60.378
X121.468Y-77.088
X121.468Y-89.788
X121.468Y-102.234
X121.468Y-114.68
X121.468Y-127.126
X121.468Y-139.826
X121.522Y-64.696
X122.15Y-69.693
X122.15Y-70.493
X122.538Y-64.086
X123.503Y-62.004
X124.316Y-62.689
X127.056Y-63.88
X127.056Y-76.326
X127.056Y-89.026
X127.056Y-101.472
X127.056Y-113.918
X127.056Y-126.364
X127.31Y-139.064
X130.412Y-50.421
X130.412Y-54.79
X130.412Y-55.679
X130.412Y-56.695
X130.412Y-57.584
X130.92Y-55.298
X130.92Y-56.187
X130.92Y-57.203
X131.022Y-50.421
X131.682Y-50.421
X132.85Y-55.45
X132.85Y-56.263
X132.85Y-57.025
X133.511Y-55.73
X133.511Y-56.543
X133.511Y-57.305
X133.9Y-64.8
X133.914Y-77.088
X133.914Y-89.788
X133.914Y-102.234
X133.914Y-114.68
X133.914Y-127.126
X133.917Y-87.505
X134.168Y-139.826
X135.492Y-92.992
X135.848Y-50.523
X135.898Y-98.072
X136.254Y-51.132
X136.61Y-50.523
X136.965Y-51.132
X137.321Y-50.574
X138.134Y-87.505
X138.413Y-63.934
X138.413Y-67.4
X139.502Y-89.026
X139.502Y-101.472
X139.502Y-113.918
X139.502Y-139.064
X139.756Y-63.88
X139.756Y-76.326
X139.756Y-126.364
X140.521Y-47.627
X141.387Y-60.812
X141.842Y-48.059
X142.833Y-72.164
X142.985Y-54.79
X143.1Y-60.75
X143.112Y-92.992
X143.417Y-98.072
X144.839Y-60.988
X145.525Y-54.79
X145.652Y-60.886
X145.804Y-87.505
X146.1Y-74.576
X146.36Y-89.788
X146.36Y-102.234
X146.36Y-114.68
X146.36Y-139.826
X146.614Y-77.088
X146.614Y-127.126
X146.922Y-51.488
X147.176Y-98.072
X147.227Y-64.642
X147.328Y-92.992
X148.192Y-52.631
X149.45Y-60.75
X149.513Y-87.505
X149.767Y-89.08
X150.732Y-61.013
X150.834Y-68.049
X150.834Y-71.503
X150.834Y-77.955
X151.138Y-52.098
X151.948Y-63.88
X151.948Y-76.326
X151.948Y-101.472
X151.948Y-113.918
X151.948Y-139.064
X152.202Y-89.026
X152.202Y-126.364
X152.256Y-51.031
X152.637Y-61.013
X153.272Y-56.974
X154.034Y-69.649
X154.161Y-71.935
X154.694Y-92.992
X154.847Y-98.072
X157.717Y-52.25
X158.2Y-58.346
X158.586Y-64.622
X158.733Y-51.05
X158.806Y-77.088
X158.806Y-102.234
X158.806Y-114.68
X158.806Y-139.826
X159.06Y-89.788
X159.06Y-127.126
X159.063Y-63.426
X159.495Y-55.425
X160.892Y-60.276
X160.892Y-72.951
X163.559Y-62.41
X164.394Y-76.326
X164.394Y-89.026
X164.394Y-101.472
X164.648Y-113.918
X164.648Y-139.064
X164.702Y-126.291
X165.273Y-64.632
X165.616Y-60.886
X165.87Y-63.883
X165.972Y-61.496
X166.023Y-60.276
X166.328Y-60.886
X166.683Y-56.212
X166.683Y-61.496
X166.734Y-60.276
X167.039Y-60.886
X167.14Y-58.6
X167.394Y-61.496
X167.445Y-51.132
X167.445Y-60.276
X168.131Y-81.587
X168.385Y-67.998
X169.325Y-50.45
X169.782Y-67.998
X170.087Y-87.505
X170.171Y-51.508
X170.29Y-63.045
X170.29Y-125.529
X170.493Y-66.728
X170.696Y-98.122
X170.798Y-95.532
X170.849Y-92.992
X170.925Y-81.587
X171.179Y-114.68
X171.252Y-77.088
X171.252Y-89.788
X171.252Y-102.234
X171.433Y-121.465
X171.433Y-122.735
X171.433Y-124.005
X171.506Y-139.826
X172.525Y-53.317
X173.211Y-122.735
X173.211Y-124.005
X173.236Y-47.119
X173.846Y-121.465
X174.049Y-95.532
X174.303Y-87.505
X175.243Y-73.205
X175.243Y-76.253
X175.268Y-47.627
X175.472Y-68.201
X176.284Y-49.812
X176.84Y-63.88
X176.84Y-77.142
X176.84Y-113.918
X177.094Y-89.026
X177.094Y-101.472
X177.094Y-126.364
X177.094Y-139.064
X177.25Y-51.132
X177.351Y-47.729
X177.453Y-68.201
X179.307Y-60.505
X179.307Y-61.14
X179.307Y-61.775
X179.307Y-62.41
X179.307Y-81.587
X179.434Y-68.379
X179.561Y-47.932
X179.942Y-60.505
X179.942Y-61.14
X179.942Y-61.775
X179.942Y-62.41
X180.501Y-93.042
X180.577Y-60.505
X180.577Y-61.14
X180.577Y-61.775
X180.577Y-62.41
X180.755Y-98.122
X181.72Y-81.587
X182.533Y-95.532
X182.787Y-87.505
X182.99Y-47.78
X182.99Y-52.225
X183.698Y-77.088
X183.698Y-114.68
X183.952Y-89.788
X183.952Y-102.234
X183.952Y-127.126
X183.952Y-139.826
X184.006Y-60.505
X184.006Y-61.14
X184.006Y-61.775
X184.006Y-62.41
X184.15Y-58.55
X184.311Y-50.878
X184.362Y-52.25
X184.641Y-60.505
X184.641Y-61.14
X184.641Y-61.775
X184.641Y-62.41
X184.968Y-64.642
X185.276Y-60.505
X185.276Y-61.14
X185.276Y-61.775
X185.276Y-62.41
X185.657Y-58.6
X187.206Y-58.651
X187.968Y-47.526
X188.451Y-51.996
X189.224Y-51.213
X189.75Y-53.75
X189.975Y-48.034
X190.356Y-51.488
X191.22Y-98.122
X191.677Y-92.992
X192.642Y-81.714
X194.166Y-85.829
X194.166Y-91.315
X195.487Y-97.056
X195.532Y-91.981
X195.538Y-94.566
X195.995Y-88.42
X196.452Y-52.352
T2
X113.392Y-48.05G85X113.392Y-48.85
G05
X113.392Y-52.08G85X113.392Y-53.18
G05
X122.032Y-48.05G85X122.032Y-48.85
G05
X122.032Y-52.08G85X122.032Y-53.18
G05
M30
